<svg xmlns="http://www.w3.org/2000/svg" xmlns:xlink="http://www.w3.org/1999/xlink" width="180" height="180" viewBox="0 0 180 180">
    <defs>
        <circle id="b" cx="90" cy="90" r="90"/>
        <filter id="a" width="102.2%" height="102.2%" x="-1.1%" y="-1.1%" filterUnits="objectBoundingBox">
            <feGaussianBlur in="SourceAlpha" result="shadowBlurInner1" stdDeviation="1.5"/>
            <feOffset dy="1" in="shadowBlurInner1" result="shadowOffsetInner1"/>
            <feComposite in="shadowOffsetInner1" in2="SourceAlpha" k2="-1" k3="1" operator="arithmetic" result="shadowInnerInner1"/>
            <feColorMatrix in="shadowInnerInner1" values="0 0 0 0 0 0 0 0 0 0 0 0 0 0 0 0 0 0 0.5 0"/>
        </filter>
    </defs>
    <g fill="none" fill-rule="evenodd">
        <g>
            <use fill="#000" filter="url(#a)" xlink:href="#b"/>
            <circle cx="90" cy="90" r="85" stroke="#1D79B7" stroke-width="10"/>
        </g>
        <g fill="#FFF100">
            <path d="M148.509 95.083h-35.177a3.278 3.278 0 0 1-2.943-1.796L96.037 64.931a1.613 1.613 0 0 1 .072-1.58c.301-.479.83-.771 1.4-.771h24.678c.91 0 1.645.728 1.645 1.625s-.736 1.625-1.645 1.625H100.17l13.161 26.003h32.515L132.23 64.93a1.618 1.618 0 0 1 .737-2.18c.815-.4 1.8-.075 2.208.727l14.806 29.253a1.613 1.613 0 0 1-.072 1.582c-.301.477-.83.77-1.4.77"/>
            <path d="M133.703 82.082a1.636 1.636 0 0 1-1.646-1.625V57.704h-6.58v22.753c0 .897-.737 1.625-1.645 1.625a1.636 1.636 0 0 1-1.645-1.625V56.079c0-.897.737-1.625 1.645-1.625h9.87c.909 0 1.646.728 1.646 1.625v24.378c0 .897-.737 1.625-1.645 1.625M84.019 95.083H79.34a3.282 3.282 0 0 1-2.93-1.77 3.207 3.207 0 0 1 .263-3.383l19.504-26.676a1.658 1.658 0 0 1 2.296-.367c.736.526.902 1.542.37 2.269L79.34 91.833h3.842L99.47 69.748a1.659 1.659 0 0 1 2.298-.356c.734.529.895 1.546.36 2.27l-16.78 22.753a1.65 1.65 0 0 1-1.33.668"/>
            <path d="M84.348 124.336a1.636 1.636 0 0 1-1.645-1.625V93.458c0-.897.737-1.625 1.645-1.625s1.645.728 1.645 1.625v29.253c0 .897-.737 1.625-1.645 1.625M117.251 124.336a1.636 1.636 0 0 1-1.645-1.625V93.458c0-.897.737-1.625 1.645-1.625s1.645.728 1.645 1.625v29.253c0 .897-.737 1.625-1.645 1.625M143.573 124.336a1.636 1.636 0 0 1-1.645-1.625V93.458c0-.897.737-1.625 1.645-1.625.909 0 1.646.728 1.646 1.625v29.253c0 .897-.737 1.625-1.646 1.625"/>
            <path d="M153.444 125.961H61.316a1.636 1.636 0 0 1-1.645-1.625c0-.897.737-1.625 1.645-1.625h92.128c.908 0 1.645.728 1.645 1.625s-.737 1.625-1.645 1.625"/>
            <path d="M102.445 125.961a1.636 1.636 0 0 1-1.645-1.625V99.958h-3.29v24.378c0 .897-.738 1.625-1.646 1.625a1.636 1.636 0 0 1-1.645-1.625V98.333c0-.897.737-1.625 1.645-1.625h6.58c.909 0 1.646.728 1.646 1.625v26.003c0 .897-.737 1.625-1.645 1.625M128.767 108.084h4.935v-4.875h-4.935v4.875zm6.58 3.25h-8.226a1.636 1.636 0 0 1-1.645-1.625v-8.125c0-.897.737-1.626 1.645-1.626h8.226c.91 0 1.645.729 1.645 1.626v8.125c0 .898-.735 1.626-1.645 1.626zM79 124.336c-.827 0-1.54-.614-1.634-1.446-.039-.342-4.116-34.392-25.914-48.445a1.615 1.615 0 0 1-.479-2.25 1.659 1.659 0 0 1 2.277-.472c23.111 14.9 27.224 49.35 27.387 50.809A1.63 1.63 0 0 1 79 124.336"/>
            <path d="M50.916 73.956h.017-.017zm-10.723 1.736c.257 0 .513.008.777.024a1.64 1.64 0 0 1 1.447 1.076c.22.612.051 1.297-.43 1.739-.062.055-6.037 5.598-5.21 10.766.267 1.689 1.28 3.207 3.013 4.536-.599-3.447-.885-8.616 1.356-13.155 1.732-3.512 4.667-6.044 8.726-7.533 1.355-1.781 6.42-7.204 16.665-5.118-2.54-1.269-6.566-2.54-12.936-3.253a1.645 1.645 0 0 1-1.222-.775 1.61 1.61 0 0 1-.124-1.434c.073-.183 1.23-2.995 4.3-4.922-1.16.047-2.372.264-3.54.765-2.864 1.227-4.973 3.941-6.27 8.069a1.635 1.635 0 0 1-1.24 1.11 1.656 1.656 0 0 1-1.58-.538c-.113-.122-3.075-3.302-9.99-2.282-2.552.376-4.402 1.276-5.727 2.27 4.248-.994 10.274-1.46 15.048 1.886.598.42.841 1.175.6 1.857a1.654 1.654 0 0 1-1.638 1.09c-.08 0-7.885-.337-11.588 4.233-1.433 1.77-2.096 4.094-1.986 6.944 2.27-3.73 6.06-7.355 11.55-7.355zm2.11 23.12c-.234 0-.471-.048-.693-.15-4.781-2.198-7.502-5.181-8.086-8.87-.606-3.825 1.291-7.528 3.15-10.11-5.113 2.278-7.038 9.019-7.135 9.373-.192.706-.84 1.153-1.582 1.153h-.005c-.739 0-1.387-.436-1.586-1.138-1.802-6.384-1.226-11.427 1.707-15.038 1.925-2.368 4.564-3.7 7.053-4.46-5.424-.293-10.708 2.107-10.784 2.143a1.662 1.662 0 0 1-1.795-.259 1.612 1.612 0 0 1-.459-1.732c.096-.28 2.458-6.86 11.362-8.173 5.353-.79 8.931.56 10.951 1.784 1.646-3.889 4.105-6.547 7.333-7.92 6.09-2.591 12.552.482 12.825.614a1.62 1.62 0 0 1 .867 1.864c-.192.746-.885 1.235-1.67 1.219-3.717-.176-5.961 1.407-7.187 2.769 16.236 2.425 17.429 8.85 17.512 9.61a1.616 1.616 0 0 1-.666 1.488 1.664 1.664 0 0 1-1.64.17c-14.142-6.243-19.232 1.83-19.44 2.177-.2.33-.519.59-.887.715-3.46 1.168-5.93 3.203-7.338 6.047-3.093 6.244-.28 14.487-.251 14.57.215.616.036 1.3-.453 1.737-.31.275-.704.418-1.104.418z"/>
            <path d="M68.172 125.961c-.026 0-.05 0-.077-.002a1.633 1.633 0 0 1-1.568-1.698C67.715 98.82 48.45 77.22 48.255 77.003a1.611 1.611 0 0 1 .13-2.295 1.654 1.654 0 0 1 2.32.129c.833.916 20.36 22.78 19.11 49.574a1.637 1.637 0 0 1-1.643 1.55"/>
        </g>
    </g>
</svg>
