<svg xmlns="http://www.w3.org/2000/svg" xmlns:xlink="http://www.w3.org/1999/xlink" width="140" height="140" viewBox="0 0 140 140">
    <defs>
        <circle id="b" cx="70" cy="70" r="70"/>
        <filter id="a" width="102.9%" height="102.9%" x="-1.4%" y="-1.4%" filterUnits="objectBoundingBox">
            <feGaussianBlur in="SourceAlpha" result="shadowBlurInner1" stdDeviation="1.5"/>
            <feOffset dy="1" in="shadowBlurInner1" result="shadowOffsetInner1"/>
            <feComposite in="shadowOffsetInner1" in2="SourceAlpha" k2="-1" k3="1" operator="arithmetic" result="shadowInnerInner1"/>
            <feColorMatrix in="shadowInnerInner1" values="0 0 0 0 0 0 0 0 0 0 0 0 0 0 0 0 0 0 0.5 0"/>
        </filter>
    </defs>
    <g fill="none" fill-rule="evenodd">
        <path fill="#FFF100" d="M113.04 88.294H91.22a16.002 16.002 0 0 0-2.58-7.124c.075-.079.133-.173.21-.25a9.168 9.168 0 0 1 6.501-2.709h3.978c1.19 1.99 3.344 3.339 5.828 3.339 1.576 0 3.013-.562 4.17-1.467.348.263.698.524 1.008.832l-.005.005a9.174 9.174 0 0 1 2.71 6.5v.874zM87.476 91.19H51.642v-1.166c0-3.368 1.384-6.438 3.605-8.659 2.222-2.226 5.286-3.608 8.662-3.608h5.3c1.586 2.65 4.456 4.447 7.764 4.447 2.112 0 4.034-.756 5.577-1.97.464.347.912.715 1.321 1.124l-.007.007a12.218 12.218 0 0 1 3.612 8.66v1.165zm-61.255-3.76c0-2.531 1.04-4.834 2.707-6.502a9.175 9.175 0 0 1 6.503-2.709h3.98c1.19 1.99 3.344 3.339 5.827 3.339 1.579 0 3.016-.562 4.172-1.467.349.263.7.524 1.008.832l-.005.005c.044.044.077.096.12.142a15.996 15.996 0 0 0-2.643 7.234H26.22v-.875zm20.633-8.683c-.5.203-1.043.32-1.616.32a4.284 4.284 0 0 1-2.548-.848h1.22c1.034 0 2.013.212 2.944.528zM30.36 66.692h.546c.647 1.824 2.373 3.142 4.417 3.142h1.923a.317.317 0 0 0 .273-.154c.709-1.171 1.747-2.424 2.165-2.424.43 0 1.46 1.258 2.165 2.424a.317.317 0 0 0 .273.154h1.923c2.042 0 3.77-1.318 4.417-3.142h.514c-.182 2.29-1.14 4.361-2.672 5.893-1.407 1.407-3.272 2.329-5.34 2.616-.018-.152-.048-.3-.048-.457V74.1a2.686 2.686 0 0 0 1.461-2.382.319.319 0 0 0-.318-.32h-4.75a.32.32 0 0 0-.32.32c0 1.03.586 1.915 1.437 2.368v.658c0 .161.036.312.047.47-2.11-.272-4.015-1.198-5.44-2.624V72.581c-1.527-1.528-2.49-3.6-2.673-5.889zm16.89-1.562a3.208 3.208 0 0 1-3.205 3.204h-1.1a.319.319 0 0 1-.265-.142c-1.642-2.438-2.66-2.438-2.996-2.438-.78 0-1.545.54-2.482 1.749-.162.208-.332.44-.505.693a.32.32 0 0 1-.263.138h-1.111a3.208 3.208 0 0 1-3.204-3.204 3.208 3.208 0 0 1 3.204-3.203h8.722a3.208 3.208 0 0 1 3.204 3.203zm-14.218-5.82a9.364 9.364 0 0 1 6.633-2.748 9.374 9.374 0 0 1 6.644 2.747h-.005a9.38 9.38 0 0 1 2.072 3.18h-.443a4.7 4.7 0 0 0-3.888-2.063h-8.722a4.705 4.705 0 0 0-3.89 2.063h-.471a9.402 9.402 0 0 1 2.07-3.18zm14.02 16.44c.458-.344.888-.719 1.294-1.127.443-.442.842-.927 1.215-1.435v1.556c0 .651-.156 1.264-.415 1.818-.67-.325-1.363-.614-2.095-.812zm32.14 2.688a5.723 5.723 0 0 1-2.22.448 5.71 5.71 0 0 1-3.394-1.13h1.624c1.398 0 2.737.248 3.99.682zM57.103 62.405h.78c.862 2.429 3.16 4.184 5.883 4.184h2.56a.426.426 0 0 0 .364-.206c.943-1.56 2.327-3.229 2.884-3.229.574 0 1.942 1.676 2.882 3.229a.429.429 0 0 0 .366.206h2.56c2.721 0 5.02-1.755 5.884-4.184h.736a12.464 12.464 0 0 1-3.61 7.847 12.46 12.46 0 0 1-7.11 3.526c-.025-.215-.067-.427-.067-.649v-.858c1.15-.598 1.946-1.788 1.946-3.172a.426.426 0 0 0-.425-.426H66.41a.426.426 0 0 0-.425.426c0 1.37.78 2.55 1.912 3.155v.875c0 .231.053.446.069.672a12.447 12.447 0 0 1-7.252-3.542v-.011a12.474 12.474 0 0 1-3.61-7.843zm22.546-2.08a4.272 4.272 0 0 1-4.267 4.266h-1.465a.423.423 0 0 1-.353-.19c-2.186-3.246-3.544-3.246-3.99-3.246-1.04 0-2.06.718-3.308 2.328-.215.278-.44.588-.672.922a.425.425 0 0 1-.35.186h-1.478a4.272 4.272 0 0 1-4.269-4.267 4.273 4.273 0 0 1 4.269-4.268h11.616a4.272 4.272 0 0 1 4.267 4.268zM60.714 52.57a12.477 12.477 0 0 1 8.835-3.661c3.46 0 6.587 1.402 8.85 3.661h-.007a12.492 12.492 0 0 1 2.774 4.237h-.604a6.263 6.263 0 0 0-5.18-2.75H63.766a6.264 6.264 0 0 0-5.182 2.75h-.642c.635-1.6 1.58-3.042 2.772-4.237zm18.674 21.9c.609-.46 1.183-.96 1.724-1.502.59-.59 1.121-1.236 1.617-1.911v2.072c0 .868-.207 1.683-.552 2.422-.894-.434-1.814-.817-2.79-1.082zm27.382 4.271a4.305 4.305 0 0 1-1.613.319 4.284 4.284 0 0 1-2.548-.849h1.218c1.036 0 2.014.212 2.943.53zM90.282 66.69h.546c.647 1.823 2.373 3.141 4.415 3.141h1.921c.112 0 .217-.06.275-.154.707-1.17 1.747-2.424 2.163-2.424.432 0 1.46 1.259 2.165 2.424a.323.323 0 0 0 .273.154h1.923c2.042 0 3.768-1.318 4.415-3.141h.515c-.182 2.289-1.141 4.36-2.67 5.89-1.41 1.407-3.273 2.33-5.342 2.617-.015-.153-.045-.3-.045-.457v-.644a2.687 2.687 0 0 0 1.46-2.382.317.317 0 0 0-.32-.318H97.23a.319.319 0 0 0-.32.318c0 1.03.586 1.915 1.437 2.368v.658c0 .161.036.311.047.467-2.11-.27-4.015-1.195-5.44-2.621v-.007c-1.527-1.53-2.488-3.6-2.671-5.889zm16.884-1.561a3.206 3.206 0 0 1-3.203 3.202h-1.1a.318.318 0 0 1-.265-.141c-1.641-2.438-2.66-2.438-2.996-2.438-.78 0-1.545.539-2.481 1.748-.161.208-.331.441-.504.693a.321.321 0 0 1-.265.138h-1.11a3.206 3.206 0 0 1-3.202-3.202 3.205 3.205 0 0 1 3.203-3.203h8.72a3.205 3.205 0 0 1 3.203 3.203zm-14.214-5.82a9.367 9.367 0 0 1 6.633-2.748 9.373 9.373 0 0 1 6.643 2.747h-.006a9.376 9.376 0 0 1 2.07 3.18h-.44a4.704 4.704 0 0 0-3.889-2.063h-8.72a4.7 4.7 0 0 0-3.889 2.063h-.47a9.398 9.398 0 0 1 2.068-3.18zm14.018 16.437c.456-.346.887-.719 1.293-1.127.443-.443.842-.927 1.214-1.435v1.556a4.27 4.27 0 0 1-.414 1.816 11.967 11.967 0 0 0-2.093-.81zm5.4 3.134v.002l-.005-.002c-.37-.37-.765-.717-1.181-1.037.484-.935.784-1.98.784-3.103V52.86a.319.319 0 0 0-.32-.318h-1.852a.319.319 0 0 0-.319.318v5.842a12.533 12.533 0 0 0-1.214-1.435v.005l-.005-.005a12.233 12.233 0 0 0-8.673-3.591c-3.381 0-6.45 1.374-8.668 3.593a12.217 12.217 0 0 0-3.595 8.673c0 3.39 1.372 6.455 3.595 8.676v-.003c.404.406.836.782 1.298 1.13a12.106 12.106 0 0 0-5.407 3.134l-.005.006c-.076-.077-.142-.163-.22-.24v.003l-.006-.003a16.403 16.403 0 0 0-1.573-1.383c.644-1.246 1.043-2.637 1.043-4.133V43.981a.426.426 0 0 0-.427-.425h-2.466a.426.426 0 0 0-.425.425v7.782a16.717 16.717 0 0 0-1.617-1.913v.007l-.007-.007a16.305 16.305 0 0 0-11.556-4.784c-4.504 0-8.594 1.83-11.548 4.788a16.273 16.273 0 0 0-4.788 11.555 16.28 16.28 0 0 0 4.788 11.559v-.004a16.518 16.518 0 0 0 1.73 1.505 16.108 16.108 0 0 0-7.204 4.176c-.054.054-.101.115-.156.171a12.34 12.34 0 0 0-1.102-.969c.483-.935.782-1.98.782-3.103V52.86a.319.319 0 0 0-.32-.318h-1.852a.319.319 0 0 0-.318.318v5.844a12.533 12.533 0 0 0-1.215-1.435v.003l-.005-.003a12.235 12.235 0 0 0-8.676-3.593c-3.381 0-6.45 1.374-8.67 3.594a12.218 12.218 0 0 0-3.594 8.675c0 3.39 1.372 6.458 3.594 8.678v-.001c.406.404.837.78 1.299 1.128a12.106 12.106 0 0 0-5.408 3.135 12.063 12.063 0 0 0-3.552 8.543v2.319c0 .794.649 1.442 1.443 1.442h23.018V93.112c0 1.059.865 1.922 1.923 1.922H89.393a1.922 1.922 0 0 0 1.923-1.922V91.18h23.163c.8 0 1.444-.647 1.444-1.442V87.42c0-3.323-1.362-6.352-3.553-8.54z"/>
        <g>
            <use fill="#000" filter="url(#a)" xlink:href="#b"/>
            <circle cx="70" cy="70" r="65" stroke="#1D79B7" stroke-width="10"/>
        </g>
    </g>
</svg>
