<svg xmlns="http://www.w3.org/2000/svg" xmlns:xlink="http://www.w3.org/1999/xlink" width="140" height="140" viewBox="0 0 140 140">
    <defs>
        <circle id="b" cx="70" cy="70" r="70"/>
        <filter id="a" width="102.9%" height="102.9%" x="-1.4%" y="-1.4%" filterUnits="objectBoundingBox">
            <feGaussianBlur in="SourceAlpha" result="shadowBlurInner1" stdDeviation="1.5"/>
            <feOffset dy="1" in="shadowBlurInner1" result="shadowOffsetInner1"/>
            <feComposite in="shadowOffsetInner1" in2="SourceAlpha" k2="-1" k3="1" operator="arithmetic" result="shadowInnerInner1"/>
            <feColorMatrix in="shadowInnerInner1" values="0 0 0 0 0 0 0 0 0 0 0 0 0 0 0 0 0 0 0.5 0"/>
        </filter>
    </defs>
    <g fill="none" fill-rule="evenodd">
        <path fill="#FFF100" d="M51.441 62.829a1.54 1.54 0 0 0 1.543 1.542h32.368a1.544 1.544 0 0 0 0-3.085H52.984a1.54 1.54 0 0 0-1.543 1.543M52.984 70.478H78.41a1.543 1.543 0 0 0 0-3.085H52.984a1.54 1.54 0 0 0-1.543 1.543 1.54 1.54 0 0 0 1.543 1.542M66.975 78.803H52.984a1.54 1.54 0 0 0-1.543 1.543 1.54 1.54 0 0 0 1.543 1.542h13.991a1.54 1.54 0 0 0 1.543-1.542 1.54 1.54 0 0 0-1.543-1.543M66.975 84.714H52.984a1.54 1.54 0 0 0-1.543 1.543 1.54 1.54 0 0 0 1.543 1.542h13.991a1.54 1.54 0 0 0 1.543-1.542 1.54 1.54 0 0 0-1.543-1.543M85.32 84.316a1.57 1.57 0 0 0-.265.813l-.031.946c-.103.159-.212.313-.331.46l-.885.318c-.278.099-.519.276-.7.506l-.576.744c-.177.069-.36.127-.545.176l-.903-.264a1.615 1.615 0 0 0-.861 0l-.9.264a5.136 5.136 0 0 1-.548-.178l-.57-.74a1.547 1.547 0 0 0-.7-.508l-.885-.318a5.335 5.335 0 0 1-.337-.468l-.031-.935a1.523 1.523 0 0 0-.265-.813l-.521-.77c-.006-.098-.015-.196-.015-.297 0-.1.009-.199.015-.298l.521-.771c.162-.241.253-.522.265-.814l.03-.931c.105-.162.216-.32.338-.468l.885-.318c.277-.1.518-.277.7-.506l.573-.744c.176-.068.356-.126.54-.175l.905.262c.283.079.578.079.861 0l.906-.263c.184.05.364.107.54.175l.579.745c.18.229.421.407.699.506l.885.318c.119.147.228.3.331.46l.031.945c.012.293.103.573.265.814l.528.776c.005.096.014.19.014.287 0 .097-.01.192-.014.288l-.528.776zm-.804-8.395l-.395-.51a1.554 1.554 0 0 0-1.651-.537l-.628.183a8.22 8.22 0 0 0-1.185-.096 8.32 8.32 0 0 0-1.187.095l-.627-.182c-.633-.172-1.266.036-1.65.536l-.397.51a8.359 8.359 0 0 0-1.918 1.398l-.609.219a1.55 1.55 0 0 0-1.024 1.401l-.02.663a8.22 8.22 0 0 0-.73 2.24l-.37.546a1.558 1.558 0 0 0 0 1.73l.37.544c.136.792.384 1.544.73 2.243l.02.663c.018.63.422 1.187 1.019 1.4l.617.222a8.35 8.35 0 0 0 1.545 1.18l-2.144 2.855c-.513.681-.38 1.648.307 2.157a1.537 1.537 0 0 0 2.157-.307l2.573-3.426c.044-.059.078-.123.113-.187l.042-.012c.387.056.78.094 1.183.094.4 0 .793-.038 1.179-.093l.045.013c.035.063.069.127.113.185l2.573 3.426a1.536 1.536 0 0 0 2.157.307c.681-.509.82-1.476.307-2.157l-2.145-2.855c.561-.335 1.08-.73 1.546-1.182l.611-.22c.597-.213 1-.768 1.019-1.4l.023-.657a8.214 8.214 0 0 0 .734-2.255l.364-.538a1.535 1.535 0 0 0 0-1.73l-.364-.537a8.218 8.218 0 0 0-.734-2.255l-.023-.657a1.535 1.535 0 0 0-1.019-1.401l-.61-.22a8.331 8.331 0 0 0-1.917-1.396z"/>
        <path fill="#FFF100" d="M93.467 99.416H45.533v-42.32l.354-.356h16.31a1.54 1.54 0 0 0 1.543-1.542v-16.31l.355-.355h29.372v60.883zM60.655 41.973v11.682H48.973l11.682-11.682zm34.037-7.75H62.817c-.82 0-1.602.325-2.18.903l-18.511 18.51a3.084 3.084 0 0 0-.904 2.182v44.823a3.083 3.083 0 0 0 3.085 3.085h50.385a3.083 3.083 0 0 0 3.085-3.085V37.308a3.083 3.083 0 0 0-3.085-3.085z"/>
        <g>
            <use fill="#000" filter="url(#a)" xlink:href="#b"/>
            <circle cx="70" cy="70" r="65" stroke="#1D79B7" stroke-width="10"/>
        </g>
    </g>
</svg>
