<svg xmlns="http://www.w3.org/2000/svg" xmlns:xlink="http://www.w3.org/1999/xlink" width="140" height="140" viewBox="0 0 140 140">
    <defs>
        <circle id="b" cx="70" cy="70" r="70"/>
        <filter id="a" width="102.9%" height="102.9%" x="-1.4%" y="-1.4%" filterUnits="objectBoundingBox">
            <feGaussianBlur in="SourceAlpha" result="shadowBlurInner1" stdDeviation="1.5"/>
            <feOffset dy="1" in="shadowBlurInner1" result="shadowOffsetInner1"/>
            <feComposite in="shadowOffsetInner1" in2="SourceAlpha" k2="-1" k3="1" operator="arithmetic" result="shadowInnerInner1"/>
            <feColorMatrix in="shadowInnerInner1" values="0 0 0 0 0 0 0 0 0 0 0 0 0 0 0 0 0 0 0.5 0"/>
        </filter>
    </defs>
    <g fill="none" fill-rule="evenodd">
        <path fill="#FFF100" d="M102.49 83.263H85.977V63.75a2.3 2.3 0 0 0-.958-1.869c-3.296-2.37-6.77-3.524-10.635-3.524-4.7 0-9.272 1.753-13.725 3.784V55.568c0-.517.423-.938.94-.938h40.893a.94.94 0 0 1 .941.938v6.145h-9.1a5.034 5.034 0 0 0-5.027 5.027v4.41a5.032 5.032 0 0 0 5.027 5.027h9.1v6.144a.943.943 0 0 1-.941.942zm-21.115 4.04c-2.211-.96-4.523-1.433-6.992-1.433-5.797 0-11.401 2.659-16.826 5.23-5.187 2.461-10.089 4.785-14.85 4.785h-.005c-2.497 0-4.796-.662-6.99-2.019V71.542c2.207.961 4.522 1.431 6.994 1.431 5.795 0 11.404-2.658 16.824-5.227 5.191-2.462 10.09-4.786 14.853-4.786 2.5 0 4.793.66 6.992 2.017v22.326zm22.057-15.358h-9.1a.794.794 0 0 1-.794-.794v-4.41c0-.439.356-.794.794-.794h9.1v5.998zM61.597 43.65h40.894a.94.94 0 0 1 .941.94v1.164H64.795a1.057 1.057 0 1 0 0 2.116h38.637v2.623a5.111 5.111 0 0 0-.941-.096H61.597c-.321 0-.632.039-.94.096V44.59c0-.518.424-.94.94-.94zm40.894-4.232H61.597a5.177 5.177 0 0 0-5.172 5.172v19.53c-4.768 2.252-9.306 4.252-13.719 4.252-2.865 0-5.464-.87-7.953-2.658a2.303 2.303 0 0 0-2.394-.18 2.304 2.304 0 0 0-1.248 2.047v27.513c0 .74.355 1.435.954 1.869 3.3 2.37 6.775 3.523 10.637 3.523h.004c5.795-.002 11.4-2.658 16.824-5.227 5.187-2.462 10.09-4.785 14.853-4.785 2.863 0 5.462.867 7.947 2.658a2.302 2.302 0 0 0 3.647-1.869v-3.767h16.514a5.18 5.18 0 0 0 5.174-5.175V44.59a5.18 5.18 0 0 0-5.174-5.172z"/>
        <path fill="#FFF100" d="M63.072 79.604a1.556 1.556 0 0 0-.572.462c-.177.215-.383.664-.63 1.346-.381 1.047-.775 1.784-1.188 2.213-.408.43-.863.76-1.356.995-1.325.627-2.104-.222-2.343-2.546.997-.468 1.99-.942 2.984-1.412.095-.044.203-.22.332-.527.123-.304.184-.556.184-.75 0-.172-.065-.225-.2-.164-1.122.525-2.242 1.063-3.362 1.587a7.4 7.4 0 0 1-.02-.651c.008-.335.016-.671.02-1.006 1.016-.476 2.03-.963 3.046-1.44.095-.043.203-.219.332-.526.123-.307.184-.554.184-.745 0-.178-.065-.235-.2-.17-1.093.511-2.185 1.034-3.279 1.546.114-1.166.377-2.104.777-2.82a3.788 3.788 0 0 1 1.727-1.6c.65-.306 1.113-.395 1.386-.268.269.131.504.392.703.783.152.294.313.495.47.6.162.107.414.08.761-.073.31-.14.574-.366.794-.69.214-.324.326-.647.326-.982 0-.976-.464-1.606-1.384-1.856-.927-.25-2.026-.068-3.3.538-2.897 1.382-4.567 3.9-5.01 7.625-.338.148-.676.296-1.015.438-.091.04-.199.214-.328.523-.127.313-.193.556-.193.734 0 .17.062.227.184.178.42-.174.832-.351 1.25-.533a35.52 35.52 0 0 0-.037 1.31v.368c-.294.125-.584.252-.876.375-.091.038-.199.21-.328.522-.127.31-.193.55-.193.722 0 .176.062.237.184.186.432-.177.862-.362 1.291-.548.19 1.835.773 3.014 1.74 3.515.972.498 2.108.43 3.41-.186 1.392-.66 2.58-1.627 3.555-2.9.976-1.273 1.467-2.389 1.467-3.385 0-.422-.114-.703-.343-.843-.226-.14-.546-.12-.95.055M50.894 73.57c-4.41 1.652-7.966 2.11-11.18 1.426-.555-.106-1.133.241-1.254.817-.12.571.244 1.132.815 1.253a16.3 16.3 0 0 0 3.414.35c2.688 0 5.604-.613 8.95-1.868.544-.203.826-.813.62-1.36a1.054 1.054 0 0 0-1.365-.619M64.825 68.518a1.063 1.063 0 0 0 1.365.622c4.417-1.657 7.968-2.112 11.18-1.428a1.07 1.07 0 0 0 1.256-.817 1.056 1.056 0 0 0-.817-1.253c-3.613-.769-7.55-.286-12.36 1.513-.55.207-.827.817-.624 1.363M50.894 89.707c-4.41 1.65-7.966 2.11-11.18 1.426-.555-.103-1.133.242-1.254.817-.12.572.244 1.133.815 1.253a16.3 16.3 0 0 0 3.414.351c2.688 0 5.604-.613 8.95-1.868.544-.203.826-.813.62-1.361a1.054 1.054 0 0 0-1.365-.618M77.808 81.779c-3.613-.767-7.547-.288-12.36 1.515-.55.205-.825.817-.624 1.36.16.426.567.69.993.69.124 0 .247-.02.372-.067 4.419-1.657 7.968-2.11 11.18-1.426a1.073 1.073 0 0 0 1.258-.817 1.061 1.061 0 0 0-.819-1.255"/>
        <g>
            <use fill="#000" filter="url(#a)" xlink:href="#b"/>
            <circle cx="70" cy="70" r="65" stroke="#1D79B7" stroke-width="10"/>
        </g>
    </g>
</svg>
