<svg xmlns="http://www.w3.org/2000/svg" xmlns:xlink="http://www.w3.org/1999/xlink" width="180" height="180" viewBox="0 0 180 180">
    <defs>
        <circle id="b" cx="90" cy="90" r="90"/>
        <filter id="a" width="102.2%" height="102.2%" x="-1.1%" y="-1.1%" filterUnits="objectBoundingBox">
            <feGaussianBlur in="SourceAlpha" result="shadowBlurInner1" stdDeviation="1.5"/>
            <feOffset dy="1" in="shadowBlurInner1" result="shadowOffsetInner1"/>
            <feComposite in="shadowOffsetInner1" in2="SourceAlpha" k2="-1" k3="1" operator="arithmetic" result="shadowInnerInner1"/>
            <feColorMatrix in="shadowInnerInner1" values="0 0 0 0 0 0 0 0 0 0 0 0 0 0 0 0 0 0 0.5 0"/>
        </filter>
        <filter id="c" width="213.8%" height="181.2%" x="-56.9%" y="-34.4%" filterUnits="objectBoundingBox">
            <feOffset dy="5" in="SourceAlpha" result="shadowOffsetOuter1"/>
            <feGaussianBlur in="shadowOffsetOuter1" result="shadowBlurOuter1" stdDeviation="10"/>
            <feColorMatrix in="shadowBlurOuter1" result="shadowMatrixOuter1" values="0 0 0 0 0.0756078833 0 0 0 0 0.11740375 0 0 0 0 0.159199617 0 0 0 0.500198143 0"/>
            <feMerge>
                <feMergeNode in="shadowMatrixOuter1"/>
                <feMergeNode in="SourceGraphic"/>
            </feMerge>
        </filter>
    </defs>
    <g fill="none" fill-rule="evenodd">
        <g>
            <use fill="#000" filter="url(#a)" xlink:href="#b"/>
            <circle cx="90" cy="90" r="85" stroke="#1D79B7" stroke-width="10"/>
        </g>
        <g fill="#FFF100" fill-rule="nonzero" filter="url(#c)" transform="translate(61 50)">
            <path d="M48.091 8.759A27.429 27.429 0 0 0 28.343.914 27.429 27.429 0 0 0 8.375 8.76a27.429 27.429 0 0 0-7.46 20.407c0 13.44 8.831 29.129 25.453 46.519l1.975 2.03 1.975-2.03C47.104 58.24 55.662 42.77 55.77 29.11a27.429 27.429 0 0 0-7.68-20.352zM28.343 69.76C14.025 54.29 6.4 40.576 6.4 29.001a21.943 21.943 0 0 1 5.87-16.457A21.943 21.943 0 0 1 28.343 6.4a21.943 21.943 0 0 1 16.018 6.199 22.437 22.437 0 0 1 6.09 16.457c-.165 11.52-7.68 25.18-22.108 40.704z"/>
            <path d="M28.343 17.371c-6.06 0-10.972 4.913-10.972 10.972 0 6.06 4.913 10.971 10.972 10.971 6.06 0 10.971-4.912 10.971-10.971 0-6.06-4.912-10.972-10.971-10.972zm0 15.635a4.718 4.718 0 1 1 0-9.436 4.718 4.718 0 0 1 0 9.436z"/>
        </g>
        <g fill="#FFF100">
            <path d="M126.097 127.5v3.875c10.169.755 15.484 4.326 15.484 5.657 0 1.49-6.655 5.807-19.355 5.807-12.699 0-19.355-4.316-19.355-5.807 0-1.331 5.315-4.902 15.484-5.657V127.5c-10.98.77-19.355 4.736-19.355 9.532 0 5.346 10.4 9.678 23.226 9.678 12.826 0 23.226-4.332 23.226-9.678 0-4.796-8.375-8.762-19.355-9.532"/>
            <path d="M121.935 139.258c1.07 0 1.936-.865 1.936-1.935V88.935c0-1.07-.865-1.935-1.936-1.935-1.07 0-1.935.865-1.935 1.935v48.388c0 1.07.865 1.935 1.935 1.935M149.468 90.097l-4.531-.908a10.288 10.288 0 0 0-6.604.885 10.26 10.26 0 0 1-9.182 0L126 88.5v19.355l3.151 1.573a10.26 10.26 0 0 0 9.182 0 10.288 10.288 0 0 1 6.604-.884l3.704.741a2.099 2.099 0 0 0 1.75-.435c.488-.401.77-.999.77-1.628v-15.06a2.106 2.106 0 0 0-1.693-2.065"/>
        </g>
        <path fill="#FFF100" d="M62.578 82.218c2.281-1.47 3.358.432 1.181 1.834-.81.522-1.842 1.343-2.935 2.212-3.27 2.599-5.372 4.148-6.96 3.825a1.854 1.854 0 0 1-1.275-.963c-1.236-2.319.92-5.31 2.65-7.714.247-.343.48-.667.687-.966.536-.78.263-1.641-.079-2.253-5.073 3.821-10.328 2.994-15.421 2.186-.583-.092-1.17-.186-1.762-.273-5.801-.859-11.01 7.05-11.062 7.13-.877 1.35-1.744 2.031-2.587 2.031a1.62 1.62 0 0 1-.47-.07c-1.42-.436-1.576-2.508-1.54-4.479.105-5.79 2.332-14.731 3.76-18.105 1.466-3.466 1.5-4.87 1.385-6.773-.068-1.1-2.305-3.479-3.973-4.923a8.292 8.292 0 0 1-.345-.295 1.09 1.09 0 0 1 1.428-1.648l.212.178c.821.66 4.212 3.073 6.99.436 3.155-2.993-.477-7.782-.513-7.83a1.09 1.09 0 0 1 1.68-1.39l.662.76c2.869 3.31 4.943 5.702 10.888 2.857 6.427-3.072 13.266-3.524 16.94-3.768.725-.048 1.309-.086 1.717-.136 1.113-.139 3.766-.29 4.361 1.306.572 1.531-1.308 2.79-2.016 3.265-3.27 2.19-6.99 6.695-7.239 8.764-.057.476.146 1.753.362 3.105.725 4.554 1.904 11.997-1.8 16.189.809 1.246 1.447 3.185.218 4.972-.213.311-.456.65-.712 1.005-1.106 1.535-2.924 4.058-2.56 5.255.967-.167 3.577-2.242 5.017-3.386 1.136-.903 2.21-1.758 3.111-2.338zM50.65 52.499a1.09 1.09 0 0 0-1.295-.839c-2.929.629-7.069 2.887-7.243 2.983a1.092 1.092 0 0 0 1.05 1.913c.04-.022 4.031-2.2 6.65-2.762.588-.125.964-.706.838-1.295zm1.88 1.355c-.182.048-4.532 1.207-7.245 3.1a1.09 1.09 0 1 0 1.248 1.788c2.392-1.669 6.512-2.767 6.553-2.778a1.09 1.09 0 0 0-.555-2.11zm-17.379 8.842a1.091 1.091 0 0 0-1.493.388c-.105.179-2.585 4.426-3.01 7.34a1.089 1.089 0 0 0 1.08 1.25c.532 0 .998-.39 1.078-.933.365-2.494 2.71-6.513 2.734-6.552.304-.52.13-1.188-.389-1.493zm3.313 2.205a1.092 1.092 0 0 0-1.508.324c-.095.148-2.33 3.635-3.028 7.41a1.091 1.091 0 0 0 2.145.399c.619-3.343 2.695-6.592 2.716-6.625a1.09 1.09 0 0 0-.325-1.508z"/>
    </g>
</svg>
