<svg xmlns="http://www.w3.org/2000/svg" xmlns:xlink="http://www.w3.org/1999/xlink" width="180" height="180" viewBox="0 0 180 180">
    <defs>
        <circle id="b" cx="90" cy="90" r="90"/>
        <filter id="a" width="102.2%" height="102.2%" x="-1.1%" y="-1.1%" filterUnits="objectBoundingBox">
            <feGaussianBlur in="SourceAlpha" result="shadowBlurInner1" stdDeviation="1.5"/>
            <feOffset dy="1" in="shadowBlurInner1" result="shadowOffsetInner1"/>
            <feComposite in="shadowOffsetInner1" in2="SourceAlpha" k2="-1" k3="1" operator="arithmetic" result="shadowInnerInner1"/>
            <feColorMatrix in="shadowInnerInner1" values="0 0 0 0 0 0 0 0 0 0 0 0 0 0 0 0 0 0 0.5 0"/>
        </filter>
    </defs>
    <g fill="none" fill-rule="evenodd">
        <g>
            <use fill="#000" filter="url(#a)" xlink:href="#b"/>
            <circle cx="90" cy="90" r="85" stroke="#1D79B7" stroke-width="10"/>
        </g>
        <path fill="#FFF100" d="M69.525 114.293c-.935 0-1.85-.184-2.72-.548l-13.236-5.555 5.103-2.685 9.317 2.88a6.328 6.328 0 0 0 5.021-.572l7.128-4.132c.26-.151.515-.315.763-.489l-.425 4.967-6.904 4.85c-1.2.84-2.6 1.284-4.047 1.284zm15.304-31.604l.734-.732 3.824 3.864-3.717 3.99-.968-1.047a4.366 4.366 0 0 1 .127-6.075zm6.536-6.509l3.553 3.703-2.994 3.214-3.725-3.765 3.166-3.152zm3.708-3.693a2.999 2.999 0 0 1 2.129-.88c.684 0 1.329.224 1.866.649l1.704 1.343-3.315 3.558L94 73.555l1.073-1.068zm-31.5 57.576l3.62-4.356 12.606-2.085a4.08 4.08 0 0 0 3.4-3.68l1.962-22.905.31-1.12a2.48 2.48 0 0 1 .597-1.075l1.532-1.645 6.488 7.817-2.234 1.738-.054.06a10.705 10.705 0 0 0-2.12 3.489l-.026.067-3.948 19.389a2.579 2.579 0 0 1-2.053 1.6l-20.08 2.706zM136.31 44.72c.098 0 .238.026.459.23 1.078.993.874 1.32-.079 2.412-.615.708-11.614 11.9-14.74 15.443a8.386 8.386 0 0 0-1.678-3.185l14.719-14.13.064-.066c.18-.198.789-.683 1.232-.703l.023-.001zm-22.136 25.15h-.037l-.03.004a4.764 4.764 0 0 1-3.443-1.086L118 62.88a4.782 4.782 0 0 1-.273 4.866 4.771 4.771 0 0 1-3.553 2.123zm-17.149 28.86l-6.87-8.276 17.791-19.1a8.504 8.504 0 0 0 4.336 2.13l-.499 5.329-2.361-.715-.087-.024a6.29 6.29 0 0 0-1.503-.186c-2.775 0-4.745 1.842-5.664 3.565-.864 1.62-1.046 3.481-.499 5.106.558 1.656 1.803 2.968 3.596 3.793.108.051.224.092.34.12l1.55.378-10.13 7.88zm33.658-21.22a1.5 1.5 0 0 1 1.236.652 2.593 2.593 0 0 1 .153 2.681 2.58 2.58 0 0 1-.968 1.01l-10.74 6.34a7.017 7.017 0 0 1-5.24.774l-8.45-2.063c-.78-.39-1.264-.893-1.48-1.532-.221-.658-.128-1.448.256-2.168.391-.735 1.256-1.592 2.403-1.592.18 0 .366.02.55.064l7.479 2.264a6.3 6.3 0 0 0 5.163-.684l8.844-5.516c.24-.15.514-.23.794-.23zm-9.86-7.702c.1-.15.199-.31.296-.48a1.75 1.75 0 0 0 .216-.207c.095-.108 17.21-18.225 18.16-19.315 2.375-2.725 2.305-5.28-.207-7.592-.86-.794-1.89-1.213-2.978-1.213-.065 0-.128.001-.193.004-2.03.093-3.517 1.596-3.765 1.865l-15.068 14.473a8.486 8.486 0 0 0-5.238-.617 8.466 8.466 0 0 0-5.417 3.637 8.48 8.48 0 0 0-1.41 4.086c-2.292-1.027-5.45-2.005-9.158-2.005-4.252 0-8.343 1.3-12.16 3.864-15.046 10.107-26.329 12.23-33.144 12.23-4.187 0-6.993-.788-8.293-1.258a1.86 1.86 0 0 0-2.31 2.549c.7 1.472 7.092 14.387 15.486 14.387.796 0 1.593-.12 2.367-.355 1.733-.528 3.312-.784 4.826-.784 2.42 0 4.254.661 6.03 1.3 1.641.593 3.34 1.205 5.298 1.205.958 0 1.893-.143 2.859-.437 1.747-.532 3.58-1.571 5.583-3.17l.53.572a6.108 6.108 0 0 0-1.253 2.399l-.354 1.282a7.073 7.073 0 0 1-3.254 4.237l-7.126 4.13a2.598 2.598 0 0 1-2.057.237l-10.054-3.106a1.83 1.83 0 0 0-.542-.08h-.125l-.113.01-.028.007c-.216.03-.42.094-.612.194l-9.25 4.867-.12.061-.01.01-10.24 5.389c-.44.231-.764.62-.91 1.095-.148.474-.101.978.13 1.417a1.856 1.856 0 0 0 2.512.78l9.578-5.041 16.064 6.743a10.73 10.73 0 0 0 10.338-1.123l4.355-3.06-.569 6.633a.36.36 0 0 1-.301.326l-13.287 2.197-.082.016-.036.01a1.858 1.858 0 0 0-.607.261 1.745 1.745 0 0 0-.143.104 1.8 1.8 0 0 0-.136.123l-.056.051-13.218 15.205A1.862 1.862 0 0 0 53.03 141c.54 0 1.051-.233 1.404-.64l5.231-6.017 24.484-3.3a6.292 6.292 0 0 0 5.069-4.055l.025-.067 3.948-19.392a7.004 7.004 0 0 1 1.31-2.16l17.23-13.402 2.511.612c.842.206 1.705.31 2.564.31 1.907 0 3.792-.517 5.449-1.494l10.74-6.34a6.304 6.304 0 0 0 1.987-9.005 5.223 5.223 0 0 0-4.299-2.261 5.22 5.22 0 0 0-2.762.794l-8.845 5.516a2.58 2.58 0 0 1-2.116.28l-1.545-.467.62-6.62a8.459 8.459 0 0 0 4.788-3.485z"/>
    </g>
</svg>
