<svg xmlns="http://www.w3.org/2000/svg" xmlns:xlink="http://www.w3.org/1999/xlink" width="140" height="140" viewBox="0 0 140 140">
    <defs>
        <circle id="b" cx="70" cy="70" r="70"/>
        <filter id="a" width="102.9%" height="102.9%" x="-1.4%" y="-1.4%" filterUnits="objectBoundingBox">
            <feGaussianBlur in="SourceAlpha" result="shadowBlurInner1" stdDeviation="1.5"/>
            <feOffset dy="1" in="shadowBlurInner1" result="shadowOffsetInner1"/>
            <feComposite in="shadowOffsetInner1" in2="SourceAlpha" k2="-1" k3="1" operator="arithmetic" result="shadowInnerInner1"/>
            <feColorMatrix in="shadowInnerInner1" values="0 0 0 0 0 0 0 0 0 0 0 0 0 0 0 0 0 0 0.5 0"/>
        </filter>
    </defs>
    <g fill="none" fill-rule="evenodd">
        <path fill="#FFF100" d="M88.476 44.647c.12.86.204 1.727.204 2.619 0 .935-.089 1.852-.225 2.76 6.495.348 10.26 2.002 10.961 2.836v36.806c-3.577-1.455-8.51-2.142-13.42-2.142-4.188 0-9.509.66-13.42 2.254V76.284c-.844.301-1.735.506-2.684.506-.949 0-1.84-.205-2.684-.506v13.384c-3.578-1.455-8.51-2.142-13.42-2.142-4.188 0-9.51.66-13.42 2.254V52.862c.702-.834 4.467-2.488 10.962-2.836a18.55 18.55 0 0 1-.226-2.76c0-.892.084-1.76.205-2.619C42.839 45.053 35 47.564 35 52.633v45.629h26.84c0 1.483 3.604 2.684 8.052 2.684 4.448 0 8.052-1.2 8.052-2.684h26.84V52.634c0-5.07-7.839-7.58-16.308-7.987"/>
        <path fill="#FFF100" d="M64.452 73.23l.44.356c.427.347 1.05.301 1.423-.103l9.47-10.367 7.31-8.174a10.448 10.448 0 0 0 2.32-9.6l-2.607-9.993c1.598-2.582 1.794-6.713 1.342-10.855a1.308 1.308 0 0 0-1.523-1.142l-6.05 1.01c-.735.123-1.23.83-1.056 1.556 1.004 4.182 2.689 7.973 5.654 9.69l-.69 11.421a1.299 1.299 0 0 1-.375.835L69.296 58.729a2.08 2.08 0 0 0-.594 1.667l.318 3.225c.031.315-.04.634-.203.906l-4.623 7.247a1.13 1.13 0 0 0 .258 1.455"/>
        <path fill="#FFF100" d="M66.786 61.621a6.644 6.644 0 1 0-13.288 0 6.644 6.644 0 0 0 13.288 0M65.586 53.416a.196.196 0 0 0-.277-.004l-.524.507a.196.196 0 0 0-.004.277l1.738 1.795c.075.077.2.08.276.004l.524-.508c.078-.075.08-.199.005-.276l-.123-.128a.871.871 0 0 1 .67-.242l1.665.125c.496.036.986-.141 1.342-.487l1.455-1.408-4.454-4.453-1.382 1.338c-.356.346-.55.83-.529 1.326l.072 1.669a.874.874 0 0 1-.264.662l-.19-.197zM68.653 47.868l4.454 4.454 3.143-3.045-4.453-4.454zM78.34 47.253l.31-.3c.75-.726.768-1.922.042-2.672l-1.753-1.809a1.89 1.89 0 0 0-2.67-.043l-.31.3-1.358 1.315-.031.03 4.454 4.454 1.316-1.275zM60.142 48.417a2 2 0 1 0 0 4 2 2 0 0 0 0-4M63.153 46.397a1.573 1.573 0 1 0 0-3.146 1.573 1.573 0 0 0 0 3.146M57.331 43.596a3.833 3.833 0 1 0 0-7.666 3.833 3.833 0 0 0 0 7.666"/>
        <g>
            <use fill="#000" filter="url(#a)" xlink:href="#b"/>
            <circle cx="70" cy="70" r="65" stroke="#1D79B7" stroke-width="10"/>
        </g>
    </g>
</svg>
