<svg xmlns="http://www.w3.org/2000/svg" width="49" height="39" viewBox="0 0 49 39">
    <g fill="#FFF100" fill-rule="evenodd">
        <path d="M44.97 27.956H34.564V15.662c0-.466-.224-.904-.604-1.177-2.076-1.493-4.265-2.22-6.7-2.22-2.961 0-5.841 1.104-8.647 2.384v-4.141c0-.326.267-.59.592-.59H44.97c.328 0 .593.264.593.59v3.872H39.83a3.171 3.171 0 0 0-3.167 3.166v2.78a3.17 3.17 0 0 0 3.167 3.166h5.733v3.87a.594.594 0 0 1-.593.594zM31.665 30.5a10.89 10.89 0 0 0-4.405-.903c-3.652 0-7.183 1.675-10.6 3.295-3.268 1.55-6.356 3.015-9.356 3.015h-.003c-1.573 0-3.02-.418-4.404-1.272V20.572c1.391.605 2.85.901 4.407.901 3.65 0 7.184-1.675 10.599-3.293 3.27-1.55 6.357-3.015 9.357-3.015 1.575 0 3.02.416 4.405 1.27v14.066zm13.896-9.676H39.83a.5.5 0 0 1-.5-.5v-2.779a.5.5 0 0 1 .5-.5h5.733v3.78zM19.206 3H44.97c.328 0 .593.265.593.592v.733h-24.34a.666.666 0 1 0 0 1.333h24.34V7.31a3.22 3.22 0 0 0-.593-.06H19.206c-.202 0-.398.024-.592.06V3.592c0-.327.267-.592.592-.592zM44.97.333H19.206a3.262 3.262 0 0 0-3.258 3.259V15.896c-3.004 1.418-5.863 2.678-8.643 2.678-1.805 0-3.443-.548-5.01-1.674a1.45 1.45 0 0 0-1.509-.114A1.452 1.452 0 0 0 0 18.076v17.333c0 .467.224.904.601 1.177 2.079 1.494 4.268 2.22 6.701 2.22h.003c3.65 0 7.181-1.674 10.599-3.293 3.268-1.55 6.357-3.015 9.357-3.015 1.804 0 3.441.547 5.007 1.675a1.45 1.45 0 0 0 2.297-1.177v-2.374H44.97a3.264 3.264 0 0 0 3.26-3.26V3.592A3.263 3.263 0 0 0 44.97.333z"/>
        <path d="M20.135 25.65a.98.98 0 0 0-.36.291c-.112.136-.241.419-.397.848-.24.66-.488 1.124-.748 1.395-.257.27-.544.479-.855.627-.834.394-1.325-.14-1.476-1.604.628-.295 1.254-.594 1.88-.89.06-.028.128-.138.21-.332.077-.192.116-.35.116-.473 0-.108-.042-.141-.127-.103-.707.331-1.412.67-2.117 1a4.662 4.662 0 0 1-.014-.41c.006-.211.01-.423.014-.634.64-.3 1.278-.606 1.918-.908.06-.026.128-.137.21-.33a1.34 1.34 0 0 0 .116-.47c0-.112-.042-.148-.127-.106-.688.321-1.376.65-2.065.973.072-.735.237-1.325.489-1.776.255-.45.617-.787 1.088-1.008.41-.193.701-.25.873-.17.17.083.318.247.443.494.096.185.197.312.296.377.103.068.261.051.48-.045.195-.088.361-.23.5-.435.135-.204.205-.408.205-.618 0-.615-.292-1.012-.872-1.17-.584-.157-1.276-.042-2.078.339-1.826.87-2.878 2.457-3.156 4.804-.214.093-.427.187-.64.276-.058.025-.126.135-.207.33-.08.197-.121.35-.121.462 0 .107.038.143.116.112.264-.11.524-.221.786-.336-.014.361-.022.637-.022.825v.232c-.186.079-.368.159-.552.236-.058.024-.126.132-.207.33-.08.194-.121.346-.121.454 0 .111.038.15.116.118.272-.112.542-.228.813-.346.12 1.156.487 1.899 1.096 2.215.612.313 1.328.27 2.148-.117a6.08 6.08 0 0 0 2.24-1.827c.615-.803.924-1.505.924-2.133 0-.266-.072-.443-.216-.531-.143-.088-.344-.076-.599.035M12.463 21.849c-2.778 1.041-5.018 1.329-7.044.898a.677.677 0 0 0-.789.515.666.666 0 0 0 .513.79c.695.147 1.408.22 2.151.22 1.693 0 3.53-.386 5.639-1.177a.667.667 0 1 0-.47-1.246M21.24 18.666a.67.67 0 0 0 .86.392c2.782-1.044 5.02-1.33 7.044-.9a.665.665 0 1 0 .276-1.304c-2.276-.484-4.756-.18-7.787.954a.669.669 0 0 0-.393.858M12.463 32.015c-2.778 1.04-5.018 1.33-7.044.899a.678.678 0 0 0-.789.515.666.666 0 0 0 .513.789c.695.148 1.408.221 2.151.221 1.693 0 3.53-.386 5.639-1.177a.667.667 0 1 0-.47-1.247M29.42 27.02c-2.277-.482-4.756-.18-7.788.955a.669.669 0 0 0-.393.858.672.672 0 0 0 .86.392c2.784-1.044 5.02-1.33 7.044-.9a.676.676 0 0 0 .792-.514.669.669 0 0 0-.516-.79"/>
    </g>
</svg>
