<svg xmlns="http://www.w3.org/2000/svg" xmlns:xlink="http://www.w3.org/1999/xlink" width="140" height="140" viewBox="0 0 140 140">
    <defs>
        <circle id="b" cx="70" cy="70" r="70"/>
        <filter id="a" width="102.9%" height="102.9%" x="-1.4%" y="-1.4%" filterUnits="objectBoundingBox">
            <feGaussianBlur in="SourceAlpha" result="shadowBlurInner1" stdDeviation="1.5"/>
            <feOffset dy="1" in="shadowBlurInner1" result="shadowOffsetInner1"/>
            <feComposite in="shadowOffsetInner1" in2="SourceAlpha" k2="-1" k3="1" operator="arithmetic" result="shadowInnerInner1"/>
            <feColorMatrix in="shadowInnerInner1" values="0 0 0 0 0 0 0 0 0 0 0 0 0 0 0 0 0 0 0.5 0"/>
        </filter>
    </defs>
    <g fill="none" fill-rule="evenodd">
        <g>
            <use fill="#000" filter="url(#a)" xlink:href="#b"/>
            <circle cx="70" cy="70" r="65" stroke="#1D79B7" stroke-width="10"/>
        </g>
        <g fill="#FFF100">
            <path d="M115.507 73.953h-27.36a2.55 2.55 0 0 1-2.289-1.396L74.695 50.502a1.255 1.255 0 0 1 .057-1.23c.234-.371.645-.599 1.089-.599h19.193c.708 0 1.28.566 1.28 1.264 0 .698-.572 1.264-1.28 1.264H77.911l10.236 20.224h25.29l-10.591-20.923a1.258 1.258 0 0 1 .573-1.696c.633-.311 1.4-.058 1.717.566l11.516 22.752c.197.392.177.857-.056 1.23-.234.372-.645.6-1.09.6"/>
            <path d="M103.99 63.841c-.705 0-1.279-.566-1.279-1.264V44.881h-5.118v17.696c0 .698-.573 1.264-1.28 1.264-.706 0-1.279-.566-1.279-1.264v-18.96c0-.698.573-1.264 1.28-1.264h7.677c.706 0 1.28.566 1.28 1.264v18.96c0 .698-.574 1.264-1.28 1.264M65.348 73.953H61.71a2.552 2.552 0 0 1-2.279-1.376 2.494 2.494 0 0 1 .205-2.632l15.169-20.747a1.29 1.29 0 0 1 1.786-.286c.572.41.701 1.2.288 1.765L61.71 71.425h2.988L77.366 54.25a1.29 1.29 0 0 1 1.787-.277c.57.41.696 1.202.28 1.766L66.382 73.434c-.24.326-.624.52-1.034.52"/>
            <path d="M65.604 96.706c-.706 0-1.28-.567-1.28-1.264V72.689c0-.697.574-1.264 1.28-1.264.707 0 1.28.567 1.28 1.264v22.753c0 .697-.573 1.264-1.28 1.264M91.195 96.706c-.706 0-1.28-.567-1.28-1.264V72.689c0-.697.574-1.264 1.28-1.264.707 0 1.28.567 1.28 1.264v22.753c0 .697-.573 1.264-1.28 1.264M111.668 96.706c-.706 0-1.28-.567-1.28-1.264V72.689c0-.697.574-1.264 1.28-1.264.707 0 1.28.567 1.28 1.264v22.753c0 .697-.573 1.264-1.28 1.264"/>
            <path d="M119.346 97.97H47.69c-.706 0-1.28-.567-1.28-1.264 0-.698.574-1.264 1.28-1.264h71.656c.706 0 1.28.566 1.28 1.264 0 .697-.574 1.264-1.28 1.264"/>
            <path d="M79.68 97.97c-.707 0-1.28-.567-1.28-1.264v-18.96h-2.56v18.96c0 .697-.573 1.264-1.279 1.264s-1.28-.567-1.28-1.264V76.48c0-.697.574-1.264 1.28-1.264h5.118c.707 0 1.28.567 1.28 1.264v20.225c0 .697-.573 1.264-1.28 1.264M100.152 84.066h3.838v-3.792h-3.838v3.792zm5.118 2.528h-6.398c-.706 0-1.28-.567-1.28-1.264v-6.32c0-.698.574-1.265 1.28-1.265h6.398c.708 0 1.28.567 1.28 1.265v6.32c0 .697-.572 1.264-1.28 1.264zM61.445 96.706a1.274 1.274 0 0 1-1.271-1.125c-.03-.266-3.202-26.75-20.156-37.68a1.256 1.256 0 0 1-.372-1.749 1.29 1.29 0 0 1 1.77-.367c17.976 11.588 21.175 38.383 21.302 39.518a1.268 1.268 0 0 1-1.273 1.403"/>
            <path d="M39.601 57.521h.013-.013zm-8.34 1.35c.2 0 .4.007.604.02.512.03.954.36 1.126.836.172.476.04 1.009-.335 1.352-.047.043-4.695 4.355-4.052 8.375.208 1.313.995 2.493 2.344 3.527-.466-2.68-.689-6.701 1.054-10.232 1.348-2.731 3.63-4.7 6.787-5.858 1.054-1.386 4.994-5.604 12.962-3.98-1.976-.988-5.107-1.977-10.061-2.531a1.28 1.28 0 0 1-.951-.603 1.252 1.252 0 0 1-.096-1.115c.056-.143.957-2.33 3.344-3.829-.903.037-1.844.206-2.753.595-2.228.955-3.868 3.066-4.876 6.276-.138.44-.507.771-.965.864a1.288 1.288 0 0 1-1.23-.419c-.087-.095-2.391-2.568-7.77-1.774-1.984.292-3.423.992-4.453 1.765 3.304-.773 7.99-1.136 11.704 1.467.464.326.654.913.467 1.444-.187.531-.703.87-1.275.849-.062-.002-6.132-.263-9.013 3.291-1.114 1.377-1.63 3.184-1.544 5.401 1.766-2.9 4.712-5.72 8.982-5.72zm1.64 17.983c-.181 0-.365-.038-.538-.117-3.718-1.71-5.835-4.03-6.289-6.9-.47-2.973 1.004-5.854 2.45-7.863-3.976 1.773-5.474 7.016-5.55 7.291-.149.549-.653.896-1.23.896h-.004c-.574 0-1.079-.338-1.233-.884-1.401-4.965-.954-8.888 1.328-11.696 1.497-1.842 3.55-2.878 5.485-3.47-4.218-.228-8.328 1.64-8.387 1.667a1.292 1.292 0 0 1-1.396-.2 1.254 1.254 0 0 1-.357-1.348c.074-.218 1.911-5.336 8.836-6.357 4.164-.614 6.947.435 8.518 1.388 1.28-3.025 3.193-5.093 5.703-6.16 4.737-2.016 9.763.375 9.976.477.544.264.825.87.674 1.45-.15.58-.688.96-1.299.948-2.891-.137-4.637 1.094-5.59 2.154 12.628 1.886 13.556 6.883 13.62 7.474.05.45-.148.89-.517 1.158a1.294 1.294 0 0 1-1.276.132c-11-4.856-14.958 1.424-15.12 1.693a1.305 1.305 0 0 1-.69.556c-2.691.909-4.612 2.491-5.707 4.703-2.406 4.857-.218 11.268-.196 11.332.168.48.028 1.011-.352 1.352-.24.213-.547.324-.858.324z"/>
            <path d="M53.023 97.97c-.02 0-.04 0-.06-.002a1.27 1.27 0 0 1-1.22-1.32c.924-19.789-14.06-36.589-14.212-36.757a1.253 1.253 0 0 1 .102-1.785 1.286 1.286 0 0 1 1.805.1c.647.713 15.834 17.718 14.862 38.558a1.273 1.273 0 0 1-1.277 1.206"/>
        </g>
    </g>
</svg>
