<svg xmlns="http://www.w3.org/2000/svg" width="39" height="39" viewBox="0 0 39 39">
    <g fill="#C0C5CE" fill-rule="evenodd">
        <path d="M19.36 33.557c-7.828 0-14.199-6.37-14.199-14.197 0-7.83 6.37-14.199 14.199-14.199 7.828 0 14.199 6.37 14.199 14.199 0 7.827-6.37 14.197-14.199 14.197M19.36 0C8.668 0 0 8.667 0 19.36c0 10.69 8.668 19.359 19.36 19.359S38.72 30.05 38.72 19.36C38.72 8.667 30.052 0 19.36 0"/>
        <path d="M30.966 18.065h-8.092a2.567 2.567 0 0 0-.94-.927V7.742a1.29 1.29 0 1 0-2.58 0v9.405a2.578 2.578 0 0 0-1.29 2.228 2.587 2.587 0 0 0 2.589 2.588c.965 0 1.796-.535 2.241-1.318h8.072a1.29 1.29 0 1 0 0-2.58"/>
    </g>
</svg>
