<svg xmlns="http://www.w3.org/2000/svg" width="64" height="36" viewBox="0 0 64 36">
    <path fill="#FFF100" fill-rule="evenodd" d="M61.513 30.678H46.551a10.973 10.973 0 0 0-1.77-4.885c.052-.054.092-.119.145-.172a6.287 6.287 0 0 1 4.458-1.857h2.727c.816 1.364 2.294 2.29 3.996 2.29a4.625 4.625 0 0 0 2.86-1.006c.239.18.479.359.691.57l-.003.003a6.29 6.29 0 0 1 1.858 4.457v.6zm-17.53 1.985H19.412v-.8c0-2.31.95-4.414 2.472-5.937a8.376 8.376 0 0 1 5.94-2.474h3.634c1.088 1.817 3.056 3.049 5.324 3.049 1.449 0 2.766-.518 3.825-1.351.318.239.625.49.906.771l-.005.005a8.378 8.378 0 0 1 2.477 5.938v.799zM1.98 30.084c0-1.735.713-3.314 1.857-4.458a6.292 6.292 0 0 1 4.459-1.857h2.729c.816 1.364 2.293 2.29 3.996 2.29a4.626 4.626 0 0 0 2.86-1.006c.24.18.48.358.692.57l-.004.003c.03.03.053.066.083.097a10.969 10.969 0 0 0-1.813 4.961H1.98v-.6zm14.148-5.953c-.343.14-.715.22-1.107.22-.656 0-1.257-.221-1.748-.582h.837c.709 0 1.38.145 2.018.362zm-11.31-8.266h.375A3.22 3.22 0 0 0 8.22 18.02h1.32c.076 0 .147-.04.186-.105.486-.803 1.198-1.662 1.485-1.662.295 0 1 .863 1.484 1.662.04.066.11.105.187.105h1.32c1.4 0 2.584-.903 3.028-2.154h.353c-.125 1.57-.783 2.99-1.833 4.04-.964.966-2.244 1.598-3.662 1.795-.012-.105-.032-.205-.032-.313v-.442a1.842 1.842 0 0 0 1.002-1.633.219.219 0 0 0-.219-.22H9.583a.22.22 0 0 0-.22.22c0 .705.403 1.313.986 1.623v.452c0 .11.025.213.032.321-1.447-.186-2.752-.82-3.73-1.799v-.006c-1.047-1.047-1.707-2.468-1.833-4.038zM16.4 14.794a2.2 2.2 0 0 1-2.197 2.197h-.753a.219.219 0 0 1-.183-.097c-1.125-1.672-1.824-1.672-2.054-1.672-.535 0-1.06.37-1.702 1.199a9.709 9.709 0 0 0-.347.475.22.22 0 0 1-.18.095h-.762a2.2 2.2 0 0 1-2.197-2.197 2.2 2.2 0 0 1 2.197-2.196h5.981a2.2 2.2 0 0 1 2.197 2.196zm-9.748-3.991a6.421 6.421 0 0 1 4.548-1.884c1.782 0 3.39.72 4.556 1.884h-.004a6.432 6.432 0 0 1 1.421 2.18h-.303a3.222 3.222 0 0 0-2.667-1.415h-5.98a3.226 3.226 0 0 0-2.668 1.415H5.23a6.447 6.447 0 0 1 1.42-2.18zm9.613 11.274c.314-.237.61-.494.888-.773.303-.304.577-.636.833-.984v1.067c0 .446-.107.866-.285 1.246a8.186 8.186 0 0 0-1.436-.556zm22.039 1.843c-.47.197-.983.307-1.522.307a3.916 3.916 0 0 1-2.328-.775h1.114c.959 0 1.877.17 2.736.468zM23.157 12.925h.534c.591 1.666 2.167 2.87 4.034 2.87h1.756a.292.292 0 0 0 .25-.142c.646-1.07 1.595-2.214 1.977-2.214.393 0 1.332 1.15 1.976 2.214a.294.294 0 0 0 .251.142h1.756c1.866 0 3.442-1.204 4.034-2.87h.505a8.547 8.547 0 0 1-2.475 5.381 8.544 8.544 0 0 1-4.876 2.418c-.017-.147-.046-.293-.046-.445v-.588a2.455 2.455 0 0 0 1.335-2.176c0-.16-.131-.291-.292-.291h-4.338c-.16 0-.291.13-.291.291 0 .94.535 1.749 1.311 2.164v.6c0 .158.036.306.047.46a8.535 8.535 0 0 1-4.973-2.428v-.007a8.553 8.553 0 0 1-2.475-5.379zm15.46-1.426a2.93 2.93 0 0 1-2.926 2.925h-1.005a.29.29 0 0 1-.242-.13c-1.499-2.225-2.43-2.225-2.736-2.225-.713 0-1.413.492-2.268 1.596-.148.19-.303.403-.461.632a.291.291 0 0 1-.24.127h-1.014a2.93 2.93 0 0 1-2.927-2.925 2.93 2.93 0 0 1 2.927-2.927h7.966a2.93 2.93 0 0 1 2.925 2.927zM25.631 6.18a8.556 8.556 0 0 1 6.059-2.51c2.372 0 4.517.961 6.068 2.51h-.004a8.566 8.566 0 0 1 1.902 2.906h-.414A4.295 4.295 0 0 0 35.69 7.2h-7.966c-1.476 0-2.78.75-3.553 1.886h-.44a8.617 8.617 0 0 1 1.9-2.906zm12.805 15.017c.418-.315.812-.657 1.182-1.03.405-.404.77-.847 1.11-1.31v1.42c0 .596-.142 1.155-.379 1.662a10.943 10.943 0 0 0-1.913-.742zm18.777 2.93a2.952 2.952 0 0 1-1.107.218c-.655 0-1.256-.221-1.747-.582h.835c.71 0 1.382.145 2.019.363zm-11.307-8.265h.375a3.22 3.22 0 0 0 3.027 2.154h1.318c.077 0 .149-.04.188-.106.485-.802 1.198-1.662 1.484-1.662.296 0 1 .863 1.484 1.662.04.065.112.106.187.106h1.319a3.22 3.22 0 0 0 3.028-2.154h.352c-.124 1.57-.782 2.99-1.83 4.04a6.404 6.404 0 0 1-3.663 1.793c-.011-.104-.031-.205-.031-.313v-.442c.591-.308 1-.92 1-1.633a.218.218 0 0 0-.218-.218h-3.256a.219.219 0 0 0-.22.218c0 .706.403 1.313.986 1.624v.45c0 .111.025.215.032.321-1.447-.184-2.752-.82-3.73-1.797V19.9c-1.047-1.049-1.706-2.468-1.832-4.038zm11.578-1.07c0 1.21-.985 2.196-2.196 2.196h-.755a.218.218 0 0 1-.181-.098c-1.126-1.671-1.824-1.671-2.054-1.671-.536 0-1.06.37-1.702 1.199-.11.142-.227.302-.346.475a.22.22 0 0 1-.18.095h-.762a2.199 2.199 0 0 1-2.196-2.196c0-1.212.986-2.196 2.196-2.196h5.98c1.21 0 2.196.984 2.196 2.196zM47.739 10.8a6.423 6.423 0 0 1 4.548-1.884c1.78 0 3.39.722 4.555 1.884h-.004a6.43 6.43 0 0 1 1.42 2.18h-.303a3.225 3.225 0 0 0-2.666-1.414h-5.98a3.222 3.222 0 0 0-2.666 1.415h-.323a6.444 6.444 0 0 1 1.419-2.18zm9.612 11.272c.313-.238.608-.493.886-.773.304-.303.578-.636.833-.984v1.067c0 .446-.107.866-.284 1.246a8.206 8.206 0 0 0-1.435-.556zm3.703 2.15h-.004a8.162 8.162 0 0 0-.81-.712 4.6 4.6 0 0 0 .538-2.128V6.38a.219.219 0 0 0-.22-.219h-1.27a.218.218 0 0 0-.218.219v4.005a8.594 8.594 0 0 0-.833-.984v.004l-.003-.004a8.388 8.388 0 0 0-5.947-2.462 8.382 8.382 0 0 0-5.944 2.463 8.377 8.377 0 0 0-2.465 5.948c0 2.324.941 4.426 2.465 5.95v-.003c.277.278.574.536.89.775a8.301 8.301 0 0 0-3.708 2.15l-.003.003c-.052-.053-.097-.112-.15-.165v.003l-.005-.003c-.338-.338-.7-.655-1.079-.948.442-.854.715-1.808.715-2.834V.292c0-.161-.13-.292-.292-.292H41.02c-.161 0-.292.13-.292.292v5.336c-.34-.462-.704-.906-1.109-1.311v.004l-.004-.004a11.18 11.18 0 0 0-7.924-3.281 11.165 11.165 0 0 0-7.919 3.283 11.158 11.158 0 0 0-3.283 7.924c0 3.096 1.253 5.898 3.283 7.926v-.003c.37.37.765.714 1.186 1.032a11.046 11.046 0 0 0-4.94 2.863c-.037.038-.069.08-.106.118a8.461 8.461 0 0 0-.756-.665c.331-.64.536-1.357.536-2.127V6.38a.219.219 0 0 0-.22-.219h-1.269a.218.218 0 0 0-.218.219v4.006a8.594 8.594 0 0 0-.833-.984v.003l-.004-.003a8.39 8.39 0 0 0-5.95-2.463 8.383 8.383 0 0 0-5.944 2.465 8.378 8.378 0 0 0-2.465 5.948c0 2.324.94 4.428 2.465 5.95.278.277.573.535.89.774a8.301 8.301 0 0 0-3.708 2.149A8.272 8.272 0 0 0 0 30.084v1.59c0 .545.445.989.99.989h15.784v1.319a1.32 1.32 0 0 0 1.319 1.317H45.298c.73 0 1.319-.591 1.319-1.317v-1.325H62.5a.99.99 0 0 0 .99-.989v-1.59a8.266 8.266 0 0 0-2.436-5.856z"/>
</svg>
