<svg xmlns="http://www.w3.org/2000/svg" width="40" height="40" viewBox="0 0 40 40">
    <g fill="#C0C5CE" fill-rule="evenodd">
        <path d="M26.727 33.75h-8.909A1.26 1.26 0 0 0 16.545 35c0 .691.57 1.25 1.273 1.25H14c-4.92 0-8.91-3.917-8.91-8.75V10a1.26 1.26 0 0 0 1.274-1.25v-7.5A1.26 1.26 0 0 0 5.09 0H1.273A1.26 1.26 0 0 0 0 1.25v7.5C0 9.441.569 10 1.273 10v18.75C1.273 34.964 6.4 40 12.727 40H22.91a1.26 1.26 0 0 0 1.273-1.25v-2.5h2.545A1.26 1.26 0 0 0 28 35a1.26 1.26 0 0 0-1.273-1.25"/>
        <path d="M17.28 26l2.61-4.724c.664-1.205 1.864-1.943 3.156-1.943 1.293 0 2.493.738 3.157 1.943L28.812 26h5.574L35 18H19.364L12 26h5.28z"/>
        <path d="M36.667 26.5H29.15l-3.013-5.036A2.495 2.495 0 0 0 24 20.25c-.875 0-1.688.461-2.138 1.214L18.849 26.5h-7.425a.1.1 0 0 1-.098-.091l-.823-9.909h26.994l-.83 10zm2.702-11.727A2.381 2.381 0 0 0 37.614 14H10.386a2.39 2.39 0 0 0-2.377 2.59l.832 10.026A2.595 2.595 0 0 0 11.424 29h7.486a2.38 2.38 0 0 0 2.044-1.161L24 22.75l3.044 5.089A2.383 2.383 0 0 0 29.09 29h7.675c1.24 0 2.274-.954 2.378-2.194l.849-10.216a2.394 2.394 0 0 0-.623-1.817z"/>
    </g>
</svg>
