<svg xmlns="http://www.w3.org/2000/svg" xmlns:xlink="http://www.w3.org/1999/xlink" width="140" height="140" viewBox="0 0 140 140">
    <defs>
        <circle id="b" cx="70" cy="70" r="70"/>
        <filter id="a" width="102.9%" height="102.9%" x="-1.4%" y="-1.4%" filterUnits="objectBoundingBox">
            <feGaussianBlur in="SourceAlpha" result="shadowBlurInner1" stdDeviation="1.5"/>
            <feOffset dy="1" in="shadowBlurInner1" result="shadowOffsetInner1"/>
            <feComposite in="shadowOffsetInner1" in2="SourceAlpha" k2="-1" k3="1" operator="arithmetic" result="shadowInnerInner1"/>
            <feColorMatrix in="shadowInnerInner1" values="0 0 0 0 0 0 0 0 0 0 0 0 0 0 0 0 0 0 0.5 0"/>
        </filter>
        <path id="c" d="M42 104.072h72.883V35H42z"/>
    </defs>
    <g fill="none" fill-rule="evenodd">
        <use fill="#000" filter="url(#a)" xlink:href="#b"/>
        <circle cx="70" cy="70" r="65" stroke="#1D79B7" stroke-width="10"/>
        <path fill="#FFF100" d="M49.123 104.47h9.497a7.123 7.123 0 0 0 7.123-7.123V91H42v6.347a7.123 7.123 0 0 0 7.123 7.122M65.743 54.341c0-.445-.192-.872-.524-1.167l-7.227-6.424a.781.781 0 0 1-.262-.584v-6.164h1.271a.35.35 0 0 0 .351-.351v-3.522a.351.351 0 0 0-.351-.351H48.808a.35.35 0 0 0-.35.35v3.523c0 .194.157.35.35.35h1.206v6.165a.784.784 0 0 1-.262.584l-7.228 6.424A1.565 1.565 0 0 0 42 54.34v6.905h23.743V54.34z"/>
        <mask id="d" fill="#fff">
            <use xlink:href="#c"/>
        </mask>
        <path fill="#FFF100" d="M71.556 85h23.742V66.112H71.556zM71.556 94.945v1.624a7.123 7.123 0 0 0 7.122 7.123h9.497a7.123 7.123 0 0 0 7.123-7.123V90.222H71.556v4.723zM68.67 38.192c1.185 0 2.244.537 2.951 1.38a3.85 3.85 0 0 1-.771 5.65 3.833 3.833 0 0 1-2.18.678c-.81 0-1.561-.251-2.182-.678a3.848 3.848 0 0 1-.771-5.65 3.844 3.844 0 0 1 2.952-1.38m0 10.9a7.04 7.04 0 0 0 6.284-3.87h1.718v-5.65H75.26A7.041 7.041 0 0 0 68.67 35a7.041 7.041 0 0 0-6.59 4.572h-1.412v5.65h1.718a7.041 7.041 0 0 0 6.284 3.87" mask="url(#d)"/>
        <path fill="#FFF100" d="M68.275 43.835c.765 0 1.385-.62 1.385-1.385a1.38 1.38 0 0 0-.8-1.251l-.347-1.224-.046-.164c-.056-.193-.33-.193-.384 0l-.046.164-.348 1.224a1.381 1.381 0 0 0 .586 2.636M105.189 63.37c0-.585.162-1.131.439-1.6a3.159 3.159 0 0 1 2.723-1.562c.825 0 1.574.319 2.137.836a3.151 3.151 0 0 1-.56 5.063 3.143 3.143 0 0 1-3.154 0 3.16 3.16 0 0 1-.917-.8 3.144 3.144 0 0 1-.668-1.937m9.479 0a6.315 6.315 0 0 0-4.867-6.143c-1.19-4.918-3.464-8.844-6.815-11.714-5.423-4.642-12.157-5.196-15.701-5.112v-1.177h1.27a.35.35 0 0 0 .352-.35V35.35a.35.35 0 0 0-.351-.351H78.363a.351.351 0 0 0-.351.35v3.524c0 .193.158.35.351.35h1.206v6.164a.784.784 0 0 1-.262.584l-7.228 6.424a1.567 1.567 0 0 0-.523 1.167v6.905h23.742v-6.905c0-.445-.191-.871-.524-1.167l-7.227-6.424a.784.784 0 0 1-.262-.584v-.07c2.742-.073 8.296.298 12.54 3.952 2.452 2.112 4.162 5.055 5.123 8.784a6.307 6.307 0 0 0 1.271 11.256v3.802h-.538a.702.702 0 0 0-.702.7v2.526c0 .387.314.702.702.702h6.143c.387 0 .701-.315.701-.702v-2.525a.701.701 0 0 0-.7-.701h-.85V69.11a6.314 6.314 0 0 0 3.693-5.741" mask="url(#d)"/>
        <path fill="#FFF100" d="M108.935 64.227c.325-.239.462-.635.389-1.006l.524-.676c.123-.16-.039-.38-.228-.31l-.801.3a1.006 1.006 0 0 0-1.076.07 1.007 1.007 0 0 0 1.192 1.622M42 85h23.743V66.111H42z" mask="url(#d)"/>
    </g>
</svg>
