<svg xmlns="http://www.w3.org/2000/svg" width="42" height="46" viewBox="0 0 42 46">
    <g fill="#FFF100" fill-rule="evenodd">
        <path d="M31.627 12.606c.072.508.121 1.021.121 1.548 0 .554-.052 1.096-.133 1.633 3.841.206 6.067 1.184 6.483 1.677v21.768c-2.116-.86-5.034-1.267-7.937-1.267-2.477 0-5.624.39-7.937 1.333v-7.982c-.5.179-1.027.3-1.588.3a4.699 4.699 0 0 1-1.587-.3v7.916c-2.116-.86-5.034-1.267-7.937-1.267-2.477 0-5.624.39-7.937 1.333V17.464c.415-.493 2.642-1.471 6.483-1.677a10.97 10.97 0 0 1-.134-1.633c0-.527.05-1.04.121-1.548C4.637 12.846 0 14.33 0 17.329v26.986h15.874c0 .877 2.132 1.587 4.762 1.587 2.631 0 4.762-.71 4.762-1.587h15.875V17.329c0-2.998-4.637-4.483-9.646-4.723"/>
        <path d="M17.419 29.51l.26.211a.617.617 0 0 0 .842-.06l5.6-6.132 4.323-4.835a6.179 6.179 0 0 0 1.373-5.677l-1.542-5.91c.945-1.528 1.061-3.971.794-6.42a.774.774 0 0 0-.9-.676L24.59.608a.76.76 0 0 0-.625.92c.594 2.474 1.59 4.716 3.344 5.732l-.408 6.754a.768.768 0 0 1-.222.494l-6.395 6.426a1.23 1.23 0 0 0-.352.986l.188 1.907a.878.878 0 0 1-.12.536l-2.734 4.286a.668.668 0 0 0 .153.861"/>
        <path d="M18.799 22.645a3.93 3.93 0 1 0-7.859 0 3.93 3.93 0 0 0 7.859 0M18.09 17.792a.116.116 0 0 0-.164-.003l-.31.3a.116.116 0 0 0-.003.164l1.028 1.061a.115.115 0 0 0 .164.003l.31-.3a.116.116 0 0 0 .002-.164l-.073-.075a.515.515 0 0 1 .397-.144l.985.074c.293.022.583-.083.794-.287l.86-.833-2.634-2.634-.818.791a1.033 1.033 0 0 0-.312.785l.042.987a.517.517 0 0 1-.156.391l-.113-.116zM19.904 14.51l2.633 2.634 1.86-1.8-2.634-2.634zM25.633 14.147l.183-.178c.443-.43.454-1.136.025-1.58l-1.037-1.07a1.117 1.117 0 0 0-1.58-.025l-.183.177-.802.778-.019.018 2.634 2.634.779-.754zM14.87 14.835a1.183 1.183 0 1 0 0 2.366 1.183 1.183 0 0 0 0-2.366M16.65 13.64a.93.93 0 1 0 0-1.86.93.93 0 0 0 0 1.86M13.207 11.984a2.267 2.267 0 1 0 0-4.534 2.267 2.267 0 0 0 0 4.534"/>
    </g>
</svg>
