<svg xmlns="http://www.w3.org/2000/svg" width="33" height="40" viewBox="0 0 33 40">
    <g fill="#FFF100" fill-rule="evenodd">
        <path d="M5.84 16.347a.88.88 0 0 0 .88.881h18.497a.882.882 0 0 0 0-1.763H6.721a.88.88 0 0 0-.881.882M6.72 20.718h14.53a.882.882 0 0 0 0-1.763H6.72a.88.88 0 0 0-.88.881.88.88 0 0 0 .88.882M14.716 25.475H6.72a.88.88 0 0 0-.882.881.88.88 0 0 0 .882.882h7.995a.88.88 0 0 0 .881-.882.88.88 0 0 0-.881-.881M14.716 28.853H6.72a.88.88 0 0 0-.882.881.88.88 0 0 0 .882.882h7.995a.88.88 0 0 0 .881-.882.88.88 0 0 0-.881-.881M25.199 28.625a.897.897 0 0 0-.152.465l-.017.54a2.96 2.96 0 0 1-.19.263l-.505.181a.893.893 0 0 0-.4.29l-.33.425c-.1.04-.205.073-.311.1l-.516-.15a.923.923 0 0 0-.492 0l-.514.15a2.935 2.935 0 0 1-.313-.1l-.326-.424a.884.884 0 0 0-.4-.29l-.506-.182a3.049 3.049 0 0 1-.192-.267l-.018-.535a.87.87 0 0 0-.151-.464l-.298-.44c-.004-.056-.009-.113-.009-.17 0-.057.005-.113.009-.17l.298-.44a.894.894 0 0 0 .15-.466l.019-.532c.06-.093.123-.183.192-.268l.506-.18a.897.897 0 0 0 .4-.29l.327-.426c.1-.038.204-.071.31-.1l.516.15c.162.045.33.045.492 0l.518-.15c.105.028.208.061.308.1l.331.426a.897.897 0 0 0 .4.29l.505.18c.068.085.13.172.19.263l.017.54a.897.897 0 0 0 .152.465l.301.444c.003.055.009.109.009.164 0 .056-.006.11-.009.164l-.301.444zm-.46-4.797l-.225-.292a.888.888 0 0 0-.944-.306l-.359.104a4.698 4.698 0 0 0-.677-.055c-.23 0-.456.023-.678.055l-.358-.104a.88.88 0 0 0-.944.306l-.226.292a4.776 4.776 0 0 0-1.096.798l-.348.125a.886.886 0 0 0-.585.801l-.012.379a4.697 4.697 0 0 0-.417 1.28l-.212.312c-.2.3-.2.69 0 .988l.212.311c.078.453.22.883.417 1.282l.012.379c.01.36.241.678.582.8l.352.127c.266.258.563.483.883.674l-1.225 1.632a.876.876 0 0 0 .176 1.232.878.878 0 0 0 1.233-.176l1.47-1.957c.025-.034.044-.07.064-.107l.024-.007c.222.032.446.054.676.054.229 0 .453-.022.674-.054l.026.008c.02.036.039.072.064.106l1.47 1.958a.877.877 0 0 0 1.233.175.879.879 0 0 0 .175-1.232l-1.225-1.632c.32-.191.617-.417.883-.676l.35-.125a.876.876 0 0 0 .582-.8l.013-.376c.198-.401.341-.834.42-1.288l.207-.308a.877.877 0 0 0 0-.988l-.208-.307a4.696 4.696 0 0 0-.42-1.289l-.012-.375a.877.877 0 0 0-.582-.8l-.35-.126a4.76 4.76 0 0 0-1.095-.798z"/>
        <path d="M29.854 37.253H2.464V13.071l.202-.204h9.32a.88.88 0 0 0 .881-.88v-9.32l.203-.204h16.784v34.79zM11.104 4.43v6.676H4.43l6.675-6.676zM30.554 0H12.34c-.468 0-.916.186-1.246.517L.516 11.094c-.33.33-.516.778-.516 1.246v25.613c0 .975.789 1.763 1.763 1.763h28.791c.975 0 1.763-.788 1.763-1.763V1.763C32.317.789 31.529 0 30.554 0z"/>
    </g>
</svg>
