<svg xmlns="http://www.w3.org/2000/svg" width="40" height="32" viewBox="0 0 40 32">
    <g fill="#C0C5CE" fill-rule="evenodd">
        <path d="M18.807 17.778c.174 1.69.739 2.307 1.703 1.851.359-.17.69-.41.986-.723.3-.312.586-.848.863-1.61.18-.494.33-.82.459-.978.13-.16.268-.27.415-.335.294-.128.526-.141.691-.04.166.102.25.306.25.612 0 .725-.358 1.536-1.067 2.462a7.015 7.015 0 0 1-2.585 2.108c-.946.447-1.772.497-2.478.135-.703-.365-1.128-1.222-1.265-2.555-.312.135-.626.269-.938.398-.09.037-.135-.008-.135-.137 0-.123.049-.298.141-.523.094-.228.172-.352.237-.38.214-.09.425-.181.638-.272v-.268c0-.217.008-.535.027-.952-.303.132-.603.261-.908.387-.09.036-.135-.006-.135-.129 0-.129.049-.306.141-.534.094-.224.172-.35.237-.38.248-.103.494-.21.74-.318.322-2.708 1.535-4.539 3.642-5.543.926-.44 1.724-.572 2.398-.39.67.18 1.006.64 1.006 1.348 0 .243-.081.479-.237.714-.16.236-.352.4-.577.502-.252.11-.435.13-.554.052-.113-.075-.23-.222-.341-.435-.145-.285-.315-.474-.51-.57-.2-.092-.536-.027-1.009.196a2.754 2.754 0 0 0-1.255 1.163c-.292.52-.481 1.201-.565 2.05.796-.373 1.59-.753 2.384-1.124.098-.048.146-.006.146.123 0 .139-.045.319-.136.54-.092.225-.17.352-.24.383-.738.348-1.475.702-2.214 1.048-.003.243-.009.488-.015.73 0 .222.006.38.015.474.814-.381 1.628-.772 2.444-1.153.098-.045.146-.007.146.118 0 .142-.045.323-.136.546-.092.223-.17.353-.24.383-.724.342-1.444.686-2.169 1.026"/>
        <path d="M3.344 26.351c1.596.986 3.266 1.466 5.082 1.466h.003c3.461 0 7.025-1.689 10.795-3.478 3.943-1.87 8.017-3.8 12.23-3.8 1.796 0 3.476.341 5.084 1.04V5.35c-1.598-.986-3.266-1.467-5.084-1.467-3.462 0-7.022 1.689-10.796 3.478-3.94 1.87-8.017 3.802-12.23 3.802-1.796 0-3.48-.344-5.084-1.042v16.23zm5.082 4.813c-2.806 0-5.334-.839-7.732-2.562A1.677 1.677 0 0 1 0 27.244v-20c0-.628.352-1.202.907-1.49a1.68 1.68 0 0 1 1.74.131c1.81 1.302 3.699 1.932 5.782 1.932 3.461 0 7.025-1.689 10.795-3.478 3.943-1.87 8.017-3.8 12.23-3.8 2.81 0 5.336.838 7.732 2.561.438.316.697.82.697 1.359v20a1.672 1.672 0 0 1-2.651 1.357c-1.805-1.3-3.695-1.932-5.778-1.932-3.462 0-7.025 1.689-10.796 3.478-3.943 1.868-8.017 3.8-12.23 3.802h-.002z"/>
        <path d="M8.416 14.394c-.856 0-1.68-.087-2.481-.256a.77.77 0 0 1-.592-.912c.087-.417.507-.67.91-.594 2.337.498 4.922.166 8.128-1.035a.764.764 0 0 1 .99.449.768.768 0 0 1-.448.99c-2.433.911-4.553 1.358-6.507 1.358M25.228 8.424a.774.774 0 0 1-.721-.5.773.773 0 0 1 .454-.99c3.498-1.308 6.358-1.659 8.984-1.1a.77.77 0 0 1 .596.91.779.779 0 0 1-.914.594c-2.336-.497-4.916-.166-8.128 1.039a.798.798 0 0 1-.27.047M8.416 26.124c-.856 0-1.68-.086-2.481-.255a.77.77 0 0 1-.592-.912c.087-.417.507-.668.91-.594 2.337.498 4.922.164 8.128-1.036a.764.764 0 0 1 .99.45.768.768 0 0 1-.448.989c-2.433.912-4.553 1.358-6.507 1.358M25.228 20.155a.774.774 0 0 1-.721-.5.773.773 0 0 1 .454-.99c3.498-1.31 6.358-1.659 8.984-1.1a.77.77 0 0 1 .596.91.778.778 0 0 1-.914.594c-2.336-.495-4.916-.166-8.128 1.039a.798.798 0 0 1-.27.047"/>
    </g>
</svg>
