<svg xmlns="http://www.w3.org/2000/svg" width="628" height="668" viewBox="0 0 628 668">
    <g fill="#343D46" fill-opacity=".6" fill-rule="evenodd" opacity=".75">
        <path d="M151.041 257.286s32.335 15.895 103.578-12.046c0 0 57.22-20.516 69.936-40.871l-8.421-15.43s-6.874 9.145-17.63-17.16c-10.723-26.286-10.15-27.39-1.96-31.618 18.23-9.41 50.393 41.466 50.393 41.466s5.06.213 11.357-.494c7.223-.812 20.665 1.209 30.599 12.624 0 0 36.285 40.775 71.588 52.997 7.21 2.508 40.648 14.674 86.033 8.35 45.348-6.357 173.586 6.437 199.841 19.105 0 0 40.565 18.073 21.592 20.219 0 0-57.42-8.04-152.977 63.649 0 0-59.112 48.039-84.16 85.08-25.025 37.034-73.846 82.229-82.316 85.877 0 0-1.76 5.256.136 8.703 1.917 3.451 50.19 96.263 50.19 96.263s-56.827-87.476-61.503-92.731c-4.676-5.244-13.767-5.171-13.767-5.171s-53.574 5.822-125.703-4.215c-27.074-3.729-126.674-22.601-166.83-16.177-40.182 6.45-57.62 2.347-97.31 29.681 0 0-19.381 25.097-21.639-4.85-2.27-29.93 52.603-95.8 100.494-135.896 6.16-5.163 34.806-29.114 22.823-72.15 0 0-14.565-14.843-17.276-28.372-2.687-13.508.541-21.62 8.47-27.081 0 0-20.67-27.752-21.3-29.97-1.772-2.881-8.926-26.848 11.177-23.112 20.112 3.725 35.046 30.798 34.585 33.33"/>
        <path d="M620.604 366.68c-.837.677-5.085 4.22-11.308 9.596-.408 2.73-.789 5.463-1.277 8.173C593.095 465.474 544.263 532.797 478 572.845L506.094 622c80.19-48.104 139.333-129.38 157.328-227.267 3.66-19.89 5.446-39.846 5.578-59.697l-.008-.036c-14.72 8.194-30.845 18.494-48.388 31.68M131.174 527.282c-8.79 1.395-16.578 2.325-23.476 3.132-14.717 1.732-26.05 3.071-38.698 7.86 50.206 65.227 122.008 109.106 203.917 124.13A335.937 335.937 0 0 0 333.943 668c53.275 0 103.965-12.605 149.057-35.113l-31.18-47.082c-35.96 16.889-75.986 26.26-117.877 26.26-16.926 0-33.992-1.578-50.75-4.65C225.14 596.74 173.265 568.638 133.363 527c-.748.103-1.517.183-2.189.282M334.066 0C173.1 0 34.99 114.714 5.65 272.749-7.163 341.857 1.998 411.594 31.286 474c12.14-16.157 26.739-32.522 41.45-47.278-16.413-45.57-20.598-94.828-11.529-143.734C85.59 151.653 200.352 56.325 334.067 56.325c16.963 0 34.082 1.568 50.925 4.673 72.981 13.472 136.348 54.476 178.38 115.438a278.114 278.114 0 0 1 34.296 68.124c18.841.656 39.873 2.129 60.332 4.205-9.7-36.782-25.828-71.985-48.056-104.238C559.319 71.149 483.09 21.814 395.27 5.614A337.703 337.703 0 0 0 334.066 0z"/>
    </g>
</svg>
