<svg xmlns="http://www.w3.org/2000/svg" width="250" height="240" viewBox="0 0 250 240">
    <g fill="none" fill-rule="evenodd">
        <path fill="#1D79B7" d="M35.308 129.132c0 12.893 2.629 25.17 7.376 36.33 3.646-4.794 7.938-9.531 12.122-13.675a76.762 76.762 0 0 1-3.4-22.655c0-42.405 34.377-76.78 76.781-76.78 32.53 0 60.334 20.23 71.52 48.796 5.418.131 11.482.524 17.403 1.1-11.53-38.186-46.976-65.995-88.923-65.995-51.296 0-92.88 41.583-92.88 92.879M209.28 139.697c-.448.366-2.808 2.31-5.91 5.078-4.179 20.189-16.285 37.473-32.918 48.461l7.93 14.054c24.948-16.054 41.707-43.727 42.639-75.373-3.577 2.06-7.503 4.612-11.741 7.78M72.45 184.45c-2.496.4-4.697.66-6.639.89-3.91.463-6.819.814-10.002 1.992 17.024 21.145 43.118 34.679 72.378 34.679 14.142 0 27.543-3.167 39.541-8.82a4692.1 4692.1 0 0 0-8.778-13.696c-9.42 4.124-19.822 6.417-30.763 6.417-20.793 0-39.652-8.269-53.478-21.693-.824.05-1.586.124-2.259.231"/>
        <path fill="#FFF100" d="M77.163 107.536s8.979 4.404 28.758-3.339c0 0 15.887-5.684 19.419-11.325l-2.338-4.276s-1.91 2.534-4.896-4.756c-2.977-7.285-2.817-7.59-.544-8.763 5.061-2.607 13.991 11.492 13.991 11.492s1.406.059 3.154-.137c2.006-.225 5.737.335 8.495 3.499 0 0 10.075 11.299 19.877 14.686 2.003.695 11.287 4.067 23.887 2.314 12.592-1.761 48.197 1.783 55.487 5.294 0 0 11.262 5.009 5.995 5.604 0 0-15.943-2.228-42.475 17.638 0 0-16.412 13.313-23.367 23.577-6.948 10.263-20.504 22.787-22.855 23.799 0 0-.489 1.457.037 2.412.533.956 27.128 48.076 27.128 48.076s-28.97-45.641-30.268-47.098c-1.298-1.453-3.823-1.433-3.823-1.433s-14.874 1.613-34.9-1.168c-7.518-1.033-35.172-6.263-46.322-4.482-11.156 1.786-15.998.65-27.018 8.225 0 0-5.382 6.955-6.008-1.344-.63-8.295 14.605-26.548 27.902-37.66 1.711-1.431 9.664-8.068 6.337-19.995 0 0-4.044-4.112-4.796-7.861-.747-3.744.15-5.992 2.351-7.506 0 0-5.74-7.69-5.914-8.305-.492-.798-2.478-7.44 3.103-6.404 5.584 1.032 9.731 8.534 9.603 9.236"/>
        <g fill="#FFF100">
            <path d="M152.136 237.508l3.317-.747c2.16-.497 3.02-1.52 2.594-3.085a3.402 3.402 0 0 0-.448-1.017 1.864 1.864 0 0 0-.765-.61c-.33-.129-.725-.19-1.194-.187-.476.01-1.05.097-1.729.253l-3.06.693 1.285 4.7zm-1.726-6.302l3.048-.685c.996-.232 1.696-.56 2.09-.985.386-.426.484-1.013.277-1.766a2.49 2.49 0 0 0-.403-.861 1.594 1.594 0 0 0-.704-.5c-.288-.112-.636-.16-1.056-.155-.42.004-.918.075-1.485.202l-2.877.649 1.11 4.1zm9.523 2.04c.354 1.306.196 2.385-.478 3.26-.682.868-1.859 1.49-3.552 1.883l-5.135 1.163-3.727-13.658 4.879-1.11c.716-.163 1.385-.229 2.002-.193.623.03 1.183.147 1.667.354.493.207.909.504 1.25.882.336.386.581.844.731 1.381.18.679.176 1.284-.022 1.828-.198.552-.584 1.057-1.164 1.524a4 4 0 0 1 1.298.217c.383.143.732.328 1.037.57.298.244.55.524.76.848.2.33.352.681.454 1.052zM171.474 227.392l-4.945-5.127.448 6.852 4.497-1.725zm6.307 3.794l-1.965.75-3.242-3.36-5.478 2.101.275 4.507-1.814.696-.666-14.917 1.876-.723 11.014 10.946zM197.878 220.606l-7.436 4.45-7.816-11.868 1.587-.945 6.887 10.447 5.84-3.493zM203.282 216.679l-1.482 1.085-8.874-11.135 1.483-1.087zM7.861 128.614a8.25 8.25 0 0 0-3.189 2.347c-.87 1.035-1.508 2.326-1.922 3.882-.416 1.547-.553 3.398-.426 5.542l.362 6.12 20.88-1.24-.362-6.124c-.132-2.142-.493-3.958-1.083-5.45-.594-1.491-1.382-2.702-2.37-3.627a8.28 8.28 0 0 0-3.426-1.955c-1.298-.374-2.728-.52-4.263-.423-1.542.094-2.945.401-4.2.928m9.337-2.748a10.398 10.398 0 0 1 4.165 2.487c1.178 1.15 2.124 2.621 2.835 4.4.713 1.78 1.144 3.89 1.283 6.32l.503 8.456-25.433 1.518-.506-8.456c-.137-2.437.03-4.582.527-6.434.496-1.853 1.263-3.418 2.296-4.703 1.03-1.284 2.32-2.266 3.862-2.966 1.537-.692 3.268-1.09 5.185-1.205 1.925-.11 3.681.074 5.283.583M25.827 120.556L.53 117.516l.292-2.422 25.298 3.037zM30.058 100.301l-.486 1.696-27.778 4.384.715-2.474 13.168-2.061c1.812-.306 3.6-.588 5.367-.859 1.763-.269 3.559-.536 5.383-.81a616.485 616.485 0 0 1-4.147-3.563 313.754 313.754 0 0 1-4.072-3.57L8.154 84.296l.71-2.469 21.194 18.474zM35.736 85.316L13.79 72.38l8.865-15.03 1.964 1.155-7.642 12.966 7.553 4.444 6.207-10.542 1.968 1.161-6.214 10.541 8.473 4.989 7.888-13.366 1.996 1.174zM67.427 40.45a14.006 14.006 0 0 1-.566 3.232 12.983 12.983 0 0 1-1.441 3.193c-.644 1.05-1.504 2.028-2.597 2.939-1.616 1.344-3.264 2.305-4.958 2.87-1.692.568-3.258.816-4.701.742a12.893 12.893 0 0 1-5.127-1.324c-1.597-.786-3.052-1.96-4.358-3.526-1.28-1.529-2.17-3.14-2.672-4.835-.501-1.69-.642-3.39-.418-5.095.242-1.72.82-3.36 1.72-4.919.907-1.56 2.142-2.99 3.7-4.296.955-.793 1.919-1.417 2.908-1.858a11.174 11.174 0 0 1 2.994-.885 11.627 11.627 0 0 1 3.048-.029c1.016.132 2.037.35 3.06.656l-.782 2.235c-1.678-.527-3.338-.718-4.978-.57-1.642.15-3.244.875-4.802 2.181a15.082 15.082 0 0 0-2.855 3.166 10.588 10.588 0 0 0-1.634 3.884c-.283 1.39-.238 2.833.128 4.332.373 1.498 1.185 3.008 2.451 4.512 1.19 1.428 2.47 2.456 3.839 3.093 1.368.633 2.754.962 4.153.975a10.583 10.583 0 0 0 4.12-.801 13.85 13.85 0 0 0 3.718-2.235c.9-.75 1.62-1.575 2.15-2.473.533-.896.924-1.813 1.17-2.75.25-.934.395-1.854.439-2.754.05-.896.035-1.735-.035-2.525l2.34-.209c.054.979.051 2.003-.014 3.074M91.012 18.865c-.762-1.694-1.714-3.039-2.866-4.03-1.147-.995-2.402-1.681-3.75-2.072-1.352-.388-2.758-.495-4.23-.333-1.471.173-2.914.57-4.313 1.197a14.45 14.45 0 0 0-3.748 2.412 10.496 10.496 0 0 0-2.538 3.363c-.599 1.26-.916 2.651-.941 4.174-.023 1.518.346 3.127 1.104 4.818.758 1.693 1.708 3.039 2.854 4.02 1.149.98 2.395 1.666 3.743 2.055 1.35.39 2.755.5 4.218.337a14.336 14.336 0 0 0 4.296-1.186 14.38 14.38 0 0 0 3.746-2.416 10.82 10.82 0 0 0 2.557-3.367c.611-1.267.926-2.652.944-4.156.02-1.504-.349-3.107-1.102-4.8l.026-.016zm3.499 4.833c-.046 1.837-.439 3.52-1.172 5.05-.745 1.534-1.776 2.887-3.099 4.07a17.24 17.24 0 0 1-4.466 2.885 17.125 17.125 0 0 1-5.132 1.395c-1.769.193-3.47.057-5.101-.418-1.64-.468-3.152-1.297-4.551-2.486-1.402-1.185-2.55-2.794-3.458-4.814-.909-2.026-1.333-3.954-1.285-5.788.046-1.832.432-3.52 1.17-5.049.734-1.532 1.769-2.891 3.096-4.072a17.222 17.222 0 0 1 4.466-2.88 17.268 17.268 0 0 1 5.126-1.413 13.002 13.002 0 0 1 5.099.398c1.634.475 3.15 1.307 4.55 2.493 1.396 1.188 2.55 2.803 3.469 4.845.903 2.019 1.33 3.952 1.288 5.784zM122.934 26.016c-4.84-4.55-8.92-8.39-12.255-11.52-3.33-3.125-6.007-5.652-8.045-7.574.31 2.15.7 4.984 1.178 8.499.469 3.51 1.046 7.815 1.72 12.894l-2.423.317L99.777 3.37l2.155-.28c4.835 4.548 8.927 8.402 12.272 11.547a8792.32 8792.32 0 0 0 8.015 7.542A2972.955 2972.955 0 0 1 119.334.791l2.415-.318 3.335 25.256-2.15.287zM153.569 25.274a14.24 14.24 0 0 1-2.79 1.725 13.241 13.241 0 0 1-3.343 1.054c-1.207.218-2.52.224-3.923.013-2.082-.302-3.893-.9-5.442-1.783-1.551-.885-2.775-1.892-3.683-3.02a12.878 12.878 0 0 1-2.422-4.698c-.485-1.727-.57-3.592-.272-5.605.296-1.973.898-3.71 1.83-5.215a12.174 12.174 0 0 1 3.526-3.7 13.484 13.484 0 0 1 4.809-1.99c1.773-.36 3.661-.395 5.677-.1 1.222.185 2.333.49 3.319.935.983.434 1.87.988 2.648 1.641a11.315 11.315 0 0 1 2.05 2.254 18.11 18.11 0 0 1 1.552 2.726l-2.188.9c-.729-1.602-1.692-2.967-2.89-4.094-1.203-1.131-2.817-1.838-4.826-2.134a15.06 15.06 0 0 0-4.26-.019 10.688 10.688 0 0 0-3.987 1.364c-1.225.711-2.272 1.709-3.142 2.982-.872 1.27-1.455 2.883-1.741 4.83-.274 1.84-.188 3.48.248 4.926.438 1.444 1.114 2.693 2.031 3.744.925 1.05 2.039 1.9 3.345 2.54a13.807 13.807 0 0 0 4.146 1.296c1.163.167 2.247.153 3.273-.048a10.61 10.61 0 0 0 2.834-.957 13.207 13.207 0 0 0 2.342-1.5 17.955 17.955 0 0 0 1.866-1.709l1.709 1.607a27.57 27.57 0 0 1-2.296 2.035M156.898 30.374l9.195-23.754 16.284 6.301-.824 2.128-14.033-5.434-3.167 8.168 11.407 4.425-.824 2.127-11.41-4.423-3.555 9.176 14.475 5.603-.837 2.165zM201.828 34.01c.374-.56.605-1.206.705-1.93.096-.726-.04-1.52-.426-2.393-.385-.876-1.068-1.82-2.045-2.843-.976-1.019-2.346-2.116-4.123-3.29l-5.456-3.603-6.13 9.268 4.614 3.046c1.96 1.297 3.647 2.236 5.072 2.809 1.415.578 2.629.886 3.636.939 1.013.054 1.85-.118 2.51-.498a4.771 4.771 0 0 0 1.615-1.526l.028.02zm-4.066 4.35c-2.638-.133-5.962-1.527-9.978-4.18l-4.639-3.062-5.422 8.205-2.035-1.349 14.047-21.249 7.235 4.775c3.834 2.53 6.263 4.957 7.309 7.288 1.049 2.33.898 4.51-.444 6.546-1.42 2.15-3.446 3.156-6.073 3.025zM216.725 40.619l-16.378 16.425-1.707-1.702 16.352-16.4-7.003-6.99 1.631-1.637 15.72 15.675-1.608 1.616zM222.138 79.136c-1.107.021-2.218-.207-3.338-.686-1.185-.5-2.34-1.236-3.462-2.215-1.127-.978-2.162-2.197-3.116-3.65-.79-1.21-1.427-2.357-1.9-3.432a14.522 14.522 0 0 1-1.021-3.142 12.044 12.044 0 0 1-.213-2.962c.056-.957.213-1.911.471-2.862l2.336.744c-.474 1.443-.556 3.025-.265 4.745.3 1.726 1.129 3.62 2.492 5.7.857 1.307 1.76 2.358 2.705 3.155.953.797 1.9 1.398 2.827 1.81.757.322 1.495.474 2.213.456a3.637 3.637 0 0 0 1.961-.591c.766-.504 1.244-1.088 1.437-1.752.2-.666.273-1.3.225-1.892a8.125 8.125 0 0 0-.16-1.05c-.08-.366-.206-.83-.378-1.398a35.898 35.898 0 0 0-.698-2.074 140.86 140.86 0 0 0-1.142-3.034 167.442 167.442 0 0 1-1.146-3.099 62.96 62.96 0 0 1-.693-2.04 10.96 10.96 0 0 1-.361-1.38 13.919 13.919 0 0 1-.172-1.084 7.855 7.855 0 0 1 .026-1.275 4.65 4.65 0 0 1 .352-1.307 5.2 5.2 0 0 1 .783-1.257c.329-.407.753-.774 1.255-1.112.728-.473 1.596-.74 2.596-.785 1.001-.046 2.043.237 3.137.841.985.568 1.94 1.335 2.846 2.29.905.96 1.805 2.105 2.686 3.45.777 1.189 1.385 2.296 1.825 3.318.443 1.021.741 1.989.885 2.907.143.92.135 1.796-.015 2.64a9.641 9.641 0 0 1-.855 2.528l-2.099-1.182a6.85 6.85 0 0 0 .627-1.804 6.172 6.172 0 0 0 .017-2.022c-.102-.711-.341-1.5-.716-2.345-.365-.851-.889-1.786-1.559-2.808a21.963 21.963 0 0 0-2.366-3.034c-.817-.86-1.583-1.493-2.298-1.89-1.305-.684-2.467-.695-3.474-.034-.509.33-.86.758-1.072 1.287a3.422 3.422 0 0 0-.191 1.688c.04.35.117.716.215 1.096.098.378.244.847.422 1.407.174.557.415 1.222.707 2.003.3.775.665 1.75 1.12 2.917.379.995.7 1.872.978 2.638.272.766.51 1.463.703 2.09.2.626.342 1.198.433 1.726.087.522.13 1.042.115 1.561.015.425-.024.873-.102 1.344-.078.472-.22.938-.405 1.401a5.21 5.21 0 0 1-.807 1.337 5.63 5.63 0 0 1-1.304 1.165 5.748 5.748 0 0 1-3.067.954"/>
        </g>
    </g>
</svg>
