<svg xmlns="http://www.w3.org/2000/svg" width="231" height="200" viewBox="0 0 231 200">
    <g fill="none" fill-rule="evenodd">
        <path fill="#FFF100" d="M44.804 76.954s9.656 4.738 30.932-3.59c0 0 17.087-6.115 20.885-12.182l-2.515-4.6s-2.053 2.727-5.265-5.114c-3.202-7.835-3.031-8.164-.586-9.424 5.445-2.805 15.05 12.36 15.05 12.36s1.51.063 3.391-.148c2.157-.242 6.171.36 9.138 3.763 0 0 10.836 12.153 21.378 15.796 2.154.748 12.14 4.374 25.693 2.489 13.542-1.895 51.838 1.918 59.679 5.694 0 0 12.113 5.387 6.447 6.027 0 0-17.147-2.397-45.683 18.971 0 0-17.653 14.319-25.133 25.36-7.473 11.038-22.053 24.508-24.582 25.596 0 0-.526 1.566.04 2.594.573 1.028 14.988 28.692 14.988 28.692s-16.97-26.073-18.366-27.64c-1.396-1.562-4.111-1.54-4.111-1.54s-16 1.734-37.54-1.257c-8.084-1.112-37.828-6.737-49.82-4.822-12 1.922-17.207.7-29.06 8.847 0 0-5.788 7.48-6.462-1.446-.678-8.92 15.71-28.554 30.01-40.505 1.84-1.539 10.395-8.678 6.817-21.505 0 0-4.35-4.424-5.16-8.457-.802-4.026.162-6.444 2.53-8.071 0 0-6.173-8.272-6.36-8.933-.53-.86-2.667-8.003 3.337-6.889 6.006 1.11 10.466 9.18 10.328 9.934"/>
        <path fill="#1D79B7" d="M185.107 109.605c-.25.201-1.521 1.255-3.382 2.854-.123.812-.236 1.625-.382 2.43-4.464 24.1-19.069 44.124-38.887 56.036l8.403 14.62c23.983-14.308 41.672-38.482 47.054-67.596a101.225 101.225 0 0 0 1.668-17.756l-.003-.011c-4.402 2.437-9.225 5.5-14.471 9.423M39.217 157.186c-2.631.42-4.962.7-7.027.943-4.404.522-7.796.926-11.582 2.37 15.027 19.657 36.517 32.88 61.032 37.409a99.871 99.871 0 0 0 18.264 1.686 99.122 99.122 0 0 0 44.612-10.582l-9.332-14.19a82.37 82.37 0 0 1-35.28 7.915 83.889 83.889 0 0 1-15.189-1.402c-17.375-3.216-32.9-11.686-44.843-24.234-.224.03-.454.055-.655.085M99.695 0C51.657 0 10.442 34.335 1.686 81.637c-3.824 20.685-1.09 41.558 7.65 60.237 3.623-4.836 7.98-9.734 12.37-14.15-4.898-13.64-6.147-28.384-3.44-43.022 7.277-39.31 41.524-67.843 81.429-67.843 5.062 0 10.17.47 15.197 1.398 21.78 4.033 40.69 16.306 53.234 34.553A83.34 83.34 0 0 1 178.36 73.2c5.623.196 11.9.637 18.005 1.259-2.894-11.01-7.708-21.546-14.341-31.2-15.108-21.963-37.856-36.73-64.065-41.579A100.49 100.49 0 0 0 99.695 0z"/>
    </g>
</svg>
