<svg xmlns="http://www.w3.org/2000/svg" width="400" height="502" viewBox="0 0 400 502">
    <g fill="#343D46" fill-rule="nonzero" opacity=".75">
        <path d="M343.103 57.863A198.912 198.912 0 0 0 199.886.973a198.912 198.912 0 0 0-144.808 56.89A198.912 198.912 0 0 0 .974 205.853c0 97.467 64.05 211.245 184.59 337.355l14.322 14.72 14.322-14.72C335.942 416.7 398.003 304.514 398.798 205.456a198.912 198.912 0 0 0-55.695-147.593zm-143.217 442.38C96.054 388.057 40.756 288.601 40.756 204.66A159.13 159.13 0 0 1 83.323 85.313a159.13 159.13 0 0 1 116.563-44.557A159.13 159.13 0 0 1 316.051 85.71a162.71 162.71 0 0 1 44.158 119.348c-1.193 83.543-55.695 182.601-160.323 295.185z"/>
        <path d="M199.886 120.321c-43.942 0-79.565 35.623-79.565 79.565 0 43.943 35.623 79.565 79.565 79.565 43.943 0 79.565-35.622 79.565-79.565 0-43.942-35.622-79.565-79.565-79.565zm0 113.38a34.213 34.213 0 1 1 34.213-33.815c-.218 18.74-15.472 33.816-34.213 33.815z"/>
    </g>
</svg>
