<svg xmlns="http://www.w3.org/2000/svg" width="976" height="606" viewBox="0 0 976 606">
    <g fill="none" fill-rule="evenodd">
        <path fill="#4F5B66" d="M777.135 486l4.06-5.275 3.79-1.055 7.58-4.747 2.435-5.275-.541-2.637-2.707-2.374L778.218 462l-2.707 3.428-.541 7.913-1.624 1.318h-2.166l-2.977 1.846-2.166-1.846-1.894 2.638-1.895-.792L759 477.56l1.895 2.374-.542 1.582 1.895 3.165 1.895-.527 2.165 1.846h4.06zM776.154 495.183l1.884-.268 7.539-6.69L788 481l-4.039 1.338-.807 1.338-6.193 3.48-1.346 2.407-5.923 1.339-2.692 5.352 1.346 2.408 4.577 1.338.269-2.141 2.154-.535zM913.58 543.383l-3.765-5.66 1.075-2.156-1.345-2.425v-1.617l-5.378-7.546-2.69-.809-.806-3.503-8.338-7.276-3.227-1.618-1.345-2.156-.269-5.12-3.496-1.617-.537-2.157-2.421-2.964-1.345-.539-1.345-9.702-4.302-7.277-3.497-5.39-6.454-4.042-10.22-.27-6.185 2.695-6.993 1.078-9.144.27-9.413-2.156-7.53-2.426-6.724.808-2.689 8.355h-2.69l-3.496 2.156-8.068 9.972.538 1.886h-1.613l-2.421 2.965.269 1.078h-1.614l-4.034 4.582 1.614 2.695-6.455 3.234-2.152 2.156-.268 2.695 3.227 2.156-4.034 2.964 1.344 1.078 4.035-.539-.538 1.348 2.42.539-3.496 6.468.538 3.234 11.295-1.348 3.497 2.695.806 3.235 3.227-1.348 4.573 5.39 2.69.808-.808 5.39 6.455 2.965 2.69-1.347 4.033 4.85h6.455l7.53 5.121 3.227 4.043-.807 2.964 2.959.54.269 5.928 5.648-2.156 3.496 1.079 5.11.808 4.034 2.965h4.84l2.421 2.695 3.228.269 3.227 4.581 4.572-1.077 2.958 1.077 2.959 3.504 4.84.539 1.345-1.348-.807-1.077 1.345.269 1.614-.809-.27-2.425 2.69-.54 1.883-2.694 4.84-.809-.537-2.155.806-.809-1.075-4.312 1.344-2.965-.269-2.964 2.152-.54.807-4.042h2.958l1.614-2.156v-1.617l2.958-3.504 3.765 1.887 2.69.809 1.076 1.886L916 550.66l-3.765-4.043zM66.171 30l5.226-.921 3.603-3.5-.18-1.842L64.37 23 55 25.21v1.659l6.847.736z"/>
        <path fill="#4F5B66" d="M594.588 516.282l-2.593 1.397-4.789.998-1.708.816-2.54 2.619-1.396 1.819-6.126.135v-1.596l2.594-.8 2.194-2.793 3.192 1.197.2-2.794 3.192-1.797 2.793.998.598-3.393 4.39 1.397v1.797zm-9.61 28.848l4.224 4.285 5.586 5.39.399 2.794h-2.793l-3.192-3.193h-3.591l-3.79-3.793v-3.193l-2.594-4.99-3.192-2.396-.599 1.398-2.593-1.597-.599-4.192 1.396-2.395-.199-2.196 1.396-1.796.2-3.194 6.443-.076-.44 5.665.763 6.71 3.175 6.769zm389.04-288.35l1.982-1.442-1.44-8.469.72-4.685-7.205-7.028-1.26-6.487-7.205-2.342-6.123-6.127-4.143-2.342-4.503-.902-4.862-5.045-3.062 1.08-1.981-2.702-11.527-.72-4.683-5.587-5.583-2.702-6.845-11.894-.72-5.045-8.825-7.388-1.621-3.424-5.403-5.226-3.062-1.621-3.422-8.65-5.764-8.109-12.967-12.253-1.081-3.424-4.142-3.784-16.57-9.19-21.613-10.812-5.223-9.01-1.981-1.26-5.403-1.082-5.044-6.847-10.266-1.622-6.483-5.226-2.882-2.522-3.423-5.046-18.01-6.667-10.266-1.442-2.882-1.081-1.08-2.523-9.006-5.045-9.546-4.145-5.763-.18-3.422-2.523-6.844-2.162-7.925-.72-5.223-5.227-3.242-1.801-2.882-5.226-2.881-.721-10.807 1.081-3.962-2.522h-2.882c-.72 0-5.223-2.704-5.223-2.704l-10.086-.72-8.105-4.505-4.322-.901-5.584-5.226-7.204-3.604-11.887-2.342-8.825-.541-19.272-6.667-2.882-.18L575.081 0 554.01 1.982l-20.172 10.992-5.223 1.982-3.602.18-1.982-.54-1.44 2.343-19.272 15.136-3.602 1.081-7.024 5.767-1.261 2.162-3.422 1.441-7.204 8.109-1.802 4.325-5.943 3.964v2.703l-2.701 2.523-5.224 1.441-5.583 4.686-4.323 2.522-2.341 4.865-3.962 1.803h-7.565l-3.242 6.847-3.061 1.982-6.124.18-5.043 3.064-10.447.9-18.01.361-9.185 1.081-5.404-2.162-14.229 2.703-2.52-1.081-1.802 1.08v1.262l-4.863 1.982-5.223.18-12.967 5.407-11.167.72-8.465-1.621-5.043-3.064h-1.08l-1.262 2.343-3.962-.54-1.44-1.803.9-2.162-1.44-.54-2.883 3.603-2.701.72-3.963-2.702-.72-2.703-1.081-.18-1.08.54-5.044-.36-2.701-2.342-24.495-7.028h-2.701l-9.546-3.424-4.323 1.082-10.986-6.848-8.826-2.883-1.98.36-4.323-1.441-.901-1.983 1.08-2.162-.36-.72-1.98 1.26-.36 2.704-2.882.54-3.603-3.423-2.52-.721-3.964-3.604-3.782-1.442-8.645.72-4.502 2.163-7.745-2.342-1.08-1.442-1.982 1.262-3.242-.18-2.341-3.605-2.882-2.703-2.882-4.505-1.26 1.262.18 3.063-2.702 1.982-3.242-2.162-1.08-3.063-3.062-2.343-8.105-1.441-1.441-3.784-2.522 4.144h-1.8l.18 4.145-5.404 1.802-.9 2.883-2.521-.18-1.081-1.803-3.603 2.523-1.44-2.162.54-5.226 1.26-4.324-3.06-2.704-4.143-.72-9.186 2.703-.9 3.243-2.702.721-2.882 1.081-3.062 1.982.18 3.784h4.863l1.081 1.442-4.863 3.063-3.062-2.883V55.32l-2.341-1.441-4.323 1.441-3.782 4.505-3.962 1.082-.36 2.162-9.186 8.109-3.062.54-2.701-.54-2.342-2.523 1.441-3.424-2.161-.54 5.043-4.686.54-2.883-18.73-25.768h-2.162v-2.342l-3.422-3.244-3.603-.72-3.242 3.063-21.072-2.163-3.062-.9-1.8.9-4.684-.18-5.403 3.064-1.08 3.423.36 2.343-.9 3.964-.36 4.865-.54 1.983 4.862 5.405 3.783 4.325 1.62 6.848.18 3.243-1.26 2.343.72 6.667 5.764 2.883 4.682-.72.721 2.162 1.8-.36 4.504 2.702-3.422 2.884-3.062 1.44.36-3.062-1.26-.54-5.764 8.829-3.963.72-1.98 1.081-1.262-.54.18-1.622 2.342-1.261.18-4.145-2.702-3.964-2.34-1.622v-2.342l-1.262-.18-2.521 4.324L.36 83.251 0 87.035l1.26 2.342.54 2.704 3.603 2.702-.36 2.163 1.26 2.162s3.783 18.92 4.864 19.28c1.08.361 4.322 9.371 4.322 9.371l5.223 5.046 2.521 5.406 4.684 3.063 2.881 5.766 5.223 7.929v3.243l1.08 1.983 1.442 4.144 5.043 3.424.18 1.621 4.502 3.064 11.167 11.893L67 190.107l1.26 5.586-2.341 3.784v4.325l.18 3.964 6.845 5.767 9.365 3.423 4.143 3.785 1.08 5.225 7.745 8.109v1.622l5.583 3.243 9.005 9.55-.9 1.983.36.54-.72 1.802 5.042 4.506.901 1.982 4.503 2.883 6.664 1.44 3.782-.179 2.522.36 11.526 2.523 12.788.54 12.607-2.522 17.29-4.144 16.75-1.262 22.694-.54 6.484.18 11.527 2.162s11.166 2.883 12.067 3.604c.9.72 16.57 3.604 16.57 3.604l7.925 2.162 3.422 2.343 1.44 4.505 4.323 2.342 3.422.901 1.08 4.145 1.441.18 4.143 3.063 7.204.36 9.546 2.163 24.855 9.19 4.503.18s13.688 7.208 15.128 7.748c1.441.541 8.106 6.128 8.106 6.128l6.123 1.621 9.726 6.487 7.024 5.766-1.08 1.081 7.383 7.75 3.423 1.62.54 2.163h3.962l5.944 3.785 2.881 4.504 3.963 1.982 11.347 11.173.36 3.063h1.08l.18 2.703 1.442.36 5.043 1.983 8.104 7.207 10.086 6.488 16.39 13.874 14.769 13.155 6.304 8.649 1.26-.18 2.342 1.622.36 5.226 6.484 10.811 3.422 2.884 2.882 6.486 10.806 4.866 7.024 5.766 10.627 8.83 6.123 7.388 5.944 9.01 5.583 7.568 4.143 10.271 1.98 9.01-4.142 5.946-1.8 5.947-1.802 6.667-5.403.36.72 2.523h4.863l4.863 3.784 2.522 3.244-.18 7.387-2.342 6.848-3.061 3.064-3.603-.721-5.223-.902h-5.763l-3.963 4.686-2.881.54-1.081 2.523-5.583.54-2.882 2.343-.9-.36-1.441 1.441-1.261 6.488-4.863 3.063-4.143 2.703-2.701-.54-3.062 2.702-5.764.18-3.421 5.767-.541 5.946 1.621 2.703.72 3.784 18.371 6.307 11.707 1.442 17.11.54 12.428.721 10.086-1.081 8.645-3.064 6.304-1.261c.9-.18 5.043-3.423 5.043-3.423l10.086-3.965 3.782-7.748 2.161-3.784 4.143-3.965.72-3.964 3.062-2.523 3.062.54v-1.981l-2.882-.901.72-1.081-.36-1.442-2.16.18-3.063-7.748-2.161-1.081-2.522-10.452-.18-9.19-1.44-6.127-3.062-.18-1.441 1.802.54 2.343-.72 1.802-.36 4.505 1.98 4.685-3.061 2.162 2.161 7.028 1.981 2.162-4.142-.9.18-1.443-1.44-3.603-3.783-3.604-4.863-4.866-2.702-5.406-1.102-6.923.292-5.788.832-2.163 2.161-2.534 3.22-1.152.721.18 1.441.721-.72 5.947 3.782.18 1.62-5.046v-1.801l-3.421-1.082 2.881-1.08 1.621-6.127h3.422l2.702-1.082 2.887 1.93-.646.882-2.194.997-1.197 2.795-1.397 4.191-1.197 6.388 3.391 1.796h.998l3.99 1.996 1.197-.399.798-2.595 1.995-.2.998-1.796-1.796-1.796h-1.995l-1.995-1.597.2-1.996h2.194l1.596 1.198 1.596 2.195 2.992.2 3.592-3.194.398-2.594 2.794-.8-.2-1.995 1.397-1.996v-1.198l-2.195-.2-1.796 2.196.4 1.597-1.597 1.397-1.595-.4-1.995 1.997-.998-.2 2.394-2.594-.2-1.198h1.996l-.2-1.397h-1.197l-1.197-1.198 1.397-1.198.797 1.198 1.397.998 1.596-.598-.598-2.795-3.592-3.194-2.992-.4-1.995 1.797-3.79 1.597-.613.836-2.922-2.275 2.161-2.702 4.502-.18 6.304-3.244 3.062-3.424 3.602.18.18 1.262h2.161l6.484-3.064 2.702-3.243 1.801-9.55-2.341-7.388.72-4.145-2.882-6.667.18-2.883 5.044-7.208 13.868-9.911 12.247-11.713.72-2.342 13.869-8.11 3.962-6.486 7.385-3.965 2.34-1.802 6.304-2.883 2.882-6.487 3.242-3.063 7.565-3.784 6.303-1.622 15.49.54 5.223 1.442 21.253-1.08 14.228-3.785 11.527-12.614 7.024-2.523h6.844l21.433-7.388.72-4.505-1.62-2.522 2.7-1.081 1.262 2.522.72-.36-.18-3.604-1.981-6.127-2.702-1.621.72-4.866 3.963-4.145 13.508-5.045 4.322.18 5.944 3.604 5.763-.901 20.533 7.388 1.08 1.802 19.091-9.55 2.882 1.982 1.621-.36-1.26-2.703 5.042-14.416 10.087-8.11 2.7-3.963.542-5.226 14.228-5.406 5.403-4.145 7.564-2.342 9.546-7.388 3.422-1.982 1.441-3.604 4.503-2.883.72-3.964 2.702-1.082v-4.324s3.062-1.622 3.782-1.802c.72-.18 4.142-7.028 4.323-7.749.18-.72-.9-2.162-.9-2.162l-.181-1.982z"/>
        <g fill="#FFF100">
            <path d="M367.858 126.576a1.597 1.597 0 0 1 1.86-2.594 1.594 1.594 0 0 1-.93 2.892c-.324 0-.649-.096-.93-.298zm7.983 5.412a1.587 1.587 0 0 1-.479-2.201 1.595 1.595 0 1 1 .479 2.201zm8.174 5.065a1.59 1.59 0 0 1-.547-2.19c.452-.755 1.43-1 2.184-.547a1.6 1.6 0 0 1 .548 2.19 1.6 1.6 0 0 1-2.185.547zm8.233 4.88a1.584 1.584 0 0 1-.558-2.18 1.595 1.595 0 0 1 2.184-.563 1.6 1.6 0 0 1 .558 2.185 1.591 1.591 0 0 1-2.184.558zm8.137 4.939h.005a1.59 1.59 0 0 1-.504-2.196 1.589 1.589 0 0 1 2.2-.5v-.005c.744.473.967 1.457.5 2.2a1.59 1.59 0 0 1-1.35.745c-.293 0-.585-.075-.851-.244zm7.86 5.261a1.592 1.592 0 1 1 1.866-2.583 1.592 1.592 0 0 1-.93 2.886 1.57 1.57 0 0 1-.935-.303zm7.351 5.853a1.596 1.596 0 0 1 2.116-2.387c.658.58.717 1.59.133 2.249a1.591 1.591 0 0 1-2.249.138zm6.591 6.629a1.592 1.592 0 0 1 .154-2.249 1.593 1.593 0 1 1 1.047 2.797c-.446 0-.887-.187-1.201-.548zm5.612 7.442a1.596 1.596 0 1 1 2.673-1.736 1.596 1.596 0 0 1-2.673 1.736zm4.56 8.149a1.6 1.6 0 0 1 .75-2.127 1.595 1.595 0 1 1 1.376 2.881 1.592 1.592 0 0 1-2.126-.755zm3.545 8.674a1.601 1.601 0 0 1 .983-2.03 1.596 1.596 0 1 1 .527 3.104c-.66 0-1.281-.415-1.51-1.074zm2.669 9.026a1.595 1.595 0 0 1 1.163-1.934 1.59 1.59 0 0 1 1.93 1.163 1.591 1.591 0 0 1-1.547 1.978 1.592 1.592 0 0 1-1.546-1.207zm2.237 9.329v.005a1.59 1.59 0 0 1 1.121-1.956 1.592 1.592 0 1 1 .835 3.073 1.591 1.591 0 0 1-1.955-1.122zm2.907 9.244a1.592 1.592 0 0 1 .968-2.036 1.59 1.59 0 0 1 2.035.962 1.596 1.596 0 0 1-.962 2.04 1.6 1.6 0 0 1-.536.091c-.655 0-1.271-.404-1.505-1.057zm3.583 8.994a1.588 1.588 0 0 1 .818-2.1 1.587 1.587 0 0 1 2.1.819 1.588 1.588 0 0 1-.82 2.1c-.207.09-.425.138-.637.138a1.588 1.588 0 0 1-1.461-.957zm4.161 8.722a1.595 1.595 0 0 1 .685-2.147 1.595 1.595 0 1 1 1.467 2.833 1.579 1.579 0 0 1-.733.181 1.599 1.599 0 0 1-1.419-.867zm4.682 8.452v.005a1.603 1.603 0 0 1 .564-2.19 1.6 1.6 0 0 1 2.184.559v.005a1.597 1.597 0 0 1-.563 2.185 1.593 1.593 0 0 1-.808.217 1.589 1.589 0 0 1-1.377-.78zm5.145 8.17a1.593 1.593 0 1 1 2.652-1.77 1.593 1.593 0 0 1-.44 2.212 1.592 1.592 0 0 1-2.211-.442zm5.56 7.888a1.596 1.596 0 0 1 .329-2.232 1.595 1.595 0 1 1-.33 2.233zm5.942 7.602a1.59 1.59 0 0 1 .223-2.243 1.589 1.589 0 0 1 2.243.218 1.593 1.593 0 0 1-1.233 2.604c-.463 0-.92-.196-1.233-.58zm6.293 7.309a1.597 1.597 0 0 1 2.37-2.142c.59.653.537 1.664-.117 2.253a1.58 1.58 0 0 1-1.068.415c-.436 0-.867-.18-1.185-.526zm6.627 7.011a1.596 1.596 0 0 1 2.27-2.243 1.6 1.6 0 0 1-.011 2.253 1.597 1.597 0 0 1-2.259-.01zm6.936 6.697a1.6 1.6 0 0 1-.09-2.253c.6-.644 1.61-.686 2.258-.09l-.005.005c.648.595.691 1.605.09 2.248a1.585 1.585 0 0 1-2.253.09zm7.233 6.38a1.595 1.595 0 1 1 2.057-2.433 1.595 1.595 0 0 1-2.057 2.432zm7.516 6.043a1.595 1.595 0 0 1 1.94-2.53c.696.537.829 1.541.297 2.238-.319.409-.791.622-1.27.622-.335 0-.68-.107-.967-.33zm7.786 5.688a1.588 1.588 0 0 1-.399-2.216 1.587 1.587 0 0 1 2.217-.4c.723.5.904 1.494.398 2.217a1.583 1.583 0 0 1-2.216.399zm8.047 5.315a1.594 1.594 0 0 1-.505-2.2 1.591 1.591 0 0 1 2.195-.505 1.599 1.599 0 0 1-.845 2.95c-.293 0-.585-.08-.845-.245zm8.296 4.906a1.593 1.593 0 0 1-.61-2.168 1.598 1.598 0 0 1 2.168-.616 1.606 1.606 0 0 1 .616 2.174 1.603 1.603 0 0 1-2.174.61zm8.547 4.476a1.588 1.588 0 0 1-.729-2.131 1.592 1.592 0 0 1 2.132-.729 1.592 1.592 0 1 1-1.403 2.86zm8.786 4.008a1.593 1.593 0 0 1-.846-2.089 1.594 1.594 0 0 1 2.09-.85 1.6 1.6 0 0 1 .844 2.094 1.591 1.591 0 0 1-2.088.845zm8.72 3.706a1.592 1.592 0 0 1-.733-2.132 1.591 1.591 0 0 1 2.132-.734 1.592 1.592 0 0 1 .734 2.132 1.59 1.59 0 0 1-2.132.734zm8.064 4.677h-.006a1.602 1.602 0 0 1-.414-2.216 1.598 1.598 0 0 1 2.217-.42 1.59 1.59 0 0 1 .414 2.216 1.59 1.59 0 0 1-2.211.42zm7.27 5.81a1.59 1.59 0 0 1-.08-2.254 1.59 1.59 0 0 1 2.25-.08h.004c.643.6.675 1.611.08 2.255a1.586 1.586 0 0 1-2.254.08zm6.341 6.836a1.595 1.595 0 0 1 .244-2.243 1.59 1.59 0 0 1 2.243.244 1.59 1.59 0 0 1-.244 2.238 1.58 1.58 0 0 1-1 .356 1.6 1.6 0 0 1-1.243-.595zm5.347 7.654a1.601 1.601 0 0 1 .537-2.19 1.601 1.601 0 0 1 2.195.537 1.597 1.597 0 0 1-.543 2.19 1.555 1.555 0 0 1-.823.234 1.602 1.602 0 0 1-1.366-.771zm4.38 8.298a1.595 1.595 0 0 1 .786-2.115 1.593 1.593 0 1 1 1.33 2.896 1.571 1.571 0 0 1-.665.149c-.6 0-1.18-.345-1.452-.93zm3.48 8.744a1.592 1.592 0 0 1 .994-2.026 1.585 1.585 0 0 1 2.02.99 1.59 1.59 0 0 1-1.504 2.11c-.664 0-1.28-.415-1.51-1.074zm2.68 9.053a1.595 1.595 0 1 1 3.092-.782 1.594 1.594 0 0 1-1.546 1.982 1.59 1.59 0 0 1-1.547-1.2zm1.971 9.248a1.596 1.596 0 1 1 1.85 1.292 1.724 1.724 0 0 1-.282.022c-.755 0-1.43-.543-1.568-1.314zm1.366 9.377c-.1-.877.526-1.67 1.404-1.765a1.586 1.586 0 0 1 1.764 1.398 1.602 1.602 0 0 1-1.398 1.77 1.601 1.601 0 0 1-1.77-1.403zm.84 9.446a1.59 1.59 0 0 1 1.488-1.69 1.595 1.595 0 1 1 .202 3.184h-.1a1.594 1.594 0 0 1-1.59-1.494zm.377 9.494a1.597 1.597 0 0 1 1.568-1.627 1.593 1.593 0 0 1 1.62 1.568 1.592 1.592 0 0 1-1.567 1.621h-.027a1.593 1.593 0 0 1-1.594-1.562zm1.542 11.136a1.6 1.6 0 0 1-1.563-1.632v.005a1.597 1.597 0 0 1 1.632-1.562 1.59 1.59 0 0 1 1.557 1.626 1.597 1.597 0 0 1-1.595 1.563h-.031zm-.431 9.557a1.593 1.593 0 1 1 .175-3.184 1.595 1.595 0 0 1-.09 3.19c-.027 0-.059 0-.085-.006zm-.739 9.542a1.6 1.6 0 0 1-1.45-1.728 1.597 1.597 0 0 1 1.726-1.451 1.597 1.597 0 0 1 1.451 1.727 1.598 1.598 0 0 1-1.589 1.457c-.042 0-.09 0-.138-.005zm-.999 9.514a1.592 1.592 0 0 1-1.403-1.764 1.593 1.593 0 1 1 3.167.36 1.591 1.591 0 0 1-1.764 1.404zm-1.53 9.441a1.595 1.595 0 0 1 .61-3.131 1.603 1.603 0 0 1 1.26 1.871 1.6 1.6 0 0 1-1.562 1.291 1.51 1.51 0 0 1-.308-.03zm-2.477 9.233a1.594 1.594 0 1 1 .935-3.046 1.596 1.596 0 0 1 1.058 1.988v.005a1.597 1.597 0 0 1-1.993 1.053zm-3.519 8.893a1.597 1.597 0 0 1 1.291-2.919 1.597 1.597 0 0 1 .814 2.105c-.266.596-.85.947-1.462.947-.213 0-.436-.043-.643-.133zm-4.661 8.345a1.598 1.598 0 0 1-.51-2.195 1.59 1.59 0 0 1 2.195-.51c.749.463.978 1.445.516 2.195-.304.484-.824.75-1.356.75-.292 0-.58-.075-.845-.24zM581 499.687a1.598 1.598 0 0 1-.15-2.253c.58-.66 1.59-.729 2.254-.15a1.596 1.596 0 1 1-2.105 2.403zm-7.346 6.102a1.594 1.594 0 0 1 .505-2.195h.006a1.59 1.59 0 0 1 2.195.505 1.595 1.595 0 1 1-2.706 1.69z"/>
            <path d="M708.202 463.876a1.59 1.59 0 0 1 1.59-1.6h-.007c.883-.006 1.6.707 1.606 1.584.005.883-.707 1.6-1.59 1.605h-.005c-.877 0-1.589-.712-1.594-1.589m11.119 1.69a1.588 1.588 0 0 1-1.552-1.632 1.596 1.596 0 0 1 3.189.08 1.602 1.602 0 0 1-1.595 1.557c-.016 0-.026-.004-.042-.004m-20.68-1.446a1.593 1.593 0 0 1 1.535-1.653 1.6 1.6 0 0 1 1.653 1.535 1.602 1.602 0 0 1-1.54 1.654h-.06c-.85 0-1.557-.676-1.589-1.536m30.194 1.833a1.59 1.59 0 0 1-1.504-1.679 1.586 1.586 0 0 1 1.68-1.499 1.588 1.588 0 0 1 1.503 1.674 1.597 1.597 0 0 1-1.594 1.51c-.026 0-.058 0-.085-.006m-39.74-1.28a1.594 1.594 0 0 1 1.478-1.701 1.598 1.598 0 0 1 1.701 1.483c.059.876-.6 1.637-1.477 1.7-.038 0-.075.006-.112.006a1.597 1.597 0 0 1-1.59-1.488m49.238 1.945a1.596 1.596 0 1 1 1.722-1.456 1.597 1.597 0 0 1-1.59 1.461c-.042 0-.09 0-.132-.005m-58.761-1.069a1.59 1.59 0 0 1 1.419-1.749 1.598 1.598 0 0 1 1.754 1.42 1.599 1.599 0 0 1-1.425 1.754c-.058.006-.111.006-.17.006a1.59 1.59 0 0 1-1.578-1.43m68.237 1.993a1.594 1.594 0 0 1 .351-3.169h.006a1.588 1.588 0 0 1 1.403 1.76 1.597 1.597 0 0 1-1.579 1.42c-.058 0-.122-.006-.18-.011m-77.73-.781a1.603 1.603 0 0 1 1.36-1.802 1.599 1.599 0 0 1 1.802 1.36 1.598 1.598 0 0 1-1.584 1.818 1.6 1.6 0 0 1-1.579-1.376m87.186 1.955a1.594 1.594 0 1 1 .427-3.16 1.594 1.594 0 0 1-.427 3.16m-96.62-.398a1.596 1.596 0 1 1 1.85 1.292c-.096.015-.186.02-.282.02-.76 0-1.43-.541-1.568-1.312m-9.37 1.914a1.59 1.59 0 0 1 1.217-1.898 1.589 1.589 0 0 1 1.898 1.217 1.598 1.598 0 0 1-1.563 1.935c-.733 0-1.392-.51-1.552-1.254m-9.29 2.28a1.593 1.593 0 0 1 1.142-1.945 1.598 1.598 0 0 1 1.946 1.142 1.602 1.602 0 0 1-1.547 2 1.597 1.597 0 0 1-1.541-1.197m-9.19 2.663a1.596 1.596 0 0 1 1.063-1.993 1.593 1.593 0 0 1 1.988 1.063 1.59 1.59 0 0 1-1.525 2.057 1.6 1.6 0 0 1-1.526-1.127m-9.067 3.051a1.595 1.595 0 1 1 3.009-1.065 1.595 1.595 0 0 1-3.009 1.065m-8.918 3.455a1.594 1.594 0 1 1 2.078.882 1.596 1.596 0 0 1-2.078-.882m-8.749 3.88a1.595 1.595 0 0 1 .782-2.115h-.006a1.598 1.598 0 0 1 2.121.776 1.597 1.597 0 0 1-1.446 2.265c-.6 0-1.18-.341-1.45-.925m-8.536 4.316a1.586 1.586 0 0 1 .664-2.153 1.596 1.596 0 0 1 2.153.664c.409.782.111 1.744-.665 2.159a1.64 1.64 0 0 1-.744.18 1.583 1.583 0 0 1-1.408-.85m-8.291 4.784a1.587 1.587 0 0 1 .542-2.185 1.596 1.596 0 0 1 2.19.537 1.598 1.598 0 0 1-.543 2.19c-.255.16-.542.228-.824.228a1.587 1.587 0 0 1-1.365-.77m-7.967 5.31a1.596 1.596 0 1 1 1.307.68c-.5 0-.994-.239-1.307-.68m-7.425 6.06a1.602 1.602 0 0 1 .08-2.259v.005a1.59 1.59 0 0 1 2.253.08c.6.643.563 1.653-.08 2.248v.006a1.596 1.596 0 0 1-2.254-.08M816.942 404.36a1.594 1.594 0 0 1 1.228 1.89 1.598 1.598 0 0 1-1.895 1.226 1.598 1.598 0 0 1-1.227-1.89c.01-.035.015-.073.025-.108a1.597 1.597 0 0 1 1.869-1.118m1.783-9.397a1.59 1.59 0 0 1 1.29 1.847 1.598 1.598 0 0 1-1.848 1.294 1.599 1.599 0 0 1-1.294-1.852c.01-.058.025-.11.041-.165a1.59 1.59 0 0 1 1.81-1.124m1.452-9.458c.87.127 1.48.933 1.357 1.804a1.599 1.599 0 0 1-1.805 1.357 1.598 1.598 0 0 1-1.311-2.024 1.6 1.6 0 0 1 1.759-1.137m1.103-9.498a1.596 1.596 0 1 1-1.752 1.422c.012-.097.032-.185.058-.277.21-.73.915-1.225 1.694-1.145m.743-9.535a1.59 1.59 0 0 1 1.489 1.693 1.589 1.589 0 0 1-1.693 1.489 1.598 1.598 0 0 1-1.43-2.036 1.589 1.589 0 0 1 1.634-1.146m.369-9.559c.88.02 1.576.75 1.555 1.635a1.598 1.598 0 0 1-1.634 1.555 1.602 1.602 0 0 1-1.496-2.038c.195-.68.834-1.17 1.575-1.152m-.027-9.567a1.596 1.596 0 0 1 1.623 1.57 1.593 1.593 0 0 1-1.57 1.619 1.59 1.59 0 0 1-1.557-2.034 1.6 1.6 0 0 1 1.504-1.155m-.434-9.557a1.595 1.595 0 1 1 .194 3.186 1.595 1.595 0 0 1-.194-3.186m-.863-9.526a1.594 1.594 0 1 1-1.42 1.755 1.596 1.596 0 0 1 1.42-1.755"/>
            <path d="M574.692 21.567a1.593 1.593 0 1 1 .303-3.173 1.593 1.593 0 1 1-.149 3.179c-.053 0-.106 0-.154-.006zm-10.975-1.329a1.602 1.602 0 0 1 1.366-1.802 1.597 1.597 0 0 1 1.796 1.366 1.6 1.6 0 0 1-1.584 1.813 1.6 1.6 0 0 1-1.578-1.377zm20.25 2.791a1.595 1.595 0 1 1 1.886-1.233 1.6 1.6 0 0 1-1.557 1.27c-.112 0-.218-.01-.33-.037zM554.51 22.8a1.593 1.593 0 1 1 3.02-1.02 1.593 1.593 0 1 1-3.02 1.02zm38.655 2.483a1.588 1.588 0 0 1-1.11-1.962 1.595 1.595 0 1 1 1.537 2.02c-.145 0-.288-.016-.427-.058zm-47.424 1.34a1.596 1.596 0 0 1 .75-2.132h-.006a1.604 1.604 0 0 1 2.131.75 1.596 1.596 0 0 1-2.875 1.381zm56.53 1.398a1.597 1.597 0 0 1 .977-3.041 1.605 1.605 0 0 1 1.03 2.01 1.598 1.598 0 0 1-2.008 1.03zm9.029 3.045a1.596 1.596 0 0 1-.973-2.036 1.592 1.592 0 0 1 2.03-.973 1.594 1.594 0 1 1-1.057 3.01zm-73.93.191a1.59 1.59 0 0 1 .563-2.184 1.596 1.596 0 1 1 .808 2.971 1.587 1.587 0 0 1-1.371-.787zm82.896 3.079v-.006a1.593 1.593 0 1 1 2.052-.93 1.596 1.596 0 0 1-2.052.936zm-90.932 2.126a1.591 1.591 0 0 1 .425-2.212 1.596 1.596 0 0 1 1.791 2.642 1.584 1.584 0 0 1-.893.271c-.51 0-1.015-.244-1.323-.701zm99.85 1.291a1.599 1.599 0 0 1-.903-2.067 1.601 1.601 0 0 1 2.067-.904 1.597 1.597 0 0 1-1.164 2.971zm8.887 3.53a1.596 1.596 0 0 1 1.19-2.96c.819.329 1.213 1.26.883 2.072-.25.622-.845 1-1.478 1-.196 0-.398-.033-.595-.112zm-116.481.808a1.596 1.596 0 1 1 2.232.319c-.287.212-.622.319-.957.319a1.6 1.6 0 0 1-1.275-.638zm125.34 2.79a1.598 1.598 0 0 1-.87-2.078 1.598 1.598 0 0 1 2.083-.871 1.602 1.602 0 0 1 .871 2.083c-.255.617-.85.989-1.477.989-.202 0-.404-.037-.606-.123zM514.103 48.05a1.597 1.597 0 0 1 2.472-2.019 1.59 1.59 0 0 1-.229 2.243 1.556 1.556 0 0 1-1.004.361c-.463 0-.92-.202-1.239-.585zm141.68.484a1.598 1.598 0 0 1-.867-2.083 1.6 1.6 0 0 1 2.083-.867c.814.34 1.201 1.27.867 2.089-.256.611-.85.983-1.478.983-.202 0-.41-.042-.606-.122zm8.848 3.674a1.591 1.591 0 0 1-.86-2.085 1.59 1.59 0 0 1 2.083-.86c.813.34 1.196 1.27.861 2.088a1.597 1.597 0 0 1-2.084.857zm-157.799 2.072c-.579-.664-.51-1.669.15-2.248a1.596 1.596 0 0 1 2.253.143c.58.665.51 1.67-.15 2.254a1.596 1.596 0 0 1-2.254-.149zm166.643 1.6a1.592 1.592 0 0 1-.86-2.084 1.598 1.598 0 0 1 2.083-.86 1.595 1.595 0 1 1-1.222 2.945zm8.855 3.652a1.603 1.603 0 0 1-.872-2.084 1.596 1.596 0 0 1 2.955 1.212 1.6 1.6 0 0 1-2.083.872zm-182.556 1.212a1.595 1.595 0 0 1 .075-2.254 1.59 1.59 0 0 1 2.253.08 1.59 1.59 0 0 1-.074 2.248 1.591 1.591 0 0 1-2.254-.074zM691.21 63.14a1.598 1.598 0 0 1-.887-2.073 1.597 1.597 0 0 1 2.078-.887 1.597 1.597 0 1 1-.6 3.077c-.198 0-.4-.037-.59-.117zm-541.305 1.808a1.593 1.593 0 0 1-.18-2.249 1.587 1.587 0 0 1 2.243-.18c.674.568.754 1.573.185 2.243a1.596 1.596 0 0 1-2.248.186zm550.218 1.732a1.585 1.585 0 0 1-.903-2.062 1.584 1.584 0 0 1 2.062-.904 1.585 1.585 0 0 1 .903 2.063 1.586 1.586 0 0 1-2.062.903zm-207.217.734a1.59 1.59 0 0 1 .012-2.254 1.59 1.59 0 0 1 2.253.01 1.6 1.6 0 0 1-.011 2.255 1.593 1.593 0 0 1-2.254-.011zm216.167 2.716a1.593 1.593 0 1 1 1.127-2.982 1.597 1.597 0 0 1-.563 3.089c-.186 0-.378-.038-.564-.107zm-551.408.686h.005a1.598 1.598 0 0 1-.425-2.217 1.597 1.597 0 0 1 2.216-.42 1.596 1.596 0 0 1-.898 2.913c-.308 0-.622-.09-.898-.276zm560.417 2.636a1.596 1.596 0 1 1 2.041-.962 1.595 1.595 0 0 1-1.504 1.053c-.175 0-.356-.027-.537-.09zm-231.856.824a1.595 1.595 0 0 1-.048-2.253 1.595 1.595 0 1 1 .048 2.254zM165.87 75.951a1.596 1.596 0 0 1 1.6-2.759c.76.441 1.02 1.414.579 2.18a1.602 1.602 0 0 1-2.18.58zm561.294.648v-.005a1.595 1.595 0 0 1-1.01-2.015 1.6 1.6 0 0 1 2.02-1.01 1.591 1.591 0 0 1 1.005 2.02 1.591 1.591 0 0 1-2.015 1.01zm8.961 3.174a1.595 1.595 0 0 1-.935-2.052 1.604 1.604 0 0 1 2.057-.936 1.594 1.594 0 0 1 .93 2.052 1.59 1.59 0 0 1-2.052.936zm-561.773.776a1.591 1.591 0 0 1-.696-2.142 1.596 1.596 0 0 1 2.844 1.445 1.6 1.6 0 0 1-2.148.697zm305.394.776a1.596 1.596 0 0 1-.117-2.254c.59-.654 1.6-.706 2.253-.112a1.59 1.59 0 0 1-1.068 2.775c-.383 0-.76-.133-1.068-.41zm265.218 1.95a1.601 1.601 0 0 1-.856-2.088 1.596 1.596 0 1 1 1.472 2.211c-.206 0-.414-.043-.616-.122zm-561.943 1.473a1.596 1.596 0 0 1 1.334-2.897 1.598 1.598 0 0 1 .781 2.116 1.602 1.602 0 0 1-2.115.781zm570.665 2.334a1.595 1.595 0 0 1-.787-2.116 1.588 1.588 0 0 1 2.11-.787 1.59 1.59 0 0 1 .787 2.11 1.588 1.588 0 0 1-2.11.793zm-561.864 1.546v-.005a1.595 1.595 0 0 1-.85-2.089 1.595 1.595 0 1 1 .85 2.094zm281.663-.058a1.592 1.592 0 0 1-.186-2.243 1.594 1.594 0 1 1 .186 2.243zm288.79 2.6a1.595 1.595 0 0 1 1.42-2.854 1.599 1.599 0 0 1 .721 2.136 1.598 1.598 0 0 1-1.43.887 1.56 1.56 0 0 1-.712-.17zm-561.56 1.084a1.595 1.595 0 1 1 1.17-2.967 1.595 1.595 0 0 1-1.17 2.967zm570.026 3.275a1.596 1.596 0 0 1 1.504-2.818 1.596 1.596 0 0 1-.755 3.003c-.249 0-.51-.058-.749-.185zm-561.055.148a1.6 1.6 0 0 1-.946-2.052 1.596 1.596 0 0 1 2.992 1.111 1.596 1.596 0 0 1-2.046.94zm257.192-.218c-.584-.66-.52-1.67.139-2.249a1.592 1.592 0 0 1 2.248.139 1.592 1.592 0 0 1-1.195 2.647c-.437 0-.878-.18-1.192-.537zM218.711 98.93a1.594 1.594 0 1 1 1.058-3.009 1.59 1.59 0 0 1 .973 2.031 1.59 1.59 0 0 1-2.03.978zm560.375 1.196a1.6 1.6 0 0 1-.6-2.174 1.595 1.595 0 1 1 1.387 2.381c-.266 0-.537-.069-.787-.207zm-320.062.787a1.594 1.594 0 1 1 2.705-1.69c.468.744.24 1.727-.505 2.2h-.005a1.597 1.597 0 0 1-2.195-.51zm-231.24 1.127h-.005a1.6 1.6 0 0 1-1.004-2.02 1.596 1.596 0 1 1 1.01 2.02zm9.104 2.992a1.596 1.596 0 0 1-1.03-2.009 1.597 1.597 0 0 1 2.008-1.026 1.592 1.592 0 0 1 1.026 2.004 1.58 1.58 0 0 1-1.515 1.106c-.164 0-.33-.022-.489-.075zm550.426-.095a1.598 1.598 0 0 1-.547-2.19 1.593 1.593 0 1 1 2.731 1.643 1.585 1.585 0 0 1-2.184.547zm-336.74.457a1.592 1.592 0 1 1 2.86-1.404c.387.792.063 1.75-.73 2.132v.005a1.63 1.63 0 0 1-.7.16c-.59 0-1.154-.324-1.43-.893zm-204.55 2.525a1.588 1.588 0 0 1-1.046-1.994 1.59 1.59 0 0 1 1.993-1.052 1.599 1.599 0 0 1 1.052 1.998 1.603 1.603 0 0 1-1.525 1.122c-.154 0-.314-.021-.473-.074zm195.753 1.254c-.33-.818.07-1.743.888-2.073a1.587 1.587 0 0 1 2.073.882 1.59 1.59 0 0 1-.883 2.074 1.603 1.603 0 0 1-2.078-.882zm353.658.76a1.597 1.597 0 0 1-.5-2.2 1.586 1.586 0 0 1 2.196-.495c.744.468.973 1.451.504 2.196a1.599 1.599 0 0 1-2.2.5zm-540.247.787a1.603 1.603 0 0 1-1.069-1.988 1.595 1.595 0 0 1 1.988-1.063 1.595 1.595 0 1 1-.919 3.051zm177.58 1.68a1.591 1.591 0 0 1 1.005-2.02 1.595 1.595 0 0 1 2.02 1 1.597 1.597 0 0 1-3.024 1.02zm-168.396 1.047a1.605 1.605 0 0 1-1.085-1.983 1.596 1.596 0 1 1 1.531 2.047c-.143 0-.298-.022-.446-.064zm539.094 1.642a1.596 1.596 0 0 1-.463-2.21 1.59 1.59 0 0 1 2.206-.463 1.59 1.59 0 0 1 .463 2.206 1.585 1.585 0 0 1-1.335.723c-.297 0-.6-.086-.871-.256zm-529.889 1.016h-.005a1.601 1.601 0 0 1-1.095-1.972 1.6 1.6 0 0 1 1.972-1.1 1.596 1.596 0 0 1-.872 3.072zm150.034-.936a1.592 1.592 0 0 1 1.095-1.972 1.6 1.6 0 0 1 1.972 1.095 1.596 1.596 0 0 1-3.067.877zm-140.813 3.53a1.593 1.593 0 1 1 .846-3.073 1.587 1.587 0 0 1 1.116 1.956 1.596 1.596 0 0 1-1.962 1.117zm131.544-1.154a1.586 1.586 0 0 1 1.174-1.924 1.594 1.594 0 1 1-1.175 1.924zm397.096 2.807a1.594 1.594 0 1 1 2.212-.441 1.594 1.594 0 0 1-1.329.712c-.304 0-.612-.09-.883-.271zm-406.456-.792a1.592 1.592 0 0 1 1.25-1.877 1.6 1.6 0 0 1 1.88 1.244 1.605 1.605 0 0 1-1.567 1.914c-.744 0-1.409-.521-1.563-1.28zm-112.819 1.456a1.593 1.593 0 1 1 .691-3.11 1.594 1.594 0 0 1-.345 3.153c-.112 0-.228-.016-.346-.043zm103.401.234a1.595 1.595 0 1 1 1.834 1.313v-.005a1.453 1.453 0 0 1-.266.026c-.76 0-1.435-.552-1.568-1.334zm-93.95 1.648a1.588 1.588 0 0 1-1.292-1.845 1.601 1.601 0 0 1 1.85-1.297v.006a1.589 1.589 0 0 1 1.29 1.844 1.599 1.599 0 0 1-1.573 1.319c-.09 0-.18-.006-.276-.027zm84.48-.271a1.593 1.593 0 0 1 1.365-1.791 1.592 1.592 0 1 1 .425 3.157 1.593 1.593 0 0 1-1.791-1.366zm-74.957 1.749a1.596 1.596 0 1 1 0 0zm65.448-.675a1.593 1.593 0 0 1 1.424-1.749 1.594 1.594 0 1 1 .324 3.173c-.053.005-.111.005-.164.005a1.595 1.595 0 0 1-1.584-1.429zm-55.88 1.775h-.006a1.596 1.596 0 1 1 .303-3.179c.877.085 1.52.861 1.435 1.738a1.589 1.589 0 0 1-1.584 1.446c-.048 0-.101-.005-.149-.005zm498.679.202a1.592 1.592 0 0 1-.436-2.211 1.592 1.592 0 0 1 2.211-.436c.734.489.93 1.483.436 2.211a1.578 1.578 0 0 1-1.323.707c-.309 0-.617-.085-.888-.271zm-452.34-1.2a1.595 1.595 0 1 1 1.707 1.476h-.117c-.83 0-1.53-.643-1.59-1.477zm-36.746 1.737a1.594 1.594 0 1 1 1.685-1.494 1.598 1.598 0 0 1-1.59 1.5c-.032 0-.064 0-.095-.006zm27.19-1.265a1.589 1.589 0 0 1 1.531-1.653 1.59 1.59 0 0 1 1.653 1.53 1.588 1.588 0 0 1-1.53 1.654h-.064c-.85 0-1.557-.675-1.59-1.531zm-17.576 1.675a1.602 1.602 0 0 1-1.557-1.638 1.589 1.589 0 0 1 1.637-1.552 1.594 1.594 0 0 1-.043 3.19h-.037zm8.01-1.5a1.592 1.592 0 0 1 1.584-1.605c.876-.01 1.6.702 1.605 1.579a1.6 1.6 0 0 1-1.584 1.61h-.01c-.878 0-1.59-.707-1.595-1.584zm479.45 5.864a1.597 1.597 0 0 1-.462-2.212 1.592 1.592 0 0 1 2.205-.457 1.59 1.59 0 0 1 .463 2.206 1.602 1.602 0 0 1-1.34.723c-.297 0-.6-.085-.866-.26zm8.137 5.14a1.587 1.587 0 0 1-.542-2.185c.452-.755 1.435-1 2.19-.542h-.005a1.592 1.592 0 1 1-1.643 2.726zm8.515 4.661a1.596 1.596 0 1 1 2.131-.734 1.588 1.588 0 0 1-1.43.894 1.63 1.63 0 0 1-.701-.16zm7.712 5.013a1.59 1.59 0 0 1-.25-2.238 1.59 1.59 0 0 1 2.237-.255h.006a1.6 1.6 0 0 1 .25 2.243c-.32.393-.782.6-1.25.6-.35 0-.7-.116-.993-.35zm6.925 6.32a1.601 1.601 0 0 1 .021-2.26 1.594 1.594 0 0 1 2.254.022v.005a1.59 1.59 0 0 1-.022 2.254 1.59 1.59 0 0 1-2.253-.021zm6.34 7.011a1.594 1.594 0 0 1 .192-2.248 1.594 1.594 0 0 1 2.249.191c.562.675.477 1.68-.192 2.249a1.608 1.608 0 0 1-2.248-.192zm5.927 7.42a1.595 1.595 0 1 1 2.535-1.935 1.595 1.595 0 0 1-2.535 1.936zm5.633 7.676a1.589 1.589 0 0 1 .378-2.221 1.593 1.593 0 1 1 1.844 2.599 1.582 1.582 0 0 1-2.222-.377zm5.432 7.846a1.596 1.596 0 1 1 2.636-1.795 1.596 1.596 0 0 1-2.636 1.795zm5.326 7.942a1.598 1.598 0 0 1 .446-2.212 1.593 1.593 0 1 1 .883 2.919c-.516 0-1.02-.25-1.33-.707zm5.33 7.973h-.005a1.603 1.603 0 0 1 .43-2.217 1.598 1.598 0 0 1 2.217.431 1.603 1.603 0 0 1-.43 2.217c-.277.18-.585.27-.893.27-.51 0-1.015-.244-1.318-.7zm5.507 7.91a1.594 1.594 0 0 1 2.572-1.882h.006a1.601 1.601 0 0 1-.346 2.227 1.6 1.6 0 0 1-2.232-.346zm5.267 7.622a1.595 1.595 0 0 1 2.87-1.387 1.596 1.596 0 0 1-.744 2.131 1.594 1.594 0 0 1-.691.154 1.59 1.59 0 0 1-1.435-.898zm2.163 8.6a1.593 1.593 0 1 1 3.184-.159 1.597 1.597 0 0 1-1.51 1.675h-.085a1.593 1.593 0 0 1-1.589-1.515zm.064 10.919a1.594 1.594 0 0 1 .845-3.072 1.587 1.587 0 0 1 1.116 1.956 1.602 1.602 0 0 1-1.536 1.174c-.138 0-.282-.02-.425-.058zm-3.97 8.69a1.594 1.594 0 0 1-.633-2.163 1.588 1.588 0 0 1 2.163-.632 1.592 1.592 0 0 1 .633 2.163c-.293.527-.84.83-1.403.83-.255 0-.521-.064-.76-.197zm-5.592 7.756a1.595 1.595 0 0 1 2.01-2.477 1.6 1.6 0 0 1 .233 2.243 1.59 1.59 0 0 1-2.243.234zm-6.739 6.783a1.596 1.596 0 0 1 2.355-2.153c.59.649.547 1.659-.1 2.254a1.584 1.584 0 0 1-1.08.415c-.43 0-.861-.17-1.175-.516zm-7.595 5.81a1.599 1.599 0 0 1 .388-2.222 1.594 1.594 0 0 1 2.222.393 1.594 1.594 0 1 1-2.61 1.829zm-8.052 5.161a1.594 1.594 0 0 1 .388-2.222 1.594 1.594 0 1 1 .92 2.897c-.505 0-1-.233-1.308-.675zm-6.649 6.826a1.596 1.596 0 0 1-.234-2.244 1.595 1.595 0 1 1 .234 2.243zm-4.81 8.25a1.597 1.597 0 0 1-.723-2.138 1.601 1.601 0 0 1 2.142-.722 1.595 1.595 0 0 1-.712 3.025c-.24 0-.478-.054-.707-.166zm-3.438 8.93a1.598 1.598 0 0 1-.984-2.031v.005a1.593 1.593 0 0 1 2.026-.988 1.596 1.596 0 0 1-.516 3.104c-.176 0-.351-.032-.526-.09zm-2.94 9.11a1.588 1.588 0 0 1-1.015-2.009 1.593 1.593 0 0 1 3.025 1 1.589 1.589 0 0 1-1.51 1.095c-.17 0-.335-.027-.5-.086zm-3.88 8.734a1.596 1.596 0 0 1-.62-2.169 1.597 1.597 0 0 1 2.79 1.552v-.005c-.293.526-.84.824-1.399.824-.26 0-.526-.064-.77-.202zm-7.376 5.746a1.59 1.59 0 0 1 .86-2.084 1.595 1.595 0 1 1 .611 3.067 1.594 1.594 0 0 1-1.471-.983zm-9.514.622a1.593 1.593 0 1 1 3.173-.303 1.593 1.593 0 0 1-1.435 1.738c-.053.006-.101.006-.154.006a1.593 1.593 0 0 1-1.584-1.44zm-9.115 2.807a1.597 1.597 0 0 1 .855-2.09 1.595 1.595 0 1 1 .617 3.068 1.59 1.59 0 0 1-1.472-.978zm-8.063 5.118a1.599 1.599 0 0 1 .319-2.232 1.594 1.594 0 1 1-.319 2.232zm-6.819 6.703a1.596 1.596 0 0 1 2.137-2.37c.648.59.701 1.6.111 2.253-.313.346-.75.527-1.185.527-.377 0-.76-.139-1.063-.41zm-5.613 7.745a1.596 1.596 0 1 1 1.742-2.674 1.596 1.596 0 0 1-1.742 2.674zm-4.384 8.5a1.592 1.592 0 0 1-.798-2.11h.006a1.593 1.593 0 1 1 1.445 2.253c-.217 0-.44-.042-.653-.143zm-3.78 8.76a1.593 1.593 0 1 1 1.621-2.743 1.6 1.6 0 0 1 .564 2.185c-.303.5-.834.781-1.376.781-.277 0-.558-.074-.808-.223zm-6.871 6.628a1.59 1.59 0 0 1 .255-2.238 1.586 1.586 0 0 1 2.237.256 1.59 1.59 0 0 1-1.243 2.583c-.473 0-.936-.202-1.25-.6zm-8.18 4.97a1.6 1.6 0 0 1 .648-2.163 1.601 1.601 0 0 1 2.164.648 1.594 1.594 0 0 1-1.403 2.35 1.604 1.604 0 0 1-1.408-.835zm-8.764 3.844a1.6 1.6 0 0 1 .898-2.073 1.593 1.593 0 0 1 2.068.898 1.592 1.592 0 0 1-.893 2.068c-.196.08-.394.117-.59.117a1.6 1.6 0 0 1-1.483-1.01zm-9.115 2.923a1.596 1.596 0 1 1 3.07-.876 1.596 1.596 0 0 1-3.07.876zm-9.35 2.036a1.593 1.593 0 1 1 1.563 1.308 1.588 1.588 0 0 1-1.562-1.308zm-28.625.904a1.596 1.596 0 0 1 3.178-.271 1.592 1.592 0 0 1-1.456 1.722c-.048.005-.09.01-.138.01a1.595 1.595 0 0 1-1.584-1.461zm10.996 1.456a1.593 1.593 0 0 1-1.44-1.733c.075-.877.85-1.52 1.733-1.44a1.593 1.593 0 1 1-.144 3.179c-.047 0-.095 0-.149-.006zm8.111-1.35a1.595 1.595 0 1 1 1.695 1.488c-.037 0-.069.006-.106.006a1.594 1.594 0 0 1-1.589-1.494zm-28.498 1.696a1.594 1.594 0 0 1 1.174-1.925 1.587 1.587 0 0 1 1.924 1.17 1.595 1.595 0 0 1-1.17 1.93 1.6 1.6 0 0 1-1.93-1.175zm-9.041 3.11a1.594 1.594 0 1 1 2.067.898v.005a1.6 1.6 0 0 1-.584.106 1.589 1.589 0 0 1-1.483-1.01zm-8.573 4.23a1.592 1.592 0 1 1 2.796-1.525c.42.77.138 1.738-.638 2.163a1.61 1.61 0 0 1-.76.192c-.564 0-1.111-.298-1.398-.83zm-8.004 5.247a1.603 1.603 0 0 1 .367-2.227 1.597 1.597 0 0 1 2.226.367 1.598 1.598 0 0 1-1.291 2.525c-.5 0-.989-.235-1.302-.665zm-7.255 6.23a1.595 1.595 0 1 1 2.254.064h.005a1.606 1.606 0 0 1-1.1.435c-.42 0-.845-.164-1.159-.5zm-6.883 6.639a1.587 1.587 0 0 1 .128-2.249 1.586 1.586 0 0 1 2.248.128 1.59 1.59 0 0 1-1.185 2.652c-.441 0-.877-.175-1.19-.531zm-7.425 6.044a1.596 1.596 0 1 1 2.243.265 1.604 1.604 0 0 1-2.243-.265zm-7.616 5.794a1.595 1.595 0 1 1 2.554-1.914 1.595 1.595 0 0 1-2.554 1.914zm-7.648 5.751a1.599 1.599 0 0 1 .314-2.232 1.6 1.6 0 0 1 2.232.313 1.594 1.594 0 1 1-2.546 1.92zm-7.573 5.853a1.597 1.597 0 0 1 .27-2.238 1.603 1.603 0 0 1 2.243.27 1.596 1.596 0 0 1-2.513 1.968zm-7.404 6.06a1.594 1.594 0 1 1 2.445-2.047 1.594 1.594 0 0 1-2.445 2.046zm-7.133 6.378a1.596 1.596 0 0 1 .085-2.254 1.6 1.6 0 0 1 2.254.085c.6.649.558 1.66-.085 2.254v.005a1.6 1.6 0 0 1-1.085.42c-.43 0-.855-.17-1.169-.51zm-6.59 6.926a1.597 1.597 0 0 1-.181-2.248 1.598 1.598 0 0 1 2.248-.181 1.598 1.598 0 0 1-1.036 2.812c-.362 0-.728-.128-1.03-.383zm-5.145 8.053a1.6 1.6 0 0 1-.638-2.163 1.588 1.588 0 0 1 2.163-.638 1.593 1.593 0 0 1-.76 2.993c-.26 0-.52-.059-.765-.192zm-3.3 8.963a1.593 1.593 0 0 1 .877-3.062 1.592 1.592 0 1 1-.878 3.062zm-1.292 9.472a1.593 1.593 0 0 1-1.488-1.69 1.591 1.591 0 0 1 1.69-1.494 1.597 1.597 0 0 1-.101 3.189c-.032 0-.064-.005-.101-.005zm-.91 8.303v.005a1.602 1.602 0 0 1 1.186-1.924 1.597 1.597 0 0 1 1.919 1.185 1.597 1.597 0 0 1-1.552 1.962 1.599 1.599 0 0 1-1.552-1.228z"/>
        </g>
        <g fill="#D8DBE1">
            <path d="M707.94 490.475h4.675l-2.248-3.136h-7.459c-3.466-1.052-9.07-2.104-17.625-2.104l2.952 2.104h-8.425l-2.248 3.136h30.377zM684.993 493.726c.8 0 1.445.701 1.445 1.565 0 .862-.646 1.565-1.445 1.565-.8 0-1.446-.703-1.446-1.565 0-.864.647-1.565 1.446-1.565zm5.906 0c.8 0 1.447.701 1.447 1.565 0 .862-.647 1.565-1.447 1.565-.799 0-1.445-.703-1.445-1.565 0-.864.646-1.565 1.445-1.565zm5.96 0c.801 0 1.447.701 1.447 1.565 0 .862-.646 1.565-1.447 1.565-.8 0-1.443-.703-1.443-1.565 0-.864.644-1.565 1.443-1.565zm5.907 0c.798 0 1.446.701 1.446 1.565 0 .862-.648 1.565-1.446 1.565-.799 0-1.447-.703-1.447-1.565 0-.864.648-1.565 1.447-1.565zm-21.069 5.401l.332-.315H705.69l1.624-1.542V495.773l.002-1.268v-.001h2.174l1.173.001h4.113v-.001h2.175l1.173.001h4.067l-2.427-2.978h-37.189l-4.654 5.51h-7.869l-4.964 4.242h14.341l2.267-2.152z"/>
            <path d="M738.332 495.772h-29.844v.942h.001v1.13h-.001l-2.126 2.017-.23.22h-23.661l-2.6 2.466H660.762l-3.296 1.896h76.063l5.806-6.592v-2.079zM654.34 506.24l-1.58.91h78.384l1.416-1.608h-77.006z"/>
        </g>
        <path fill="#D8DBE1" d="M562.109 531l-1.414-1.413c.158-3.24.53-6.469.867-9.698-4.877-4.1-9.799-8.191-14.373-12.637l-19.423 22.955L526 528.44c1.84-3.998 3.836-7.917 5.803-11.856l-1.388-1.387a1.248 1.248 0 1 1 1.766-1.766l.799.8 2.38-4.683-1.415-1.412a1.249 1.249 0 1 1 1.765-1.767l.84.837c.874-1.796 1.841-3.55 2.723-5.347.827-1.687.248-.825.851-1.67-3.524-3.64-7.08-7.275-10.258-11.225-1.026-1.27-2.486-2.876-2.935-4.54-.228-1.257-.117-2.706.835-3.657.95-.954 2.4-1.064 3.657-.837 2.755.5 14.001 11.429 15.766 13.197 4.647-2.418 2.323-1.213 6.975-3.62l-.796-.797a1.248 1.248 0 1 1 1.766-1.764l1.364 1.362 4.673-2.387-.741-.741a1.248 1.248 0 1 1 1.766-1.766l1.314 1.313.04-.02c3.914-2.017 7.837-3.99 11.89-5.707l1.765 1.767c-7.062 5.937-7.366 6.23-14.487 12.095-2.884 2.376-5.824 4.674-8.474 7.318 4.317 4.641 8.446 9.452 12.443 14.372 3.288-.225 6.588-.984 9.898-.856L578 515.11c-2.287 1.722-4.958 2.895-7.265 4.575-1.2.874-2.19 2.048-3.23 3.092L562.11 531z"/>
        <text fill="#FFF" font-family="DaxlinePro-Regular, DaxlinePro" font-size="24">
            <tspan x="439" y="511">Airport</tspan>
        </text>
    </g>
</svg>
