<svg xmlns="http://www.w3.org/2000/svg" width="81" height="150" viewBox="0 0 81 150">
    <g fill="#FFF" fill-rule="evenodd">
        <path d="M39.055 18.685c1.635 0 3.27.009 4.904-.003 1.177-.007 2.04-.447 2.049-1.77.01-1.334-.902-1.79-2.04-1.804-3.148-.04-6.296-.03-9.444-.017-1.18.005-2.083.547-2.082 1.789.001 1.232.881 1.787 2.073 1.798 1.513.014 3.027.003 4.54.007M35.501 7.84c.039 4.345-.468 3.892 3.872 3.922.485.004.97-.022 1.454-.004 1.056.04 1.567-.426 1.548-1.512a138.84 138.84 0 0 1-.002-4.727c.017-1.068-.552-1.575-1.532-1.633-.658-.038-1.328.028-1.984.113-3.357.436-3.356.443-3.356 3.841M55.78 61.644c.012-.192-.221-.398-.466-.566-1.6-1.1-3.277-2.102-4.8-3.3-2.187-1.72-4.501-3.402-4.56-6.635-.02-1.027-.876-1.01-1.617-1.012-2.61-.008-5.222.057-7.83-.03-1.405-.048-2.144.355-2.258 1.86-.074.966-.635 1.804-1.195 2.62-1.412 2.059-3.425 3.405-5.426 4.787-1.057.73-2.253 1.318-2.914 2.28 10.328 2.61 20.646 2.598 31.066-.004M40.114 46.046c2.189 0 4.378.02 6.566-.005 2.625-.029 3.637.964 3.217 3.535-.273 1.675.283 2.879 1.521 3.822a92.528 92.528 0 0 0 5.043 3.599c3.233 2.135 5.775 4.836 7.142 8.51.475 1.279.977 1.294 1.881.363 6.889-7.097 10.846-15.534 11.154-25.442.296-9.488-3.009-17.785-9.427-24.749-5.256-5.703-11.777-9.294-19.37-10.968-1.691-.373-2.245.171-2.15 1.797a29.643 29.643 0 0 1-.002 3.464c-.071 1.212.312 1.995 1.424 2.658 2.049 1.222 2.78 3.57 2.083 5.895-.62 2.068-2.346 3.436-4.625 3.473-3.525.058-7.053.056-10.579.003-2.211-.034-4.026-1.387-4.701-3.417-.703-2.113-.261-4.084 1.44-5.45 1.221-.983 1.55-2.048 1.456-3.463-.06-.908-.07-1.828.001-2.735.126-1.565-.335-2.04-1.974-1.556-6.895 2.037-12.777 5.692-17.453 11.11-6.733 7.805-9.823 16.866-8.292 27.18 1.178 7.937 5.064 14.63 10.337 20.562 1.645 1.85 1.679 1.818 2.855-.41.6-1.136 1.35-2.158 2.213-3.112 1.937-2.139 4.265-3.775 6.618-5.409 2.288-1.588 4.257-3.354 3.936-6.65-.175-1.806.882-2.58 2.756-2.598 2.31-.022 4.62-.005 6.93-.007M44.702.002c15.403-.228 32.923 14.72 35.607 35.11.994 7.55-.45 14.762-3.17 21.77-4.286 11.051-10.694 20.853-17.87 30.197-4.523 5.888-9.417 11.45-14.575 16.79-1.227 1.27-2.026 1.376-3.416.105-9.036-8.266-17.612-16.951-24.909-26.818C9.71 68.152 3.985 58.638 1.279 47.623c-3.331-13.557-.167-25.533 9.629-35.414C18.955 4.092 28.926.016 44.702.002M3.328 138.44c0 1.538.015 3.075-.004 4.612-.016 1.213-.259 1.41-1.605 1.408-1.335-.001-1.586-.2-1.591-1.423-.015-3.549-.016-7.098.002-10.646.004-.639-.21-1.433.765-1.65 1.333-.295 2.367.025 2.809.943.886 1.84 1.739 3.696 2.605 5.546.107.227.202.46.326.678.156.27.2.723.553.726.432.003.453-.493.598-.797.975-2.036 1.92-4.087 2.903-6.119.448-.927 2.223-1.396 3.068-.86.322.205.357.523.357.847.005 3.907.001 7.814.006 11.721.002 1.185-.856 1.012-1.596 1.033-.76.021-1.467 0-1.452-1.074.025-1.644.007-3.29.007-5.166-.625.63-.813 1.272-1.109 1.835-.616 1.175-1.2 2.366-1.801 3.548-.215.421-.442.86-1.008.83-.502-.025-.713-.43-.91-.818-.89-1.748-1.775-3.499-2.662-5.248l-.26.075M31.53 134.85c-.153.963.101 1.504 1.228 1.446 1.37-.071 1.988-.446 1.97-1.414-.015-.94-.606-1.32-1.898-1.387-1.028-.053-1.502.308-1.3 1.355m1.6 4.034c-1.54-.012-1.608.04-1.624 1.256-.02 1.433.045 1.506 1.36 1.515 1.62.012 2.26-.39 2.275-1.433.013-.93-.583-1.326-2.011-1.338m-4.847-1.253c-.001-1.898.018-3.795-.01-5.693-.013-.86.324-1.247 1.202-1.23 1.575.029 3.152-.04 4.725.022 2.979.117 4.67 3.145 3.192 5.745-.377.664-.41 1.094.088 1.7 1.013 1.23.998 2.653.418 4.053-.613 1.48-1.842 2.165-3.395 2.212-1.717.051-3.437.006-5.155.019-.784.005-1.076-.388-1.07-1.136.016-1.897.005-3.795.005-5.692M17.898 136.075c.923-.183 1.507.328 1.86 1.317.264.737.667 1.425 1.02 2.129.107.216.158.55.435.561.353.015.39-.372.514-.607.434-.822.83-1.666 1.264-2.489.428-.811 2.023-1.27 2.804-.819.503.29.265.684.098 1.025a347.683 347.683 0 0 1-2.303 4.61c-1.201 2.36-2.413 4.715-3.625 7.069-.444.862-2.034 1.342-2.863.87-.521-.298-.236-.679-.07-1.016.725-1.477 1.44-2.962 2.213-4.414.338-.633.349-1.162.016-1.807-.851-1.654-1.63-3.344-2.446-5.017-.63-1.293-.555-1.413 1.083-1.412M77.95 141.04c-.643 0-1.287-.008-1.93.003-.242.005-.552-.044-.648.251-.103.32.127.555.369.707.801.501 1.678.463 2.458.054.846-.442 1.388-.192 1.758.546.433.862-.299 1.135-.867 1.41-2.469 1.19-5.35.378-6.45-1.797-.803-1.585-.59-3.39.555-4.71 1.271-1.465 3.098-1.946 4.962-1.307 1.49.512 2.448 1.924 2.579 3.746.052.722-.23 1.086-.963 1.084-.608-.002-1.215 0-1.823 0v.013M44.672 142.264c.938-.006 1.646-.873 1.638-2.006-.008-1.167-.695-1.998-1.65-1.998-.917 0-1.657.897-1.658 2.009-.001 1.108.747 2.002 1.67 1.995m-.079 2.233c-2.582-.013-4.309-1.75-4.293-4.315.014-2.432 1.848-4.241 4.318-4.26 2.43-.02 4.547 2.043 4.51 4.394-.037 2.398-1.986 4.195-4.535 4.181M62.625 144.497c-2.155.01-3.058-.837-3.15-2.822-.03-.643-.014-1.288-.009-1.932.005-.58-.006-1.074-.657-1.432-.608-.334-.607-1.67.003-2.07.542-.355.694-.763.653-1.332-.085-1.19.71-1.193 1.555-1.192.814 0 1.57.032 1.474 1.153-.072.847.229 1.268 1.142 1.223.828-.041.985.55.978 1.226-.008.654-.228 1.162-.98 1.118-.917-.054-1.213.376-1.14 1.225.04.462-.008.93.014 1.395.047 1.049.324 1.3 1.325.996.796-.241.92.288 1.133.772.243.555.252 1.044-.41 1.333-.674.293-1.382.35-1.93.339M54.786 144.497c-2.195.017-3.056-.826-3.086-2.908a83.071 83.071 0 0 1-.002-1.93c.004-.55-.031-.997-.64-1.329-.641-.35-.64-1.782.002-2.132.61-.332.666-.783.635-1.328-.053-.925.456-1.179 1.268-1.15.826.03 1.774-.113 1.75 1.142-.017.838.247 1.255 1.154 1.244.805-.01.821.63.824 1.231.003.602-.142 1.12-.86 1.092-.952-.037-1.16.474-1.103 1.278.028.392 0 .787.006 1.18.02 1.267.112 1.378 1.353 1.142.746-.142.828.379 1.02.82.223.506.256.975-.357 1.258a4.383 4.383 0 0 1-1.964.39M70.04 137.584c0 1.898-.022 3.796.01 5.694.014.897-.399 1.224-1.242 1.185-.813-.038-1.78.15-1.785-1.114-.016-3.903-.005-7.806-.005-11.71 0-.67.348-.928 1.005-.97 1.896-.124 2.018-.03 2.019 1.866.001 1.683 0 3.366-.001 5.05M22.571 113.944v-.008c-.214 0-.43.022-.642-.004-.998-.121-1.405.257-1.378 1.313.05 1.902-.003 1.904 1.854 1.902.428 0 .86.02 1.283-.028.91-.1 1.397-.73 1.336-1.734-.051-.856-.44-1.423-1.382-1.44-.357-.007-.714-.001-1.07-.001m-5.05 3.948c0-1.79.034-3.58-.014-5.37-.026-.996.308-1.44 1.357-1.41 1.825.054 3.652.038 5.477.008 1.498-.024 2.525.746 3.248 1.934 1.048 1.719.615 4.726-.914 6.018-.714.605-.72 1.078-.278 1.802.577.946 1.058 1.95 1.595 2.92.312.565.205.84-.474.919-1.962.228-2.304.06-3.194-1.708-.386-.768-.791-1.526-1.159-2.302-.242-.512-.601-.735-1.176-.752-1.27-.036-1.407.07-1.417 1.367-.006.787-.022 1.575 0 2.362.02.72-.284 1.013-1.017 1.044-1.904.08-2.033-.015-2.034-1.891-.002-1.647 0-3.294 0-4.94M45.23 108.535c.59-.031 1.268.036 1.897.331.443.208 1.064.413.825 1.047-.23.613-.557 1.297-1.442 1.189-.32-.039-.632-.137-.95-.168-.786-.078-1.275.307-1.313 1.074-.062 1.252-.04 2.507-.038 3.761 0 .648.462.74.965.72.754-.028 1.005.36.995 1.063-.011.697-.044 1.351-.978 1.319-.838-.03-1.024.428-1.008 1.151.026 1.182-.02 2.366.008 3.548.032 1.315-.892 1.11-1.708 1.15-.844.043-1.39-.146-1.34-1.164.053-1.073.013-2.15.01-3.225-.003-.637.062-1.225-.702-1.629-.622-.33-.519-1.772.128-2.13.522-.288.573-.67.574-1.148 0-1.003-.009-2.007.012-3.01.055-2.599 1.367-3.875 4.064-3.879M35.473 121.468c-.608 0-1.216-.008-1.823.003-.24.005-.558-.05-.632.262-.065.269.17.457.362.615.736.61 1.539.417 2.339.168.305-.094.602-.3.905-.305.594-.01.836.501 1.041.946.199.43-.057.764-.42.986-2.424 1.48-6.661 1.057-7.37-2.817-.434-2.367 1.355-4.643 3.903-4.992 2.4-.328 4.335 1.238 4.593 3.716.116 1.114-.13 1.387-1.29 1.41-.535.01-1.072.002-1.608.002v.006zM63.344 117.912c0 1.824.01 3.648-.004 5.472-.01 1.238-.146 1.3-1.611 1.343-.946.029-1.453-.18-1.438-1.289.051-3.719.014-7.439.023-11.158.003-1.223.16-1.35 1.484-1.354 1.388-.004 1.536.121 1.543 1.407.01 1.86.003 3.72.003 5.58M54.72 117.842c0-1.897.029-3.795-.013-5.69-.02-.96.417-1.266 1.303-1.233.85.03 1.723-.052 1.722 1.19-.004 3.866.009 7.732-.008 11.597-.006 1.359-1.074.93-1.819 1.004-.774.078-1.211-.187-1.195-1.07.035-1.932.01-3.865.01-5.798M51.708 120.681c.001 1 .002 1.998 0 2.997-.001 1.257-.936 1-1.687 1.035-.731.035-1.361-.01-1.345-1.026.032-2.068.026-4.138.003-6.207-.01-.942.574-1.031 1.277-.984.73.05 1.707-.282 1.744.975.031 1.07.006 2.14.008 3.21M48.7 113.555c.049-.447-.07-1.117.392-1.328.536-.244.787.463 1.17.746.084.062.15.151.219.233.43.514.801 1.056.361 1.733-.31.477-.812.604-1.326.452-.719-.212-.794-.84-.815-1.47-.003-.107 0-.214 0-.366"/>
        <path d="M43.905 37.387c.034 2.933-1.357 4.359-3.682 4.36-2.323.003-3.7-1.421-3.708-3.769-.007-1.973 1.049-3.591 1.709-5.341.407-1.08.857-2.143 1.32-3.2.214-.486.759-.985 1.022-.273 1.091 2.943 2.998 5.581 3.339 8.223"/>
    </g>
</svg>
