<svg xmlns="http://www.w3.org/2000/svg" xmlns:xlink="http://www.w3.org/1999/xlink" width="200" height="84" viewBox="0 0 200 84">
    <defs>
        <path id="a" d="M0 .074h65.768v83.29H0z"/>
    </defs>
    <g fill="none" fill-rule="evenodd">
        <g transform="translate(0 .292)">
            <mask id="b" fill="#fff">
                <use xlink:href="#a"/>
            </mask>
            <path fill="#FFF" d="M54.888 28.915c2.869-1.86 5.37-3.591 7.582-5.694.772-.733 1.963-1.524 1.569-2.66-.344-.99-1.693-1.044-2.706-1.185-8.26-1.151-16.218.626-24.166 2.508-.763.18-.963.625-.868 1.333.165 1.217.31 2.436.497 3.935-1.175-1.073-1.499-2.205-1.721-3.414-.07-.376.343-1.15-.523-1.066-.729.07-.679.737-.694 1.29-.03 1.126.577 2.214.228 3.594-.851-.886-1.131-1.813-.998-2.77.243-1.75-.467-1.668-1.827-1.294-8.724 2.397-15.607 7.546-21.42 14.265-2.681 3.1-4.97 6.501-6.073 10.516-.95 3.454-.66 6.669 2.497 9.028.473.353 1.008.972 1.592.638.555-.319.036-.997.04-1.517.004-.421.041-.847.113-1.262.5-2.902 2.514-4.691 4.802-6.141 1.834-1.163 3.191-2.237 3.24-4.79.048-2.442 1.223-4.835.822-7.382-.113-.717.358-.947.871-1.196 3.84-1.86 7.59-3.878 11.061-6.378.098-.07.306.011.705.039-3.525 6.07-7.864 11.341-12.02 16.793 5.555-2.358 11.402-3.735 17.013-5.934l-1.66 1.494c4.516 1.659 8.174 4.393 12.045 6.767 1.266.776 1.302-.237 1.26-1.069-.173-3.393-1.438-6.405-3.447-9.083-.92-1.227-.776-1.808.642-2.367 3.015-1.188 5.86-2.731 8.355-4.813 1.06-.885 2.788-1.806 1.917-3.5-.74-1.44-2.517-1.23-3.96-1.138-1.428.09-2.845.346-4.708.587 2.285-1.233 6.566-1.665 8.38-1.038 1.245.431 1.926 1.218 1.56 2.904M46.36 7.675c-.051.73-.824.61-1.021 1.25 1.64.3 3.077 1.434 4.856-.159.851-.763 2.456.015 3.722.034 1.274.02 2.545.208 3.82.275 2.393.125 3.487 1.34 3.275 3.672-.038.424.013.86-.055 1.277-.338 2.087.224 3.411 2.403 4.343 2.903 1.242 3.13 3.527.956 5.811-.378.397-.725.878-1.19 1.126-2.997 1.599-3.572 4.362-4.016 7.422-2.2 15.171-8.047 28.774-17.874 40.609-2.729 3.286-5.722 6.317-8.758 9.315-.951.94-1.639.962-2.57.003-2.714-2.796-5.605-5.422-8.08-8.447-.536-.654-1.037-1.188-2.083-1.2-1.082-.013-2.061-.697-2.8-1.559-.793-.924-1.707-1.788-2.301-2.83-2.089-3.665-5.28-6.081-8.71-8.364-5.939-3.951-7.54-8.907-4.26-15.27 1.86-3.607 1.947-6.805 1.098-10.558C1.212 27.526.732 20.465.525 13.4.405 9.317.46 9.431 4.56 9.043 13.235 8.223 21.467 6 28.578.68c1.077-.807 1.836-.804 2.874-.018 4.474 3.39 9.568 5.515 14.908 7.014" mask="url(#b)"/>
        </g>
        <path fill="#FFF" d="M167.54 46.078c1.13-6.89 1.942-13.863 4.486-20.448.79-2.046 2.967-3.148 4.864-2.683 1.922.472 3.06 2.358 2.833 4.694-.012.121-.026.242-.042.363-.5 3.717-.507 3.697 2.927 2.35 2.391-.938 4.64-2.134 6.81-3.499a21.35 21.35 0 0 1 7.245-2.908c1.185-.237 2.232-.17 2.893.919.607.998-.214 1.71-.734 2.43-3.654 5.057-8.29 8.687-14.51 10.062-1.183.262-2.331.704-3.473 1.123-.548.2-1.358.189-1.514.852-.17.723.639.938 1.08 1.312 3.481 2.95 7.02 5.839 9.905 9.417 2.756 3.42 5.446 6.882 6.783 11.16.226.724.763 1.625-.09 2.158-.828.517-1.464-.269-2.017-.819-5.954-5.927-12.292-11.444-18.358-17.25-1.202-1.151-1.75-1.107-2.381.456-.567 1.402-1.365 2.718-2.125 4.033-.628 1.086-1.487 1.175-2.403.32-1.172-1.094-2.31-2.218-2.18-4.042M90.396 41.864c.047-7.015 1.265-13.796 4.066-20.26.17-.39.316-.795.527-1.163.764-1.334 1.494-2.777 3.432-2.379 1.748.36 3.211 2.339 3.037 4.249a60.196 60.196 0 0 1-.863 6.138c-.269 1.363.168 1.502 1.398 1.411 2.532-.187 4.352-.973 5.048-3.748.558-2.23 1.575-4.342 2.371-6.513.766-2.089 1.566-2.562 3.741-2.168 1.751.316 2.649 1.44 2.655 3.356.008 2.326-.51 4.592-.852 6.874-.17 1.137 0 1.758 1.242 1.854.414.032.843.18 1.213.374.418.219.912.48.92 1.03.006.52-.524.617-.883.811-.319.173-.658.355-1.009.417-3.282.575-4.473 2.77-4.637 5.836-.074 1.395-.265 2.784-.424 4.173-.048.42-.112.853-.263 1.243-.5 1.29-1.198 2.545-2.686 2.708-1.538.168-2.15-1.207-2.761-2.294-1.224-2.174-.987-4.594-.969-6.964.022-2.713.026-2.615-2.629-2.181-2.356.385-3.724 1.456-4.395 3.855-.916 3.274-2.158 6.463-3.389 9.639-.385.994-.705 2.599-2.072 2.393-1.292-.195-1.23-1.745-1.473-2.868-.416-1.928-.319-3.875-.345-5.823M153.722 35.086c4.425 1.924 8.257 3.892 11.687 6.545.627.485 1.847.867 1.445 1.794-.354.818-1.535.392-2.354.374-1.054-.023-1.992-.516-2.946-.91-3.878-1.601-7.776-3.158-11.624-4.829-1.397-.606-2.228-.308-3.011.956-.928 1.496-1.992 2.914-3.074 4.306a4.318 4.318 0 0 1-5.562 1.083c-1.936-1.115-2.508-2.687-1.606-4.964 1.655-4.181 3.139-8.437 5.334-12.39.922-1.66 2.151-2.413 4.054-1.805.978.313 1.906.042 2.845-.29 2.637-.929 5.23-2.014 7.997-2.518 3.001-.547 7.065 2.086 7.78 5.023.393 1.619-.059 2.858-1.697 3.561-2.947 1.266-5.876 2.574-9.268 4.064M86.938 20.29c1.592-.018 3.454 1.465 3.896 3.083.516 1.887-.743 2.687-2.11 3.326-5.139 2.4-9.598 5.75-13.68 9.64-.395.377-.813.75-1.127 1.19-1.484 2.083-1.132 3.226 1.273 4.034 2.67.897 5.222 2.052 7.615 3.518 3.777 2.314 3.96 5.123.688 8.038-4.263 3.797-9.643 5.05-14.874 6.653-.69.212-1.22-.155-1.493-.753-.349-.764.402-.92.824-1.164 3.949-2.295 7.928-4.538 11.86-6.86.891-.526 2.387-.887 2.122-2.173-.203-.988-1.63-.794-2.535-1.023-2.362-.597-4.751-1.01-7.206-1.062-4.512-.096-7.297-3.953-6.079-8.33 1.07-3.842 3.763-6.506 6.696-8.918 3.67-3.019 7.626-5.662 11.594-8.278.768-.506 1.569-.948 2.536-.92M135.92 25.603c-.069 1.722-.958 4.023-1.501 6.387-1.067 4.646-.484 9.178.515 13.723.121.55.556 1.34-.13 1.637-.637.275-.98-.568-1.38-.979-1.807-1.861-3.064-4.083-4.076-6.452-.99-2.318-3.7-2.765-5.333-.813-.616.737-1.066 1.63-1.5 2.497-.55 1.1-1.2 2.111-2.04 3.013-.874.937-1.923 1.428-3.103.832-1.204-.606-1.78-1.777-1.395-3.08.86-2.91 1.359-6.023 2.99-8.586 2.489-3.908 4.797-7.917 7.222-11.859 1.56-2.536 2.814-3.049 5.267-2.342 2.794.805 4.473 2.79 4.464 6.022M138.84 58.597h-.05c0 .605-.024 1.211.007 1.815.03.58-.187 1.302.494 1.625.665.316 1.314-.026 1.878-.374 1.397-.86 1.802-4.6.63-5.778-.643-.645-1.472-.912-2.337-.64-.852.267-.563 1.095-.613 1.72-.044.54-.01 1.088-.01 1.632M125.58 59.7c-.473 1.339-.158 2.154.748 2.79.238.167.543.338.397.72-.135.352-.47.377-.763.365-3.659-.15-7.287.44-10.938.43-.883-.002-1.273-.494-.538-1.257 1.212-1.258.278-1.525-.767-1.67-.465-.065-.973.035-1.44.148-1.544.374-1.682.852-.592 2 .199.21.56.308.44.696-.11.365-.452.396-.745.39-1.418-.03-2.845.857-4.265-.1-.49-.331-.903.154-1.308.4-1.464.894-3.09 1.125-4.735.917-2.514-.319-3.593-1.665-4.08-4.174-.287-1.482.378-3.361-1.555-4.35-.498-.254-.297-.993.325-1.072 1.56-.2 3.107-.737 4.702-.38.749.167 1.443.473.357 1.221-.534.368-.574.85-.478 1.444a53.15 53.15 0 0 1 .44 3.435c.11 1.14.451 2.131 1.797 2.062 1.427-.074 2.824-.624 2.801-2.28-.027-1.926.693-4.215-1.91-5.357-.666-.292-.28-1.016.362-1.17.822-.197 1.686-.219 2.527-.347.68-.104 1.447-.233 1.845.408.515.829-.517.906-.855 1.316-.394.478-.37 1.022-.324 1.561.104 1.21.24 2.418.381 3.625.054.452-.223 1.144.383 1.268.63.128.901-.546 1.115-1.032.712-1.617 1.379-3.252 2.06-4.882.187-.45.35-.91.547-1.355.296-.664.53-1.419 1.449-1.444.922-.025 1.632.33 2.105 1.172 1.102 1.965 2.243 3.908 3.357 5.866.486.855 1.074 1.494 2.182 1.225 1.147-.28 1.38-1.186 1.253-2.13-.248-1.858.315-3.892-1.257-5.492-.59-.6-.066-1.051.597-1.032 2.488.072 4.987-.492 7.46.054 1.138.252 2.292.663 2.651 1.958.342 1.228-.268 2.112-1.274 2.764-.328.213-.54.443-.441.892.244 1.104 2.834 2.91 3.992 2.774.828-.098 1.4-.466 1.423-1.36.039-1.583.051-3.167.043-4.75 0-.289-.086-.622-.248-.855-.32-.462-1.236-.702-.823-1.419.435-.752 1.328-.4 2.02-.375 1.458.055 2.917.15 4.367.31 2.476.273 4.679 1.182 5.816 3.534 1.398 2.89-.744 6.108-4.42 6.342-3.882.246-7.792.056-11.69.066-.68.002-1.1-.374-1.532-.844-.9-.98-1.86-1.905-2.965-3.026"/>
        <path fill="#FFF" d="M175.897 63.245c.388-1.836 1.093-3.247-.357-4.468-.237-.2-.39-.517-.204-.815.185-.296.523-.249.827-.196.78.136 1.574.22 2.332.43.673.187 1.644.139 1.82.97.185.873-.858.617-1.29.96-.468.375-.624.855-.73 1.413-.319 1.672-.683 3.334-1.02 5.002-.117.575.003 1.294-.83 1.427-.836.133-1.36-.307-1.787-.985a405.992 405.992 0 0 0-3.555-5.531c-.22-.339-.38-.775-1.135-.845.139 1.781-1.684 3.635.572 5.249.19.136.274.412.115.656-.193.296-.503.321-.807.258a85.343 85.343 0 0 0-9.364-1.411c-.452-.042-.814-.275-.944-.74-.134-.476.198-.633.563-.769.164-.061.38-.137.45-.271.276-.524.07-1.12-.393-1.217-1.016-.21-2.08-.922-3.107-.176-.407.295-.779.85-.137 1.379.35.288 1.015.488.611 1.093-.317.478-.881.176-1.355.13-2.84-.269-5.684-.51-8.525-.78-.461-.045-1.046.039-1.241-.555-.225-.68.458-.75.796-1.037.457-.387.597-.894.644-1.457.107-1.272.235-2.543.33-3.816.042-.541.096-1.098-.328-1.554-.344-.37-1.092-.622-.653-1.292.34-.519 1.011-.346 1.533-.3 1.331.117 2.658.291 3.982.48.353.05.735.202.805.63.077.471-.28.647-.644.724-.766.161-.816.75-.963 1.364-.36 1.504-.242 3.03-.298 4.546-.05 1.347.768 1.534 1.815 1.177.85-.29 1.333-1.02 1.8-1.746a591.368 591.368 0 0 1 2.886-4.442c.568-.867 1.068-1.801 2.389-1.605 1.218.182 1.456 1.119 1.771 2.054.68 2.018 1.403 4.02 2.079 6.04.252.754.594 1.324 1.5 1.324.963 0 1.456-.566 1.657-1.406a72.39 72.39 0 0 0 .785-3.752c.139-.755.028-1.455-.673-1.948-.313-.22-.554-.536-.338-.93.208-.38.625-.335.98-.288 1.973.258 3.802.679 4.846 2.72.713 1.39 1.697 2.642 2.79 4.306M88.961 67.62c-3.258.002-5.577-2.048-5.782-5.112-.181-2.711 2.18-5.13 5.469-5.557 1.023-.132 2.059-.162 3.088-.253.696-.062 1.397-.064 1.696.705.352.905.73 1.889.429 2.83-.203.636-.825.357-1.163-.053-1.246-1.515-2.689-2.404-4.57-1.183-1.267.824-1.41 3.107-.495 5.23.744 1.722 1.839 2.184 3.296 1.392 1.172-.639 1.19-1.39-.007-2.065-.444-.25-.944-.426-.889-1.004.059-.612.655-.67 1.112-.766 1.25-.264 2.503-.6 3.768-.67.82-.046 1.991.138.846 1.453-.154.178-.293.39-.372.61-.309.864.588 1.988-.569 2.67-1.642.969-3.374 1.676-5.309 1.77-.182.01-.365.001-.548.003"/>
    </g>
</svg>
