<svg xmlns="http://www.w3.org/2000/svg" xmlns:xlink="http://www.w3.org/1999/xlink" width="219" height="53" viewBox="0 0 219 53">
    <defs>
        <path id="a" d="M0 .238h97.49V52H0z"/>
    </defs>
    <g fill="none" fill-rule="evenodd">
        <g>
            <mask id="b" fill="#fff">
                <use xlink:href="#a"/>
            </mask>
            <path fill="#E32118" d="M16.147 51.853c-3.342-.45-6.384-1.802-9.425-4.19C5.698 46.858 0 41.052 0 40.813c0-.176 4.37-11.73 4.479-11.842.054-.055 1.522 1.392 3.26 3.217 5.316 5.578 6.435 6.692 7.253 7.222 2.29 1.483 5.103 1.344 6.915-.34 1.689-1.571 1.907-3.92.555-5.961-.273-.414-2.46-2.802-4.86-5.308-2.4-2.506-4.54-4.811-4.755-5.123-.888-1.288-1.657-3.144-2.03-4.903-.215-1.017-.215-4.107 0-5.124.247-1.164.794-2.783 1.244-3.678 1.39-2.763 3.834-5.147 6.777-6.609 1.877-.933 4.711-1.713 7.22-1.986.866-.095 9.876-.14 27.703-.14h26.42l-2.287 5.68-2.287 5.682-9.295.07c-10.216.077-9.945.055-11.207.898-.664.444-1.284 1.304-1.406 1.951-.138.728.029 1.95.357 2.63.196.405 1.05 1.392 2.417 2.793 2.174 2.23 5.722 6.06 6.6 7.125.784.953 1.647 2.56 2.06 3.845 1.672 5.182-.124 11.125-4.74 15.7-3.179 3.149-6.73 4.864-10.891 5.258-5.22.494-10.425-1.712-15.09-6.395l-1.597-1.602-.843 1.189c-2.426 3.416-5.753 5.618-9.906 6.555-1.336.302-4.49.427-5.919.235zM50.784 39.87c1.081-.532 1.731-1.166 2.234-2.181.247-.497.298-.82.298-1.853 0-2.037-.137-2.242-4.665-6.993-5.696-5.976-5.853-6.152-6.603-7.403a14.83 14.83 0 0 1-1.116-2.412c-.391-1.168-.42-1.375-.419-3.091 0-1.826.132-2.511.776-4.04.092-.217-.293-.23-7.019-.229-4.35 0-7.45.055-7.974.14-2.208.356-3.356 1.473-3.343 3.255.01 1.592-.083 1.478 10.08 12.132C44.36 39.067 44.375 39.081 45.448 39.642c1.304.68 1.787.796 3.13.755 1.09-.033 1.305-.084 2.207-.527zM65.49 51.112c.185-.489 4.56-12.09 9.722-25.783C80.374 11.638 84.638.39 84.69.336 84.739.28 87.64.25 91.136.27l6.355.034-9.737 25.814-9.737 25.814-6.431.034-6.433.034.337-.888z" mask="url(#b)"/>
        </g>
        <path fill="#000" d="M93.105 52.781c-1.332-.486-2.272-2.051-2.08-3.464.323-2.385 2.949-3.668 4.966-2.426 2.103 1.295 2.097 4.327-.012 5.625-.776.479-1.986.59-2.874.265zm2.18-.821c.655-.296 1.198-.914 1.381-1.571.17-.612.17-.766 0-1.378-.385-1.382-1.965-2.16-3.277-1.614-1.02.425-1.53 1.192-1.53 2.303 0 1.097.502 1.866 1.5 2.298.622.268 1.279.255 1.927-.038zm-2.456-2.251v-1.725h1.23c1.366 0 1.74.15 1.854.744.098.51-.15 1.103-.519 1.244l-.318.12.31.497c.17.273.355.571.409.662.07.12-.031.165-.366.165-.42 0-.497-.062-.824-.66-.484-.886-.819-.898-.874-.033-.04.601-.059.629-.471.669l-.431.04V49.71zm2.229-.702c-.036-.253-.135-.303-.672-.337-.597-.038-.63-.023-.63.297 0 .317.04.337.672.337.621 0 .669-.022.63-.297zm85.574 3.795c-.671-.237-1.204-.822-1.396-1.535-.093-.342-.133-1.35-.106-2.613.048-2.234.167-2.65.916-3.205.554-.412 1.23-.494 4.072-.498 3.077-.003 3.701.103 4.336.735.565.563.727 1.317.727 3.403 0 2.523-.401 3.416-1.695 3.773-.776.215-6.209.167-6.854-.06zm6.749-1.376c.339-.318.341-.335.341-2.401 0-2.01-.01-2.095-.32-2.452l-.32-.37h-2.84c-3.213 0-3.455.055-3.676.847-.18.645-.168 3.435.017 3.964.254.726.613.8 3.716.764 2.697-.032 2.745-.037 3.081-.352zm-81.962-2.452V45.08h1.326v7.788h-1.326v-3.894zm2.783 0V45.08l.895.004.894.003 3.247 3.093 3.248 3.093.035-3.096.035-3.097h1.454v7.788h-1.882l-3.268-3.135-3.266-3.135-.036 3.135-.035 3.135h-1.32v-3.894zm14.182.594v-3.3h-3.844V45.08h9.013v1.188h-3.844v6.6H122.384v-3.3zm5.698-.594V45.08h7.82v1.188H129.54v1.98h6.096v1.188H129.54v2.244h6.362v1.188h-7.82v-3.894zm8.747 0V45.08l3.678.003c3.327.003 3.731.027 4.233.254.763.345.97.797.97 2.122 0 1.063-.128 1.514-.506 1.792-.169.124-.152.203.122.572.274.37.323.603.363 1.736l.045 1.31h-1.324l-.046-1.2c-.067-1.751.025-1.705-3.374-1.705h-2.702v2.904h-1.458v-3.894zm7.276-.515c.215-.194.279-.408.279-.932 0-1.205.048-1.187-3.236-1.233l-2.86-.04v2.537l2.77-.04c2.504-.037 2.796-.065 3.047-.292zm2.797.515V45.08h1.811l3.302 3.15 3.303 3.149.035-3.15.035-3.149H156.71v7.788H154.88l-3.227-3.083-3.227-3.084-.035 3.084-.036 3.083H146.902v-3.894zm11.613 1.557l2.326-3.9.923-1.55h1.532l2.273 3.82c1.25 2.101 2.273 3.853 2.273 3.894 0 .04-.344.073-.764.073h-.765l-.437-.792-.437-.792h-5.784l-.451.759-.452.759-.82.04-.819.038 1.402-2.349zm5.884-.93c-1.45-2.487-1.802-3.065-1.865-3.066-.063-.002-1.965 3.137-2.092 3.45-.024.061.922.11 2.101.11h2.145l-.289-.494zm6.226-.033v-3.3h-3.843V45.08h9.012v1.188h-3.843v6.6h-1.326v-3.3zm5.832-.594V45.08H177.782v7.788H176.457v-3.894zm13.916 0V45.08l.894.005.895.004 3.247 3.103 3.247 3.103.035-3.108.036-3.107H200.18v7.788l-.96-.006-.961-.007-3.248-3.114-3.247-3.115-.035 3.121-.035 3.12H190.373v-3.893zm10.559 3.25c.206-.353 1.24-2.102 2.297-3.887l1.922-3.245h.794l.796-.001 1.921 3.243c1.057 1.784 2.091 3.534 2.298 3.89l.375.644h-1.602l-.436-.79-.436-.79H203.03l-.436.79-.436.79h-1.602l.376-.643zm6.511-3.283a308.01 308.01 0 0 0-1.094-1.832l-.409-.677-1.084 1.832-1.083 1.832h4.355l-.685-1.155zm4.4.033V45.08h1.326v6.6H219v1.188h-7.156v-3.894zM108.676 37.689c-1.263-.158-1.964-.452-2.51-1.055-.548-.604-.744-1.22-.745-2.344v-.825h1.856v.732c0 .404.086.9.192 1.104.358.689.694.738 5.043.738 4.25 0 4.622-.049 5.023-.659.291-.443.403-1.535.215-2.103-.303-.913-.356-.924-5.1-1.022-4.452-.091-5.138-.177-6.07-.75-.692-.426-1.063-1.218-1.133-2.418-.133-2.288.564-3.304 2.625-3.82 1.159-.291 7.734-.247 8.88.059 1.623.434 2.273 1.186 2.445 2.826l.086.825h-2.001v-.63c0-.77-.243-1.142-.896-1.372-.714-.252-7.575-.25-8.293.003-.675.238-1.015.806-1.016 1.696 0 1.63.311 1.754 4.41 1.759 1.692.002 3.667.06 4.387.13 2.822.273 3.806 1.343 3.626 3.946-.117 1.702-.74 2.515-2.305 3.002-.761.237-7.2.369-8.719.178zm16.545.007c-1.101-.172-1.654-.408-2.255-.959-.982-.902-1.045-1.222-1.045-5.318 0-4.103.061-4.415 1.054-5.326.957-.879 1.451-.97 5.658-1.042 4.216-.072 5.496.043 6.498.586.962.521 1.335 1.22 1.41 2.635l.058 1.101h-1.72l-.073-.711c-.04-.391-.163-.883-.272-1.093-.389-.748-.531-.77-5.112-.77-3.973 0-4.211.014-4.647.27-.253.147-.58.474-.73.725-.25.426-.269.677-.269 3.625s.019 3.2.27 3.625c.148.252.476.578.729.726.428.25.72.272 4.303.313 5.447.061 5.658-.007 5.836-1.902l.094-.991.878.038.879.039-.024 1.005c-.03 1.341-.23 2.01-.754 2.532-.835.832-1.378.92-5.982.961-2.26.02-4.412-.01-4.784-.068zm34.061-.013c-1.637-.213-2.64-.987-3.073-2.37-.188-.6-.228-1.271-.228-3.894 0-3.756.117-4.346 1.035-5.26.97-.965 1.391-1.042 6.06-1.11 4.703-.068 6.04.044 7.048.59.713.386 1.14.916 1.52 1.886.202.512.234 1.053.231 3.894-.004 2.816-.036 3.387-.233 3.894-.577 1.486-1.467 2.156-3.158 2.374-1.154.149-8.045.146-9.202-.004zm9.12-1.716c.69-.19 1.223-.68 1.406-1.288.21-.7.21-5.82 0-6.52-.183-.608-.716-1.097-1.405-1.288-.676-.187-8.283-.18-8.976.008-.29.08-.671.272-.845.428-.618.558-.678.927-.678 4.112 0 3.186.06 3.553.678 4.114.174.158.524.345.779.417.63.178 8.408.192 9.042.017zm8.984 1.725c-1.438-.185-2.453-.86-2.948-1.963-.363-.81-.543-2.999-.447-5.442.109-2.775.432-3.748 1.483-4.466.931-.635 1.458-.706 5.692-.77 5.803-.089 6.999.12 7.977 1.398.704.919.767 1.329.767 4.97 0 3.642-.063 4.051-.767 4.97-.558.729-1.382 1.138-2.612 1.296-1.127.145-8.034.15-9.145.007zm9.654-1.917c.874-.52.948-.862.948-4.365 0-2.925-.017-3.154-.277-3.614-.564-1-.544-.997-5.686-.997-4.36 0-4.594.013-5.032.27-.252.147-.58.474-.729.725-.251.426-.27.677-.27 3.625 0 4.897-.269 4.696 6.229 4.65 4.107-.028 4.4-.046 4.817-.294zm20.99 1.91c-1.28-.135-2.308-.633-2.786-1.352-.308-.463-.364-.702-.404-1.71l-.047-1.17.908.039.909.039.066.878c.078 1.041.297 1.342 1.127 1.55.752.189 7.118.194 7.995.007.948-.203 1.256-.587 1.324-1.649.064-1.007-.119-1.54-.615-1.785-.26-.13-1.458-.2-4.463-.263-2.342-.05-4.385-.153-4.75-.24-1.88-.45-2.492-1.262-2.499-3.307-.008-2.446.927-3.306 3.903-3.591 1.756-.169 6.334-.07 7.388.158 1.844.399 2.648 1.327 2.65 3.061v.627h-1.856v-.442c0-.76-.244-1.233-.771-1.494-.438-.217-.868-.242-4.2-.242-4.014 0-4.474.064-4.967.688-.21.265-.267.535-.267 1.25 0 .784.044.956.315 1.226.415.413.747.446 5.251.514 3.289.05 3.883.091 4.594.317 1.72.547 2.167 1.224 2.163 3.274-.005 1.464-.208 2.1-.875 2.723-.58.542-1.268.767-2.745.9-1.582.142-5.964.138-7.35-.007h.001zm-69.079-6.266v-6.281l.961.039.96.038.037 2.607.035 2.607h10.592l.036-2.607.035-2.607h1.856l.035 6.237.034 6.237h-1.991v-5.676H140.943l-.036 2.805-.035 2.805-.961.039-.961.038V31.42zm53.472 6.105c-.035-.091-.048-2.898-.03-6.237l.035-6.072.961-.038.96-.04V35.974H203.76v1.716h-5.637c-4.387 0-5.651-.037-5.7-.165zm-82.918-19.781c-1.35-.173-2.335-.591-3.043-1.29-.753-.745-1.042-1.598-1.042-3.08v-1.037l1.094.038 1.093.038.067 1.063c.077 1.248.285 1.64 1.095 2.07.557.297.602.299 6.061.299h5.5l.656-.33c1.06-.534 1.2-.824 1.2-2.508 0-1.408-.007-1.442-.39-1.84-.215-.223-.602-.471-.862-.552-.29-.09-2.563-.183-5.905-.242-6.029-.105-6.723-.189-8.032-.97-.568-.338-.787-.576-1.11-1.204-.386-.754-.4-.846-.399-2.508 0-1.31.055-1.84.22-2.205.55-1.218 1.846-2.073 3.556-2.35 1.118-.18 9.742-.18 10.856 0 2.734.441 3.816 1.497 3.96 3.859l.062 1.028-1.11-.038-1.111-.039-.09-.905c-.154-1.543-.658-1.86-3.322-2.083-2.333-.196-8.124-.077-9.085.187-1.284.35-1.75 1.063-1.75 2.671 0 1.28.213 1.71 1.036 2.087.592.271.873.288 6.12.373 3.026.05 5.77.15 6.099.222 1.689.378 2.678 1.025 3.259 2.134.353.672.428 3.379.124 4.422-.449 1.537-1.832 2.439-4.149 2.703-1.386.158-9.402.149-10.658-.013zm22.643.014c-1.276-.223-1.98-.562-2.762-1.33-.64-.63-.798-.886-1.06-1.717-.297-.94-.31-1.142-.31-5.334 0-3.767.032-4.455.232-5.097.51-1.644 1.597-2.675 3.239-3.076.793-.193 1.66-.216 7.001-.181l6.096.039.828.381c.96.442 1.797 1.274 2.026 2.014.087.28.187 1.088.224 1.796l.067 1.287h-2.151v-.904c0-1.248-.369-1.947-1.264-2.396l-.658-.33h-5.367c-4.127 0-5.505.041-5.962.178-.76.229-1.644 1.093-1.842 1.802-.093.335-.147 2.026-.147 4.62.001 4.048.005 4.099.321 4.776.363.776.99 1.26 1.93 1.493.403.099 2.338.134 5.964.107l5.368-.041.654-.33c.901-.455 1.135-.938 1.135-2.34v-1.092H148l-.066 1.49c-.104 2.36-.741 3.333-2.58 3.94-.876.29-1.074.3-6.734.328-3.208.016-6.12-.022-6.472-.083zm23.038-.018c-1.175-.15-2.435-.728-2.894-1.327-.807-1.054-.8-.983-.808-8.422l-.008-6.797 1.155-.038 1.155-.038.038 6.637c.043 7.576 0 7.28 1.14 7.805.605.278.757.285 6.32.285 5.665 0 5.702-.002 6.26-.299 1.08-.574 1.024-.167 1.067-7.714l.037-6.704h2.39l-.04 6.896-.04 6.898-.317.698c-.57 1.256-1.56 1.855-3.526 2.134-1.135.161-10.642.15-11.928-.014zm20.08-8.367V1.117l7.918.038 7.919.038.662.303c.907.416 1.607 1.13 1.864 1.9.161.482.202 1.03.169 2.263-.042 1.548-.062 1.651-.416 2.113-.374.486-1.2 1-1.644 1.022-.13.007.1.119.514.248 1.041.326 1.546.724 1.913 1.51.285.608.315.85.313 2.52 0 1.509-.046 1.946-.244 2.381-.365.8-1.355 1.598-2.37 1.91-.814.25-1.236.263-8.727.263h-7.872V9.372zm15.8 6.117c.834-.375 1.03-.863 1.03-2.549 0-1.645-.175-2.11-.954-2.534-.4-.218-.977-.241-6.964-.278l-6.527-.041V15.79l6.46-.039c5.73-.035 6.518-.064 6.956-.262zm-.569-7.598c.777-.394.981-.807 1.044-2.113.073-1.515-.133-2.048-.93-2.408-.536-.243-.912-.257-6.764-.26l-6.196-.003V8.122h6.196c5.637 0 6.237-.02 6.65-.23zm6.106 9.658c0-.042 2.192-3.754 4.87-8.247l4.872-8.17 1.457.003 1.458.003 4.837 8.128c2.661 4.471 4.858 8.181 4.882 8.244.024.064-.55.116-1.275.116h-1.32l-1.013-1.717-1.014-1.717-6.587.034-6.588.034-.994 1.683-.995 1.683h-1.295c-.712 0-1.295-.035-1.295-.077zm16.526-5.434c-.095-.167-5.298-8.94-5.32-8.971-.017-.024-5.138 8.583-5.339 8.971-.028.055 2.371.1 5.332.1s5.358-.045 5.327-.1z"/>
    </g>
</svg>
