<svg xmlns="http://www.w3.org/2000/svg" width="113" height="118" viewBox="0 0 113 118">
    <g fill="#FFF" fill-rule="evenodd">
        <path d="M55.002 5.456v-.504c-14.986 0-29.98.28-44.95-.163-4.722-.139-6.058.96-6.39 5.591-1.69 23.519-.296 47.001.252 70.499.105 4.476 2.227 5.717 6.242 5.637 30.392-.601 60.762.641 91.136 1.271 5.723.12 7.66-1.803 7.484-7.57-.696-22.876-1.107-45.763-1.387-68.648-.056-4.559-1.549-6.247-6.176-6.188-15.402.198-30.807.075-46.21.075m57.55 64.695c-1.488 4.873-.728 9.904-.97 14.859-.17 3.506-1.63 5.415-5.137 5.746-2.064.195-4.121.641-6.182.653-28.448.156-56.873 1.94-85.329 1.194-4.968-.132-9.92-.788-14.881-1.202C.054 62.51.09 33.616 0 4.724-.008 1.576-.107-.032 4.213 0c34.71.27 69.424.259 104.134.01 4.18-.03 4.294 1.386 4.274 4.666-.128 21.824-.067 43.65-.067 65.475M31.37 102.537c-1.987 2.046-2.264 4.816-3.15 7.337-.8 2.275-.833 5.303-3.692 6.032-2.926.746-2.986-2.983-4.976-3.964-2.174.741-1.81 4.751-4.811 4.047-2.947-.69-3.039-3.728-3.688-5.993-1.069-3.733-4.232-7.522-2.816-11.17 1.85-4.767 6.602-.622 10.034-1.243 4.402-.796 10.375-2.444 14.145 2.844l-1.046 2.11"/>
        <path d="M31.37 102.537l1.046-2.11c1.247-.725 2.474-1.498 3.751-2.173 4.777-2.527 9.264-2.008 13.044 1.828 3.51 3.564 3.66 7.872 1.132 11.962-2.631 4.26-6.69 6.087-11.702 4.844-5.485-1.36-7.549-5.317-7.524-10.642.006-1.237.165-2.473.252-3.71M90.834 116.603c-4.102.42-6.137-1.068-4.94-6.102.603-2.532.415-5.44-.14-8.02-.95-4.412 1.184-5.663 4.917-5.786 6.947-.227 12.358 4.22 12.516 10.258.156 6.035-4.37 9.711-12.353 9.65"/>
        <path d="M60.078 109.945c-1.693 2.076 2.215 5.599-2.034 6.345-2.901.508-5.522.356-4.956-3.993.399-3.061.641-6.263.182-9.285-.553-3.638-.517-6.168 4.054-6.41 5.793-.307 10.278 2.465 9.875 6.803-.272 2.952-.321 5.755.421 8.603.42 1.61 1.023 3.484-1.215 4.173-2.16.665-3.565-.366-4.108-2.595-.32-1.315.058-3.04-2.22-3.641M76.397 116.666c-5.124 1.017-6.76-.64-5.446-5.67.657-2.52.191-5.36.074-8.048-.078-1.785-1.252-3.799 1.11-4.926 1.556-.744 3.337-.82 4.817.056 2.356 1.395.629 3.19.295 4.916-.391 2.013-.541 4.101-.52 6.154.016 1.467.434 3.264 2.557 2.319 2.355-1.05 4.23-1.258 4.35 1.906.104 2.802-2.18 3.161-4.36 3.283-1.036.058-2.077.01-2.877.01M9.776 56.733c-.041-2.281.16-4.588-.839-6.756-.737-1.603-1.29-3.285.853-4.214 2.186-.948 4.516-.864 6.705-.019 2.176.84 1.736 2.473.931 4.126-.93 1.908-.617 3.418 1.775 3.42 2.086.003 3.036-1.263 2.23-3.357-.636-1.65-1.254-3.37.892-4.214 2.38-.934 4.97-1.126 7.2.349 1.894 1.252.512 2.916.142 4.481-1.064 4.509-1.261 9.056.216 13.523.56 1.693 1.094 3.356-.881 4.315-2.14 1.04-4.494 1.046-6.657.066-1.99-.903-1.703-2.59-.962-4.26.697-1.571 1.38-3.288-.479-4.409-.74-.446-2.16-.446-2.93-.026-1.915 1.044-1.394 2.775-.625 4.346.804 1.646 1.218 3.349-.721 4.308-2.324 1.15-4.925 1.18-7.245.033-1.926-.952-1.451-2.773-.721-4.365 1.079-2.353 1.069-4.85 1.116-7.347M63.259 45.114c10.615.08 11.698 1.41 11.338 11.505-.086 2.418.623 4.946 1.38 7.288.715 2.215 1.324 4.177-1.588 4.933-2.808.728-4.97-.062-5.481-3.318-.16-1.025-.18-2.074-.364-3.094-.229-1.276-.713-2.646-2.322-2.116-1.183.389-1.08 1.812-.64 2.715 2.97 6.119-1.044 6.204-5.192 5.996-2.901-.144-4.24-1.546-2.874-4.54 1.814-3.977 2.079-8.545.713-12.198-2.596-6.946.68-7.554 5.03-7.171M43.493 69.006c-1.662 0-3.33.083-4.986-.017-3.151-.19-4.468-1.44-3.303-4.878 1.634-4.824 1.623-9.792-.13-14.641-.975-2.699.163-4.174 2.707-4.275 4.142-.164 8.305-.03 12.448.164 1.797.083 3.154 1.117 3.318 3.103.179 2.153-.868 3.237-2.904 4.138-3.424 1.515-4.002 6.341-.892 8.052 2.412 1.328 4.58 2.268 3.618 5.425-1.05 3.45-4.128 2.874-6.758 3.043-1.035.066-2.08.01-3.118.01v-.124M90.927 63.578c4.044-.223 6.955-2.068 7.158-6.197.196-3.993-2.034-6.718-6.271-6.85-4.09-.126-6.733 2.15-7.148 6.168-.447 4.339 2.434 6.175 6.261 6.879m13.644-6.339c-.115 6.928-6.466 12.909-13.537 12.749-7.143-.163-12.517-5.707-12.473-12.868.044-7.096 5.565-12.222 13.056-12.125 7.635.1 13.07 5.236 12.954 12.244M95.537 42.274c-3.548-.92-8.285 2.656-10.482-1-1.505-2.506-.02-6.757-.036-10.229-.007-1.643-.335-3.296-.624-4.925-.53-3.002.97-4.407 3.722-4.37 2.592.033 5.288.443 4.313 4.244-.365 1.424-1.182 3.169 1.012 3.428 2.534.298 2.34-1.634 2.007-3.4-.681-3.607 1.575-4.395 4.389-4.252 2.926.152 3.745 1.88 3.303 4.72-.444 2.85-.683 5.782-.567 8.66.31 7.698.404 7.694-7.037 7.124M33.617 35.483c-1.995 2.166 1.577 4.836-1.134 6.496-1.696 1.04-3.627 1.009-5.406.22-2.196-.973-1.301-2.591-.751-4.219 1.23-3.649 1.283-7.352-.09-10.99-.61-1.62-1.368-3.39.507-4.444 3.626-2.037 7.339-.662 10.865.465 2.968.95 4.27 3.413 3.568 6.427-.645 2.766-.258 5.357.347 8 .453 1.98 1.601 4.31-1.535 5.028-2.832.648-4.2-1.003-4.717-3.65-.222-1.133.127-2.573-1.654-3.333M54.828 22.4c3.394-.127 5.81.385 5.557 4.71-.207 3.548 1.21 6.922 2.733 10.13.905 1.91 2.345 4.096-.761 5.017-2.496.74-5.554 1.336-6.58-2.43-.314-1.15.071-2.831-1.712-2.72-1.937.121-.91 1.794-1.156 2.866-.81 3.544-3.695 2.893-5.967 2.31-3.422-.88-1.581-2.99-.734-4.832 1.479-3.209 3.3-6.525 3.056-10.035-.325-4.696 2.151-5.225 5.564-5.016M71.869 27.707c2.41 1.392 3.061 1.887 3.795 2.174 3.901 1.527 6.612 3.916 5.161 8.491-1.441 4.542-5.24 4.78-9.199 4.297-2.06-.25-5.102-.4-4.826-2.844.515-4.538.447-8.92.049-13.447-.194-2.209 2.156-4.075 4.59-4.463 2.655-.423 5.473-.372 7.718 1.353 1.236.95 1.192 2.668.483 4.045-1.622 3.152-3.965-.062-7.771.394M14.938 42.842c-2.841-.265-5.06-.609-3.524-4.514 1.502-3.818 1.832-7.535-2.722-10.162-1.754-1.013-1.473-3.304.239-4.81 1.722-1.515 11.598-1.336 13.235.201 1.432 1.346 1.766 3.879.43 4.323-7.375 2.45-4.82 7.085-3.497 12.02.827 3.08-2.293 2.636-4.16 2.942"/>
    </g>
</svg>
