<svg xmlns="http://www.w3.org/2000/svg" xmlns:xlink="http://www.w3.org/1999/xlink" width="147" height="150" viewBox="0 0 147 150">
    <defs>
        <path id="a" d="M0 .637h146.967v120.762H0z"/>
        <path id="c" d="M.454.62h11.673v17.89H.454z"/>
        <path id="e" d="M.454.62h11.673v17.89H.454z"/>
        <path id="g" d="M0 149.364h146.967V.638H0z"/>
    </defs>
    <g fill="none" fill-rule="evenodd">
        <g transform="translate(0 .002)">
            <mask id="b" fill="#fff">
                <use xlink:href="#a"/>
            </mask>
            <path fill="#FEFEFE" d="M1.49 74.12c0-39.697 32.296-71.994 71.994-71.994 39.697 0 71.993 32.297 71.993 71.995 0 18.079-6.7 34.621-17.746 47.278h1.959c10.774-12.788 17.278-29.287 17.278-47.278 0-40.52-32.965-73.484-73.484-73.484C32.964.637 0 33.602 0 74.12c0 17.991 6.503 34.49 17.278 47.278h1.958C8.19 108.742 1.49 92.2 1.49 74.121" mask="url(#b)"/>
        </g>
        <path fill="#FEFEFE" d="M3.126 74.122c0-38.795 31.562-70.358 70.358-70.358 38.795 0 70.358 31.563 70.358 70.358 0 18.184-6.934 34.779-18.296 47.28h1.02c11.213-12.577 18.04-29.144 18.04-47.28 0-39.216-31.905-71.121-71.122-71.121S2.363 34.906 2.363 74.122c0 18.136 6.826 34.703 18.04 47.28h1.02C10.06 108.9 3.125 92.306 3.125 74.122M90.217 128.1a1.51 1.51 0 0 0 3.017 0 1.509 1.509 0 0 0-3.017 0M57.197 131.473c-1.549 0-2.91.29-4.156.892l-.076.038.028 2.164.198-.112c1.191-.667 2.317-1.005 3.346-1.005 1.836 0 2.888 1.05 2.888 2.888v.107h-1.45c-4.174 0-6.474 1.51-6.474 4.256 0 2.202 1.663 3.737 4.035 3.737 1.75 0 3.096-.684 4.061-1.975v1.808h2.29v-7.57c0-3.468-1.575-5.228-4.69-5.228zm2.228 7.523c0 2.154-1.297 3.544-3.302 3.544-1.228 0-2.083-.807-2.083-1.964 0-1.514 1.447-2.347 4.079-2.347h1.306v.767zM72.655 125.796v7.668c-.93-1.304-2.231-1.99-3.91-1.99-3.098 0-5.175 2.55-5.175 6.347 0 3.912 2.106 6.641 5.13 6.641 1.79 0 3.18-.79 4.154-2.332v2.141h2.342v-18.475h-2.541zm-3.3 16.572c-1.93 0-3.13-1.685-3.13-4.399 0-2.716 1.21-4.473 3.084-4.473 2.099 0 3.346 1.675 3.346 4.473 0 2.671-1.295 4.399-3.3 4.399zM86.524 131.764l-3.597 7.217-3.325-7.217h-2.858l6.132 12.507 6.298-12.507zM92.865 131.764h-2.403v12.507H93v-12.507zM95.97 134.97c0 1.761 1.21 2.69 3.438 3.78 1.412.69 2.144 1.096 2.144 2.07 0 1-.903 1.647-2.303 1.647-.992 0-2.09-.281-3.18-.816l-.187-.088-.083 2.2.086.034c1.04.41 2.14.62 3.27.62 3.101 0 5.106-1.48 5.106-3.768 0-1.909-1.274-2.873-3.47-3.901-1.611-.752-2.283-1.197-2.283-1.995 0-.762.751-1.257 1.91-1.257 1.049 0 2.071.234 3.04.696l.18.085.115-2.159-.104-.033a10.99 10.99 0 0 0-3.083-.462c-2.748 0-4.596 1.344-4.596 3.347M112.165 131.473c-3.81 0-6.177 2.508-6.177 6.544s2.366 6.543 6.177 6.543c3.829 0 6.208-2.507 6.208-6.543s-2.38-6.544-6.208-6.544m.028 11.017c-2.107 0-3.52-1.807-3.52-4.494 0-2.706 1.413-4.521 3.52-4.521 2.14 0 3.52 1.77 3.52 4.521 0 2.73-1.38 4.494-3.52 4.494M123.05 133.791v-2.027h-2.314v12.507h2.53v-6.275c0-2.635 1.11-4.081 3.109-4.081.29 0 .572.042.913.14l.168.046.083-2.471-1.09-.084c-1.466 0-2.657.795-3.4 2.245M133.574 131.212c.42.424.633.98.633 1.584 0 .627-.235 1.19-.672 1.609a2.298 2.298 0 0 1-1.594.657c-.61 0-1.176-.244-1.608-.69a2.238 2.238 0 0 1-.651-1.576c0-.604.241-1.187.69-1.627a2.173 2.173 0 0 1 1.569-.642c.626 0 1.198.239 1.633.685zm-2.918.247c-.366.37-.559.84-.559 1.337 0 .483.182.929.526 1.283.353.366.824.567 1.318.567.483 0 .95-.189 1.313-.534.351-.341.547-.809.547-1.316 0-.497-.184-.95-.526-1.3a1.828 1.828 0 0 0-1.328-.56c-.5 0-.943.183-1.291.523zm1.33.042c.71 0 1.076.258 1.076.722 0 .327-.196.573-.53.672l.554 1.092h-.75l-.467-.986h-.203v.986h-.68V131.5h1zm-.32 1.097h.245c.3 0 .445-.107.445-.321 0-.243-.154-.345-.485-.345h-.205v.666z"/>
        <path fill="#FEFEFE" d="M97.76 111.368a15.061 15.061 0 0 1-11.6-.458 15.04 15.04 0 0 1-7.868-8.512v-.003a15.068 15.068 0 0 1 .446-11.592 15.074 15.074 0 0 1 8.519-7.877c7.843-2.893 16.579 1.127 19.474 8.969 2.894 7.837-1.13 16.573-8.971 19.473M73.58 95.696c-.704-9.704-8.707-17.398-18.538-17.593 5.437-2.323 11.686-3.59 18.458-3.59 6.813 0 12.972 1.23 18.405 3.663A18.915 18.915 0 0 0 75.253 89.2a19.141 19.141 0 0 0-1.672 6.497M54.663 112.23c-8.364 0-15.16-6.798-15.16-15.15 0-8.362 6.796-15.163 15.16-15.163 8.357 0 15.152 6.801 15.152 15.163 0 8.352-6.795 15.15-15.152 15.15m55.664-21.664a18.859 18.859 0 0 0-2.576-4.735c.894-3.802 3.737-7.593 3.737-7.593l-12.671-.01C91.704 73.636 83.069 71.2 73.5 71.2c-9.922 0-18.883 2.497-25.955 7.117l-11.889.009s2.803 3.75 3.716 7.525c-2.319 3.148-3.707 7.024-3.707 11.23 0 10.468 8.522 18.987 18.998 18.987 5.98 0 11.321-2.788 14.801-7.126l4.043 6.055 4.083-6.108a18.893 18.893 0 0 0 6.963 5.502c4.615 2.124 9.775 2.333 14.535.574 9.827-3.636 14.866-14.583 11.24-24.399M18.61 127.996l-2.284.788v2.98H13.79v2.003h2.46v6.42c0 3.055 1.042 4.301 3.591 4.301.651 0 1.271-.08 1.89-.248l.101-.024-.027-2.074-.177.061c-.5.178-.89.263-1.2.263-1.197 0-1.642-.678-1.642-2.498v-6.201h2.925v-2.003h-2.925v-3.828l-.178.06zM26.515 133.791v-2.027h-2.318v12.507h2.534v-6.275c0-2.635 1.106-4.081 3.109-4.081.287 0 .57.042.912.14l.164.046.085-2.471-1.088-.084c-1.47 0-2.657.795-3.398 2.245"/>
        <g transform="translate(37.66 130.853)">
            <mask id="d" fill="#fff">
                <use xlink:href="#c"/>
            </mask>
            <path fill="#FEFEFE" d="M6.946.62c-1.736 0-3.204.828-4.178 2.325V.91H.454v17.6h2.535v-6.824c.916 1.242 2.232 1.922 3.864 1.922 3.207 0 5.274-2.624 5.274-6.686 0-3.767-2.08-6.303-5.181-6.303m-.703 10.944c-2.01 0-3.254-1.716-3.254-4.474 0-2.656 1.316-4.37 3.348-4.37 1.96 0 3.135 1.626 3.135 4.346 0 2.777-1.238 4.498-3.23 4.498" mask="url(#d)"/>
        </g>
        <path fill="#FEFEFE" d="M35.521 131.764h-2.403v12.507h2.538v-12.507zM32.871 128.1c0 .83.682 1.508 1.512 1.508a1.51 1.51 0 0 0 1.506-1.507 1.51 1.51 0 0 0-1.506-1.509c-.83 0-1.512.677-1.512 1.509M54.415 93.754a3.154 3.154 0 0 0-3.16 3.153 3.161 3.161 0 0 0 3.16 3.159 3.16 3.16 0 0 0 3.154-3.159 3.153 3.153 0 0 0-3.154-3.153M92.471 93.754a3.147 3.147 0 0 0-3.157 3.153 3.154 3.154 0 1 0 6.309 0 3.15 3.15 0 0 0-3.152-3.153"/>
        <path fill="#FEFEFE" d="M54.425 103.058c-3.395 0-6.16-2.76-6.16-6.15 0-3.389 2.765-6.146 6.16-6.146 3.383 0 6.137 2.757 6.137 6.146 0 3.39-2.754 6.15-6.137 6.15m0-15.527c-5.18 0-9.386 4.208-9.386 9.377 0 5.172 4.207 9.38 9.386 9.38 5.167 0 9.368-4.208 9.368-9.38 0-5.169-4.201-9.377-9.368-9.377M92.471 103.058a6.158 6.158 0 0 1-6.152-6.15 6.154 6.154 0 0 1 6.152-6.146 6.152 6.152 0 0 1 6.143 6.146c0 3.39-2.756 6.15-6.143 6.15m0-15.527c-5.172 0-9.383 4.208-9.383 9.377 0 5.172 4.211 9.38 9.383 9.38 5.17 0 9.371-4.208 9.371-9.38 0-5.169-4.202-9.377-9.37-9.377M118.566 78.214c.405.411.62.955.62 1.541 0 .615-.23 1.166-.657 1.572a2.253 2.253 0 0 1-1.56.639c-.586 0-1.141-.232-1.567-.67a2.187 2.187 0 0 1-.634-1.54c0-.587.238-1.158.67-1.587a2.16 2.16 0 0 1 1.53-.623c.614 0 1.172.23 1.598.668zm-2.849.24a1.83 1.83 0 0 0-.54 1.301c0 .478.173.913.51 1.255a1.76 1.76 0 0 0 1.282.551c.477 0 .932-.182 1.28-.519.347-.335.537-.788.537-1.287 0-.481-.18-.926-.513-1.265a1.784 1.784 0 0 0-1.292-.544c-.495 0-.923.175-1.264.509zm1.3.042c.696 0 1.045.25 1.045.703 0 .316-.188.556-.512.655l.536 1.067h-.73l-.454-.966h-.198v.966h-.664v-2.425h.976zm-.313 1.066h.238c.292 0 .435-.1.435-.315 0-.233-.15-.33-.47-.33h-.203v.645z"/>
        <path fill="#FEFEFE" d="M97.76 111.368a15.061 15.061 0 0 1-11.6-.458 15.04 15.04 0 0 1-7.868-8.512v-.003a15.068 15.068 0 0 1 .446-11.592 15.074 15.074 0 0 1 8.519-7.877c7.843-2.893 16.579 1.127 19.474 8.969 2.894 7.837-1.13 16.573-8.971 19.473M73.58 95.696c-.704-9.704-8.707-17.398-18.538-17.593 5.437-2.323 11.686-3.59 18.458-3.59 6.813 0 12.972 1.23 18.405 3.663A18.915 18.915 0 0 0 75.253 89.2a19.141 19.141 0 0 0-1.672 6.497M54.663 112.23c-8.364 0-15.16-6.798-15.16-15.15 0-8.362 6.796-15.163 15.16-15.163 8.357 0 15.152 6.801 15.152 15.163 0 8.352-6.795 15.15-15.152 15.15m55.664-21.664a18.859 18.859 0 0 0-2.576-4.735c.894-3.802 3.737-7.593 3.737-7.593l-12.671-.01C91.704 73.636 83.069 71.2 73.5 71.2c-9.922 0-18.883 2.497-25.955 7.117l-11.889.009s2.803 3.75 3.716 7.525c-2.319 3.148-3.707 7.024-3.707 11.23 0 10.468 8.522 18.987 18.998 18.987 5.98 0 11.321-2.788 14.801-7.126l4.043 6.055 4.083-6.108a18.893 18.893 0 0 0 6.963 5.502c4.615 2.124 9.775 2.333 14.535.574 9.827-3.636 14.866-14.583 11.24-24.399M18.61 127.996l-2.284.788v2.98H13.79v2.003h2.46v6.42c0 3.055 1.042 4.301 3.591 4.301.651 0 1.271-.08 1.89-.248l.101-.024-.027-2.074-.177.061c-.5.178-.89.263-1.2.263-1.197 0-1.642-.678-1.642-2.498v-6.201h2.925v-2.003h-2.925v-3.828l-.178.06zM26.515 133.791v-2.027h-2.318v12.507h2.534v-6.275c0-2.635 1.106-4.081 3.109-4.081.287 0 .57.042.912.14l.164.046.085-2.471-1.088-.084c-1.47 0-2.657.795-3.398 2.245"/>
        <g transform="translate(37.66 130.853)">
            <mask id="f" fill="#fff">
                <use xlink:href="#e"/>
            </mask>
            <path fill="#FEFEFE" d="M6.946.62c-1.736 0-3.204.828-4.178 2.325V.91H.454v17.6h2.535v-6.824c.916 1.242 2.232 1.922 3.864 1.922 3.207 0 5.274-2.624 5.274-6.686 0-3.767-2.08-6.303-5.181-6.303m-.703 10.944c-2.01 0-3.254-1.716-3.254-4.474 0-2.656 1.316-4.37 3.348-4.37 1.96 0 3.135 1.626 3.135 4.346 0 2.777-1.238 4.498-3.23 4.498" mask="url(#f)"/>
        </g>
        <path fill="#FEFEFE" d="M35.521 131.764h-2.403v12.507h2.538v-12.507zM32.871 128.1c0 .83.682 1.508 1.512 1.508a1.51 1.51 0 0 0 1.506-1.507 1.51 1.51 0 0 0-1.506-1.509c-.83 0-1.512.677-1.512 1.509M54.415 93.754a3.154 3.154 0 0 0-3.16 3.153 3.161 3.161 0 0 0 3.16 3.159 3.16 3.16 0 0 0 3.154-3.159 3.153 3.153 0 0 0-3.154-3.153M92.471 93.754a3.147 3.147 0 0 0-3.157 3.153 3.154 3.154 0 1 0 6.309 0 3.15 3.15 0 0 0-3.152-3.153"/>
        <path fill="#FEFEFE" d="M54.425 103.058c-3.395 0-6.16-2.76-6.16-6.15 0-3.389 2.765-6.146 6.16-6.146 3.383 0 6.137 2.757 6.137 6.146 0 3.39-2.754 6.15-6.137 6.15m0-15.527c-5.18 0-9.386 4.208-9.386 9.377 0 5.172 4.207 9.38 9.386 9.38 5.167 0 9.368-4.208 9.368-9.38 0-5.169-4.201-9.377-9.368-9.377M92.471 103.058a6.158 6.158 0 0 1-6.152-6.15 6.154 6.154 0 0 1 6.152-6.146 6.152 6.152 0 0 1 6.143 6.146c0 3.39-2.756 6.15-6.143 6.15m0-15.527c-5.172 0-9.383 4.208-9.383 9.377 0 5.172 4.211 9.38 9.383 9.38 5.17 0 9.371-4.208 9.371-9.38 0-5.169-4.202-9.377-9.37-9.377M118.566 78.214c.405.411.62.955.62 1.541 0 .615-.23 1.166-.657 1.572a2.253 2.253 0 0 1-1.56.639c-.586 0-1.141-.232-1.567-.67a2.187 2.187 0 0 1-.634-1.54c0-.587.238-1.158.67-1.587a2.16 2.16 0 0 1 1.53-.623c.614 0 1.172.23 1.598.668zm-2.849.24a1.83 1.83 0 0 0-.54 1.301c0 .478.173.913.51 1.255a1.76 1.76 0 0 0 1.282.551c.477 0 .932-.182 1.28-.519.347-.335.537-.788.537-1.287 0-.481-.18-.926-.513-1.265a1.784 1.784 0 0 0-1.292-.544c-.495 0-.923.175-1.264.509zm1.3.042c.696 0 1.045.25 1.045.703 0 .316-.188.556-.512.655l.536 1.067h-.73l-.454-.966h-.198v.966h-.664v-2.425h.976zm-.313 1.066h.238c.292 0 .435-.1.435-.315 0-.233-.15-.33-.47-.33h-.203v.645zM33.577 44.347c-.882 0-1.664-.174-2.345-.522a3.878 3.878 0 0 1-1.605-1.509c-.388-.658-.583-1.43-.583-2.311 0-.838.189-1.591.566-2.261a4.097 4.097 0 0 1 1.622-1.588c.704-.389 1.515-.584 2.435-.584.464 0 .937.062 1.42.186.482.123.895.29 1.24.499l-.28 1.447c-.817-.404-1.602-.605-2.357-.605-.554 0-1.048.115-1.482.348a2.519 2.519 0 0 0-1.02.998c-.248.434-.37.943-.37 1.526 0 .875.261 1.569.784 2.081.524.513 1.23.769 2.12.769.39 0 .805-.056 1.246-.168.442-.112.857-.27 1.246-.472l.18 1.481a5.026 5.026 0 0 1-1.314.505c-.493.12-.994.18-1.503.18M37.83 35.696h5.633v1.436h-3.972v2.042h3.512V40.6H39.49v2.188h4.128v1.436H37.83zM46.784 39.803h.841c1.175 0 1.762-.46 1.762-1.38 0-.442-.144-.777-.431-1.005-.289-.228-.713-.342-1.274-.342h-.898v2.727zm-1.638-4.107h2.771c.98 0 1.75.241 2.311.724.561.482.842 1.146.842 1.991 0 .501-.123.953-.37 1.352-.247.4-.599.724-1.055.97l2.278 3.49h-1.93l-1.829-3.063a14.644 14.644 0 0 1-.561.023h-.819v3.04h-1.638v-8.527zM54.549 37.11H51.81v-1.414h7.192v1.414h-2.738v7.113H54.55z"/>
        <mask id="h" fill="#fff">
            <use xlink:href="#g"/>
        </mask>
        <path fill="#FEFEFE" d="M60.193 44.223h1.717v-8.527h-1.717zM63.728 35.696h5.486v1.436h-3.792v2.278h3.276v1.425h-3.276v3.388h-1.694zM70.527 44.223h1.716v-8.527h-1.716zM78.134 44.347c-.882 0-1.664-.174-2.345-.522a3.878 3.878 0 0 1-1.604-1.509c-.39-.658-.584-1.43-.584-2.311 0-.838.189-1.591.566-2.261a4.097 4.097 0 0 1 1.622-1.588c.704-.389 1.515-.584 2.435-.584.464 0 .937.062 1.42.186.482.123.895.29 1.24.499l-.28 1.447c-.817-.404-1.602-.605-2.357-.605-.554 0-1.048.115-1.482.348a2.519 2.519 0 0 0-1.02.998c-.248.434-.37.943-.37 1.526 0 .875.261 1.569.784 2.081.524.513 1.23.769 2.12.769.39 0 .805-.056 1.246-.168.442-.112.857-.27 1.246-.472l.18 1.481a5.026 5.026 0 0 1-1.314.505c-.493.12-.994.18-1.503.18M87.178 40.655l-1.257-3.433-1.245 3.433h2.502zm-2.11-4.96h1.819l3.388 8.529h-1.818l-.808-2.245h-3.432l-.82 2.245H81.68l3.389-8.528zM92.43 37.11h-2.738v-1.414h7.191v1.414h-2.737v7.113h-1.717zM98.074 35.696h5.633v1.436h-3.973v2.042h3.512V40.6h-3.512v2.188h4.129v1.436h-5.79zM109.866 43.247c.33 0 .638-.093.926-.28.288-.187.522-.447.701-.78.18-.333.27-.705.27-1.116 0-.48-.127-.855-.382-1.128-.254-.273-.602-.41-1.044-.41-.336 0-.648.094-.937.28-.287.188-.52.448-.695.78a2.357 2.357 0 0 0-.264 1.117c0 .479.128.855.382 1.127.254.274.602.41 1.043.41m-.1 1.156c-.494 0-.938-.106-1.33-.32a2.39 2.39 0 0 1-.937-.914 2.662 2.662 0 0 1-.348-1.369c0-.599.139-1.158.416-1.678.276-.52.667-.94 1.172-1.262a3.075 3.075 0 0 1 1.688-.482c.494 0 .939.106 1.336.32.396.213.71.517.942.913.232.398.348.853.348 1.37a3.48 3.48 0 0 1-.42 1.677c-.281.52-.674.94-1.179 1.263a3.078 3.078 0 0 1-1.689.482M115.006 39.645h-1.033l.203-1.088h1.043l.19-.943c.165-.837.474-1.469.926-1.896.453-.426 1.038-.639 1.756-.639.232 0 .462.028.69.084.229.056.414.133.555.23l-.258 1.055a1.83 1.83 0 0 0-.92-.236c-.411 0-.738.129-.981.387s-.417.66-.521 1.206l-.147.752h1.582l-.202 1.088h-1.593l-.875 4.578h-1.302l.887-4.578zM20.573 47.994h7.885v2.01h-5.56v2.86h4.917v1.995h-4.917v3.063h5.78v2.01h-8.105zM34.16 53.728l-3.974-5.734h2.797l2.685 4.1 2.609-4.1h2.748l-4.021 5.765 4.289 6.173h-2.844l-2.953-4.54-2.922 4.54h-2.75zM47.874 60.105c-1.235 0-2.33-.243-3.282-.73a5.422 5.422 0 0 1-2.247-2.113c-.545-.921-.817-2-.817-3.236 0-1.173.264-2.228.794-3.166.528-.937 1.285-1.678 2.27-2.222.983-.545 2.12-.817 3.408-.817.65 0 1.312.087 1.987.259.676.173 1.254.406 1.736.7l-.392 2.025c-1.142-.565-2.242-.848-3.3-.848-.774 0-1.466.163-2.073.487a3.537 3.537 0 0 0-1.43 1.399c-.345.607-.518 1.319-.518 2.136 0 1.225.367 2.196 1.1 2.914.733.717 1.722 1.076 2.969 1.076.544 0 1.125-.078 1.743-.235a8.136 8.136 0 0 0 1.744-.66l.252 2.073a7.058 7.058 0 0 1-1.838.707 8.92 8.92 0 0 1-2.106.251M53.828 47.994h7.886v2.01h-5.56v2.86h4.916v1.995h-4.916v3.063h5.78v2.01h-8.106zM64.07 47.994h2.404v9.96h5.404v1.979h-7.807zM73.543 47.994h2.404v9.96h5.404v1.979h-7.808zM83.015 47.994H90.9v2.01h-5.56v2.86h4.917v1.995H85.34v3.063h5.78v2.01h-8.105zM93.258 47.994h2.137l6.251 8.294v-8.294h2.278v11.939h-2.136l-6.252-8.263v8.263h-2.278zM112.17 60.105c-1.235 0-2.33-.243-3.282-.73a5.422 5.422 0 0 1-2.247-2.113c-.545-.921-.816-2-.816-3.236 0-1.173.263-2.228.793-3.166.529-.937 1.285-1.678 2.27-2.222.984-.545 2.12-.817 3.408-.817.65 0 1.312.087 1.987.259.676.173 1.255.406 1.737.7l-.393 2.025c-1.142-.565-2.242-.848-3.3-.848-.774 0-1.465.163-2.073.487a3.537 3.537 0 0 0-1.43 1.399c-.345.607-.518 1.319-.518 2.136 0 1.225.367 2.196 1.1 2.914.733.717 1.722 1.076 2.969 1.076.544 0 1.125-.078 1.743-.235a8.136 8.136 0 0 0 1.745-.66l.251 2.073a7.058 7.058 0 0 1-1.838.707 8.92 8.92 0 0 1-2.105.251M118.125 47.994h7.885v2.01h-5.56v2.86h4.917v1.995h-4.917v3.063h5.78v2.01h-8.105zM62.187 27.386v-1.053c.773-.696 1.39-1.308 1.849-1.838.459-.53.775-.952.947-1.269.172-.316.259-.627.259-.933 0-.313-.095-.56-.288-.743-.191-.181-.446-.272-.765-.272-.307 0-.606.071-.9.216a2.731 2.731 0 0 0-.805.607l-.24-1.159c.263-.26.585-.465.968-.613.383-.146.782-.22 1.197-.22.683 0 1.226.183 1.632.547.406.363.608.852.608 1.464 0 .46-.116.924-.35 1.394-.232.468-.604.99-1.115 1.565-.217.243-.584.61-1.1 1.1h2.776v1.207h-4.673zM70.498 26.324c.78 0 1.168-.834 1.168-2.5 0-1.665-.389-2.498-1.168-2.498-.773 0-1.158.833-1.158 2.499 0 1.665.385 2.499 1.158 2.499m0 1.216c-.823 0-1.465-.327-1.925-.982-.459-.654-.69-1.565-.69-2.733 0-1.168.231-2.08.69-2.733.46-.655 1.102-.982 1.925-.982.824 0 1.467.329 1.93.986.462.657.693 1.567.693 2.729 0 1.161-.231 2.071-.694 2.728-.462.658-1.105.987-1.929.987M76.224 21.651l-1.849.824-.22-1.178 2.346-1.034h1.072v7.123h-1.35zM81.853 23.671c.345 0 .632-.115.862-.344.23-.23.345-.523.345-.881 0-.351-.114-.642-.34-.871-.227-.23-.516-.345-.867-.345-.345 0-.63.113-.857.34-.226.226-.34.519-.34.876 0 .364.11.659.33.886.22.226.51.34.867.34zm-1.752 3.687c1.213-1.003 2.055-1.992 2.528-2.969-.281.217-.661.326-1.14.326-.395 0-.76-.093-1.091-.278a2.08 2.08 0 0 1-.794-.785 2.246 2.246 0 0 1-.298-1.158c0-.447.104-.851.312-1.211.207-.361.503-.647.89-.857.386-.211.834-.316 1.345-.316.779 0 1.398.226 1.858.68.46.453.689 1.062.689 1.828 0 .773-.241 1.593-.723 2.46a8.368 8.368 0 0 1-1.93 2.327l-1.646-.047z" mask="url(#h)"/>
    </g>
</svg>
